<svg width="280" height="204" viewBox="0 0 280 204" fill="none" xmlns="http://www.w3.org/2000/svg">
<path d="M275.554 25.2068C273.319 18.1163 273.671 10.2481 276.488 3.37109C276.197 3.41684 275.922 3.47783 275.631 3.52358C275.631 3.52358 275.141 3.63032 275.126 3.63032C274.988 3.66081 274.865 3.69131 274.728 3.7218C270.992 4.65196 267.425 6.13105 263.843 7.51866C250.784 12.6116 236.607 15.6003 222.568 15.585C216.292 15.585 209.816 15.2038 203.661 13.9382C201.503 13.496 199.375 12.8861 197.369 12.0474L198.67 53.8432C202.942 51.2815 209.754 50.6258 214.562 51.9524C219.369 53.279 223.839 55.5968 228.585 57.0759C237.021 59.7139 246.298 59.6071 254.657 56.7709C259.77 55.0479 264.532 52.3489 269.66 50.6716C272.278 49.8177 275.585 49.406 277.422 51.4492C278.708 46.1885 280.009 40.7449 278.999 35.4232C278.31 31.9008 276.641 28.6377 275.554 25.2068Z" fill="#DAFADD"/>
<path d="M241.139 59.5921C236.821 59.5921 232.504 58.9517 228.386 57.6708C226.197 56.9846 224.038 56.1155 221.941 55.2768C219.491 54.2857 216.95 53.264 214.378 52.5474C210.489 51.48 204.901 50.7785 200.354 53.508C200.064 53.6757 199.681 53.5843 199.512 53.2945C199.344 53.0048 199.436 52.6236 199.727 52.4559C202.437 50.8243 207.244 49.3147 214.699 51.3732C217.348 52.1052 219.905 53.142 222.4 54.1484C224.467 54.9871 226.595 55.841 228.753 56.5119C237.066 59.1042 246.191 58.9974 254.458 56.207C256.907 55.3836 259.326 54.3009 261.669 53.264C264.195 52.1357 266.797 50.9768 269.476 50.1076C273.38 48.842 275.707 49.4062 277.085 50.3516C278.218 45.6856 279.351 40.4859 278.417 35.5607C278.004 33.3954 277.177 31.2606 276.381 29.2021C275.906 27.967 275.401 26.6861 275.003 25.39C272.508 17.4761 273.151 8.76926 276.764 1.3128C270.946 1.816 265.236 3.6458 259.709 5.42987C258.944 5.67384 258.193 5.91781 257.428 6.16179C246.114 9.74516 236.255 11.9104 227.314 12.7796C216.062 13.8622 206.187 12.9473 197.124 9.98914C196.803 9.8824 196.634 9.54693 196.726 9.22672C196.833 8.9065 197.17 8.73876 197.492 8.83025C206.402 11.7427 216.108 12.6271 227.192 11.5597C236.056 10.7058 245.823 8.55578 257.045 4.98766C257.795 4.74369 258.561 4.49971 259.311 4.25574C265.251 2.34969 271.405 0.367402 277.744 0.00144087C277.958 -0.0138075 278.172 0.0929339 278.295 0.275915C278.417 0.458895 278.417 0.687621 278.325 0.88585C274.437 8.26607 273.656 17.0491 276.167 24.9935C276.565 26.2592 277.055 27.5095 277.529 28.7446C278.341 30.8489 279.183 33.0294 279.627 35.3167C280.683 40.8519 279.29 46.57 278.05 51.602C277.989 51.8154 277.82 51.9984 277.606 52.0442C277.391 52.1052 277.146 52.0289 277.009 51.8612C275.233 49.8941 271.773 50.6413 269.89 51.2513C267.272 52.1052 264.7 53.2488 262.205 54.3619C259.847 55.4141 257.397 56.4967 254.887 57.3506C250.432 58.8449 245.777 59.5921 241.139 59.5921Z" fill="#00B60F"/>
<path d="M249.865 22.1893C249.743 22.0673 249.544 22.0521 249.406 22.1741L232.076 37.3005L222.538 29.783C222.4 29.6763 222.201 29.6915 222.079 29.8135C221.956 29.9355 221.941 30.1337 222.048 30.271L230.759 41.2345L232.076 42.8966L233.546 41.2345L249.896 22.6468C250.003 22.5248 249.988 22.3113 249.865 22.1893Z" fill="#00B60F"/>
<path d="M20.3458 78.8964C22.1676 81.8698 18.4474 88.2589 24.3109 88.0454C27.5106 87.9234 32.2106 80.1925 34.5223 78.3932C42.8966 71.9126 52.7252 71.6839 59.1092 62.0774C66.0903 51.5865 63.1509 38.9456 66.6721 27.4331C68.1877 22.4621 70.6372 17.7199 74.2962 13.984C76.0568 12.1847 82.4561 9.34851 78.9655 6.75628C73.6226 2.80695 61.421 15.9053 58.9868 19.2752C53.1233 27.4636 51.2708 39.4031 42.0239 44.7705C32.6239 50.2294 21.9839 49.3603 14.6354 58.6923C11.65 62.5044 8.05233 68.9544 9.61389 73.9712C10.2263 75.9077 11.3439 77.3563 13.1657 78.2712C15.0334 79.2166 19.4119 77.3868 20.3458 78.8964Z" fill="#DAFADD"/>
<path d="M74.4804 18.4509C71.6941 22.2325 69.413 29.2925 75.154 31.7322C80.7726 34.111 87.4628 27.6304 90.2185 23.5286C92.9589 19.4726 95.8524 12.1686 89.5602 9.94231C84.0794 8.00577 77.3586 14.5473 74.4804 18.4509Z" fill="#DAFADD"/>
<path d="M96.8023 12.124C98.0577 15.7378 106.202 29.0192 107.917 18.9095C108.392 16.0581 106.248 12.5204 104.273 10.7059C102.651 9.24202 94.7662 6.2686 96.8023 12.124Z" fill="#DAFADD"/>
<path d="M84.8301 43.5959C89.3923 46.9353 91.505 40.3328 87.5552 37.6186C82.1356 33.898 80.2373 40.2565 84.8301 43.5959Z" fill="#F0EDFF"/>
<path d="M107.075 36.3837C104.059 38.6558 104.15 44.0842 108.636 41.3242C111.545 39.5402 110.412 33.883 107.075 36.3837Z" fill="#F0EDFF"/>
<path d="M97.5065 54.6363C100.155 55.2462 104.595 52.0593 100.094 50.6717C97.6749 49.9245 94.1843 53.8739 97.5065 54.6363Z" fill="#F0EDFF"/>
<path d="M113.903 143.549C117.47 139.722 113.336 136.58 109.494 136.504C105.743 136.428 100.706 138.349 96.6491 138.868C88.9026 139.859 72.8277 139.92 69.0309 148.261C63.887 159.59 78.5381 158.081 84.5088 155.565C93.082 151.936 107.442 150.487 113.903 143.549Z" fill="#F0EDFF"/>
<path d="M48.4849 147.027C42.5602 144.846 37.0641 142.3 31.7364 138.975C28.7817 137.13 20.7596 128.683 18.4632 130.391C14.6664 133.212 31.3078 143.413 33.5889 144.633C36.9416 146.417 41.2436 148.948 45.0403 149.756C46.3722 150.046 48.3012 151.662 49.3423 149.924C49.9699 148.872 49.9853 147.576 48.4849 147.027Z" fill="#F0EDFF"/>
<path d="M56.7984 78.9418C47.0616 83.0741 38.1668 86.3525 33.4974 96.4165C31.3847 100.945 21.2958 117.52 31.6756 114.76C39.2691 112.748 46.8166 105.184 51.3176 99.1002C52.5883 97.3771 63.2283 76.2124 56.7984 78.9418Z" fill="#F0EDFF"/>
<path d="M134.936 100.702C144.857 104.819 145.423 100.138 140.984 92.3154C137.202 85.6518 131.614 81.3365 124.465 78.5003C116.198 75.2067 117.315 80.4521 120.454 86.6277C123.577 92.788 128.491 98.0183 134.936 100.702Z" fill="#F0EDFF"/>
<path d="M177.498 154.482C165.985 158.965 163.474 173.878 149.083 164.271C138.765 157.379 135.581 145.668 134.922 133.942C134.57 127.721 137.326 101.936 128.86 98.8709C123.149 96.8124 127.574 102.942 128.217 104.635C128.967 106.632 128.967 109.469 129.288 111.542C130.513 119.426 129.258 123.436 128.477 131.472C127.283 143.93 123.042 152.682 132.656 162.64C139.01 169.227 151.533 181.776 161.821 178.849C167.761 177.156 171.313 171.285 174.375 166.436C174.65 165.994 182.779 152.423 177.498 154.482Z" fill="#F0EDFF"/>
<path d="M28.5067 169.792C27.1136 171.53 17.5452 185.544 25.154 181.671C25.8888 181.305 31.094 173.299 31.1859 172.461C31.2777 171.469 30.7572 166.956 28.5067 169.792Z" fill="#F0EDFF"/>
<path d="M60.9767 171.333C58.9712 167.49 58.2057 173.285 58.3588 174.535C58.5578 176.09 62.1555 185.986 63.1507 186.734C70.3461 192.238 62.2474 173.772 60.9767 171.333Z" fill="#F0EDFF"/>
<path d="M64.3909 168.924C61.4515 165.874 62.1405 171.379 62.661 172.599C63.2887 174.048 69.2593 181.824 70.4841 182.327C78.889 185.743 66.2893 170.891 64.3909 168.924Z" fill="#F0EDFF"/>
<path d="M186.209 93.3381C180.805 94.8172 179.366 113.573 185.535 113.024C192.287 112.429 189.485 92.4384 186.209 93.3381Z" fill="#F0EDFF"/>
<path d="M209.449 101.007C208.362 99.924 207.045 100.763 206.203 101.525C206.969 100.717 210.138 98.2162 209.969 96.7676C209.816 95.4257 208.224 94.2363 206.969 95.2732C208.025 93.9771 207.918 91.9338 205.912 91.7203C203.601 91.4764 198.702 99.4208 197.569 100.793C195.655 103.126 193.007 104.941 195.226 107.38C195.824 108.036 199.819 108.25 200.615 107.396C200.585 112.397 212.45 103.98 209.449 101.007Z" fill="#F0EDFF"/>
<path d="M195.241 90.5769C195.364 94.0535 198.211 91.6595 199.023 90.5769C200.156 89.0521 198.686 81.7633 198.625 80.0403C198.318 71.8519 198.012 63.6635 197.706 55.4599C197.446 48.4456 197.186 41.4161 196.925 34.4019C196.742 29.6901 196.573 24.9631 196.389 20.2514C196.298 17.9336 197.262 11.0109 195.991 9.54701C191.154 3.9661 192.424 15.1584 192.547 18.3301C192.838 25.939 193.113 33.548 193.404 41.1417C194.017 57.6252 194.629 74.0934 195.241 90.5769Z" fill="#F0EDFF"/>
<path d="M197.614 108.219C193.725 108.219 196.328 136.84 198.624 136.383C202.314 135.651 200.492 108.219 197.614 108.219Z" fill="#F0EDFF"/>
<path d="M84.8444 81.5347C81.9662 81.001 84.0024 83.8677 84.431 84.4166C84.4617 84.4623 92.2235 89.3723 92.4072 89.4333C96.2193 90.6684 94.3975 87.6035 93.1574 85.85C91.4734 83.5017 87.5542 82.0378 84.8444 81.5347Z" fill="#F0EDFF"/>
<path d="M121.343 189.906C123.348 187.223 120.333 177.86 120.149 173.789C115.617 171.075 113.443 184.707 112.8 187.863C111.897 192.27 110.29 206.192 119.567 203.706C127.39 201.602 115.265 198.079 121.343 189.906Z" fill="#F0EDFF"/>
<path d="M92.5606 37.298C92.53 37.298 92.484 37.298 92.4534 37.2828C92.2085 37.237 92.0248 37.0235 92.0248 36.7643L91.9941 35.0565C91.9941 34.8583 92.086 34.6905 92.2544 34.5991C92.3156 34.5381 92.3769 34.4923 92.4687 34.4618C92.7443 34.3703 93.0505 34.5076 93.1577 34.782C93.4179 35.4987 93.3873 36.2764 93.0658 36.9778C92.9586 37.176 92.7749 37.298 92.5606 37.298Z" fill="#6308C0"/>
<path d="M104.027 36.0965C103.981 36.0965 103.95 36.0965 103.905 36.0813C103.644 36.0203 103.476 35.7916 103.491 35.5324L103.598 33.916C103.614 33.6263 103.874 33.3976 104.165 33.4128C104.364 33.4281 104.532 33.5501 104.609 33.7026C104.701 33.794 104.747 33.9008 104.762 34.0228C104.823 34.6022 104.731 35.2121 104.517 35.7611C104.44 35.9593 104.241 36.0965 104.027 36.0965Z" fill="#6308C0"/>
<path d="M89.0252 32.465C88.8262 32.465 88.6424 32.3583 88.5506 32.1753C88.4128 31.9161 88.52 31.5959 88.7802 31.4587C90.602 30.5133 92.7913 30.254 94.7815 30.7725C95.0724 30.8487 95.2408 31.1384 95.1642 31.4282C95.0877 31.7179 94.7968 31.8856 94.5059 31.8094C92.776 31.3672 90.8623 31.5806 89.2701 32.4041C89.1936 32.4498 89.1017 32.465 89.0252 32.465Z" fill="#6308C0"/>
<path d="M100.43 43.2762C100.262 43.2762 100.109 43.1999 100.002 43.0627C99.8178 42.8339 99.8638 42.4985 100.109 42.3155C100.721 41.8581 101.272 41.3244 101.747 40.7449C101.808 40.6687 101.946 40.5162 101.961 40.4095C101.976 40.2875 101.869 40.074 101.793 39.952C101.624 39.647 101.456 39.3268 101.288 39.0219C100.736 38.0307 100.17 36.9938 99.8332 35.8807C99.282 34.1119 99.4351 32.3888 100.262 31.1689C100.905 30.193 102.007 29.4611 103.37 29.0952C104.564 28.7749 105.819 28.7444 106.921 28.7292C107.212 28.7139 107.457 28.9579 107.473 29.2476C107.473 29.5374 107.243 29.7813 106.952 29.7966C105.911 29.8118 104.732 29.8423 103.661 30.132C102.543 30.437 101.655 31.0165 101.165 31.7636C100.522 32.7243 100.415 34.1119 100.874 35.5757C101.196 36.5974 101.701 37.5275 102.252 38.5187C102.42 38.8236 102.589 39.1438 102.757 39.4641C102.88 39.708 103.094 40.1197 103.033 40.5772C102.972 40.9736 102.727 41.2786 102.589 41.4311C102.053 42.0868 101.441 42.6662 100.767 43.1847C100.66 43.2457 100.537 43.2762 100.43 43.2762Z" fill="#6308C0"/>
<path d="M98.5918 47.1645C98.4234 47.1645 98.2396 47.1645 98.0712 47.1493C96.724 47.0426 95.4839 46.5089 94.5807 45.6397C94.3664 45.4415 94.3664 45.0908 94.5654 44.8925C94.7644 44.6791 95.1165 44.6791 95.3155 44.8773C96.0351 45.5787 97.0455 46.0057 98.1478 46.0972C99.1582 46.1734 100.245 45.9752 101.302 45.5025C101.577 45.3805 101.883 45.5025 102.006 45.7617C102.128 46.0209 102.006 46.3411 101.745 46.4631C100.72 46.9206 99.6328 47.1645 98.5918 47.1645Z" fill="#6308C0"/>
<path d="M77.5878 45.1069C77.5725 45.1069 77.5419 45.1069 77.5266 45.1069C75.4598 44.8629 73.592 43.6888 72.551 41.9809C71.464 40.2121 71.3569 37.9096 72.2754 36.1103C73.2399 34.2348 75.2761 33.0149 77.3428 33.1064C78.2767 33.1521 79.1187 33.4266 79.777 33.9298C80.0067 34.1128 80.0526 34.4482 79.8842 34.677C79.7005 34.9057 79.3637 34.9514 79.1341 34.7837C78.6442 34.4177 78.0012 34.2043 77.2969 34.1738C75.6741 34.0975 74.0054 35.1039 73.2399 36.5983C72.4898 38.0621 72.5816 39.9529 73.4849 41.4167C74.3422 42.8196 75.965 43.826 77.6797 44.0395C77.9705 44.07 78.1849 44.3444 78.1542 44.6341C78.0777 44.9086 77.848 45.1069 77.5878 45.1069Z" fill="#6308C0"/>
<path d="M78.3686 40.5172C78.1849 40.5172 77.9859 40.4104 77.894 40.2427C77.3888 39.2973 76.5774 38.5349 75.5976 38.0927C75.322 37.9707 75.2149 37.6505 75.3373 37.3913C75.4598 37.1168 75.7813 37.0101 76.0416 37.1321C77.2357 37.681 78.2155 38.6111 78.8432 39.7548C78.981 40.014 78.8891 40.3342 78.6289 40.4714C78.537 40.5019 78.4451 40.5172 78.3686 40.5172Z" fill="#6308C0"/>
<path d="M77.2976 70.8168C77.2823 70.8168 77.2823 70.8168 77.267 70.8168C76.9761 70.8016 76.7465 70.5576 76.7618 70.2526C77.1904 62.049 76.9761 53.7539 76.1494 45.596C76.1188 45.3063 76.3331 45.0471 76.624 45.0166C76.9149 44.9861 77.1751 45.1996 77.2057 45.4893C78.0324 53.7082 78.2468 62.049 77.8181 70.2984C77.8181 70.5881 77.5732 70.8168 77.2976 70.8168Z" fill="#6308C0"/>
<path d="M97.7817 60.0658C96.2354 60.0658 94.5055 59.6998 92.5765 58.9374C88.8104 57.4736 85.7332 55.293 83.6817 52.6246C83.498 52.3958 83.5439 52.0604 83.7736 51.8774C84.0032 51.6944 84.34 51.7402 84.5237 51.9689C86.468 54.4849 89.3768 56.5434 92.9592 57.931C95.8986 59.0746 98.2869 59.2729 100.247 58.5714C102.757 57.6565 104.671 55.2625 106.263 51.054C108.85 44.2075 109.968 36.7205 109.509 29.4165C109.493 29.1268 109.708 28.8676 110.014 28.8523C110.305 28.8371 110.565 29.0506 110.58 29.3555C111.04 36.812 109.891 44.4362 107.258 51.4352C106.187 54.2866 104.319 58.236 100.599 59.5931C99.7413 59.9133 98.7921 60.0658 97.7817 60.0658Z" fill="#6308C0"/>
<path d="M104.915 70.8151C104.64 70.8151 104.395 70.6016 104.38 70.3119C104.104 65.4476 103.936 60.1564 103.936 55.7954C103.936 55.5057 104.18 55.2617 104.471 55.2617C104.762 55.2617 105.007 55.5057 105.007 55.7954C105.007 60.1412 105.176 65.4019 105.451 70.2509C105.466 70.5406 105.237 70.7998 104.946 70.8151C104.931 70.8151 104.915 70.8151 104.915 70.8151Z" fill="#6308C0"/>
<path d="M80.8952 33.8077C80.6656 33.8077 80.4665 33.6705 80.39 33.4418C80.2981 33.1673 80.4512 32.8623 80.7268 32.7709C87.7538 30.4379 93.4489 24.613 95.5922 17.553C95.6841 17.2633 95.975 17.1108 96.2658 17.2023C96.5567 17.2938 96.7098 17.5835 96.618 17.8732C94.3675 25.2534 88.4121 31.3528 81.0789 33.7925C81.0024 33.8077 80.9411 33.8077 80.8952 33.8077Z" fill="#00B60F"/>
<path d="M80.8027 31.0487C80.6343 31.0487 80.4659 30.9725 80.3587 30.82C80.1903 30.576 80.2515 30.2406 80.4965 30.0728C88.9626 24.1717 91.5346 20.1461 92.9277 16.9897C93.0502 16.7153 93.3564 16.5933 93.632 16.7153C93.9075 16.8372 94.03 17.1422 93.9075 17.4167C91.3202 23.2873 85.9925 27.5569 81.1088 30.942C81.017 31.0182 80.9098 31.0487 80.8027 31.0487Z" fill="#00B60F"/>
<path d="M73.3936 47.8668C73.2711 47.8668 73.1486 47.821 73.0568 47.7448C71.4034 46.4182 69.9949 44.7256 68.9845 42.8805C67.4535 40.0901 66.6575 36.644 66.5962 32.6489C66.5044 25.3449 68.9845 18.3306 73.4242 13.4359C78.3385 7.99225 85.5952 5.24754 92.3313 6.26918C92.4844 6.29968 92.6375 6.31493 92.7906 6.34542C93.3111 6.43691 93.8011 6.51316 94.291 6.51316C94.7043 6.51316 95.1177 6.48266 95.5616 6.43691C95.8831 6.40642 96.2046 6.37592 96.5414 6.36067C98.7307 6.26918 101.119 7.07734 103.431 8.70892C109.264 12.7955 112.463 20.2367 111.376 27.2662C111.33 27.5559 111.055 27.7541 110.764 27.7084C110.473 27.6627 110.274 27.3882 110.32 27.0985C111.346 20.4654 108.33 13.4359 102.818 9.57808C100.69 8.08374 98.5317 7.33656 96.5874 7.42805C96.2812 7.4433 95.9903 7.4738 95.6688 7.5043C95.2248 7.55004 94.7502 7.59579 94.2756 7.59579C93.7092 7.58054 93.1581 7.48905 92.6222 7.41281C92.4691 7.38231 92.316 7.36706 92.1629 7.33657C88.9939 6.86387 85.6105 7.26033 82.3955 8.51069C79.2724 9.73056 76.4402 11.6824 74.205 14.1526C69.949 18.8643 67.5607 25.6041 67.6526 32.6336C67.6985 36.4457 68.464 39.7241 69.903 42.3621C70.8522 44.1004 72.1688 45.671 73.6998 46.9061C73.9294 47.0891 73.96 47.4246 73.7763 47.6533C73.6998 47.7905 73.5467 47.8668 73.3936 47.8668Z" fill="#00B60F"/>
<path d="M108.513 27.2981C108.436 27.2981 108.344 27.2829 108.268 27.2371C101.256 23.73 96.1275 16.7462 94.8874 9.03056C94.8415 8.74084 95.0405 8.46637 95.3314 8.42063C95.6223 8.37488 95.8979 8.57311 95.9438 8.86283C97.1379 16.2431 102.037 22.9218 108.758 26.2917C109.018 26.429 109.125 26.7492 109.003 27.0084C108.896 27.1914 108.712 27.2981 108.513 27.2981Z" fill="#00B60F"/>
<path d="M108.544 23.3165C108.437 23.3165 108.345 23.286 108.253 23.225C104.563 20.8462 101.532 17.3391 99.7408 13.3288C99.6184 13.0543 99.7408 12.7494 100.016 12.6274C100.292 12.5054 100.598 12.6274 100.721 12.9018C102.435 16.7139 105.313 20.0686 108.835 22.3253C109.08 22.4778 109.156 22.8133 108.988 23.0573C108.881 23.2402 108.712 23.3165 108.544 23.3165Z" fill="#00B60F"/>
<path d="M70.4394 27.0373C70.3934 27.0373 70.3475 27.0373 70.3016 27.022C70.0107 26.9458 69.8423 26.6561 69.9188 26.3664C70.4547 24.3536 71.1589 22.3865 72.0468 20.511C72.5367 19.4589 73.1338 18.4067 74.1442 17.7968C74.4045 17.6443 74.726 17.7205 74.8791 17.9798C75.0322 18.239 74.9556 18.5592 74.6954 18.7117C73.884 19.1996 73.4094 20.1298 73.0113 20.9532C72.154 22.7678 71.4651 24.689 70.9446 26.6256C70.8833 26.8696 70.669 27.0373 70.4394 27.0373Z" fill="#00B60F"/>
<path d="M70.0246 59.5789C69.9327 59.5789 69.8256 59.5484 69.7337 59.4874C69.4888 59.3349 69.4122 58.9994 69.5653 58.7555C71.4331 55.8583 72.8415 52.7019 73.7601 49.3625C73.8366 49.0727 74.1275 48.905 74.4184 48.9813C74.7093 49.0575 74.8777 49.3472 74.8011 49.6369C73.8519 53.0678 72.3975 56.331 70.4686 59.3197C70.3767 59.4874 70.2083 59.5789 70.0246 59.5789Z" fill="#00B60F"/>
<path d="M73.4229 60.9045C73.3923 60.9045 73.377 60.9045 73.3464 60.9045C73.0555 60.8588 72.8411 60.5996 72.8871 60.3099C73.2392 57.6871 73.7444 55.0644 74.3721 52.5027C74.4486 52.213 74.7395 52.0452 75.0151 52.1062C75.306 52.1825 75.4744 52.4722 75.4131 52.7466C74.7854 55.2779 74.2955 57.8701 73.9434 60.4471C73.9281 60.7063 73.6985 60.9045 73.4229 60.9045Z" fill="#00B60F"/>
<path d="M95.0264 73.9104C94.9958 73.9104 94.9499 73.9104 94.9193 73.8952C94.6284 73.8342 94.4447 73.5444 94.5059 73.2547C94.7662 72.0958 94.8274 70.8912 94.7202 69.7171C94.6896 69.4274 94.904 69.1682 95.2102 69.1377C95.501 69.1072 95.7613 69.3206 95.7919 69.6256C95.9144 70.9217 95.8378 72.2178 95.5623 73.4987C95.501 73.7427 95.2714 73.9104 95.0264 73.9104Z" fill="#6308C0"/>
<path d="M84.0957 52.3066C85.841 55.8138 88.0302 59.3971 91.4595 61.4557C94.8889 63.5142 99.3133 64.2461 103.079 62.8128C103.355 62.706 103.646 62.584 103.83 62.3553C104.044 62.0656 104.059 61.6996 104.074 61.3337C104.09 60.0528 104.12 58.7719 104.136 57.4758C102.054 59.9613 98.1804 60.2815 94.9348 59.5954C91.3064 58.8482 87.969 56.4389 85.3052 53.9687" fill="#6308C0"/>
<path d="M98.9138 64.0917C96.3112 64.0917 93.5862 63.3445 91.1979 61.9112C87.5389 59.7154 85.3191 55.9338 83.6197 52.5334C83.4819 52.2742 83.6044 51.954 83.8647 51.8168C84.1249 51.6795 84.4464 51.8015 84.5842 52.0607C84.8139 52.5182 85.0435 52.9909 85.3038 53.4483C85.4262 53.4483 85.564 53.4941 85.6712 53.5856C88.9627 56.62 92.1164 58.4651 95.0405 59.075C96.449 59.3647 101.241 60.0966 103.721 57.1232C103.874 56.9555 104.104 56.8792 104.318 56.9707C104.532 57.047 104.67 57.2604 104.67 57.4739L104.609 61.3317C104.609 61.6825 104.594 62.2314 104.257 62.6584C103.997 62.9938 103.629 63.1616 103.277 63.2988C101.93 63.8477 100.429 64.0917 98.9138 64.0917ZM86.7888 55.9948C88.0901 57.9619 89.6823 59.7764 91.749 61.0115C95.2549 63.1158 99.5262 63.619 102.894 62.3381C103.109 62.2619 103.308 62.1704 103.415 62.0484C103.522 61.9112 103.537 61.652 103.537 61.347L103.583 58.77C101.532 60.3711 98.3627 60.8895 94.8262 60.1424C92.2542 59.6087 89.5598 58.2211 86.7888 55.9948Z" fill="#6308C0"/>
<path d="M8.74256 189.28C8.71194 189.28 8.68133 189.28 8.65071 189.264C8.35983 189.219 8.1608 188.929 8.22204 188.639C13.7487 158.265 21.5106 127.996 31.2627 98.7043C32.3038 95.5784 33.6051 91.6901 36.1923 88.7776C38.9021 85.7585 42.607 84.0964 46.8018 82.3886C56.0334 78.6375 65.4946 75.0998 74.9252 71.8367C75.2008 71.7452 75.5069 71.8824 75.6141 72.1721C75.706 72.4466 75.5682 72.7516 75.2773 72.8583C65.8773 76.1062 56.4314 79.6439 47.2151 83.3797C43.1275 85.0418 39.5451 86.6429 37.0037 89.4943C34.5542 92.239 33.2989 96.0054 32.2884 99.0398C22.5363 128.301 14.8051 158.508 9.27839 188.838C9.21715 189.112 8.98751 189.28 8.74256 189.28Z" fill="#6308C0"/>
<path d="M47.091 202.592C47.0757 202.592 47.0757 202.592 47.0604 202.592C46.7695 202.577 46.5399 202.333 46.5552 202.028C46.8461 195.868 49.0353 189.982 51.1633 184.294C52.8627 179.735 54.6233 175.023 55.3734 170.205C56.537 162.794 55.3428 155.155 54.1793 147.775C53.6282 144.237 53.0617 140.654 52.7402 137.04L36.3438 195.593C36.2673 195.883 35.9611 196.051 35.6855 195.959C35.3947 195.883 35.2262 195.578 35.3181 195.304L52.5412 133.822C52.4493 131.55 52.48 129.263 52.7249 127.006C52.7861 126.442 52.9239 125.573 53.2761 124.719C53.6129 123.911 54.4243 123.697 55.0519 123.926C55.6796 124.14 56.1848 124.795 55.9552 125.634L53.6282 133.944C53.8272 138.534 54.5467 143.124 55.251 147.622C56.4298 155.094 57.6392 162.809 56.4451 170.388C55.6796 175.313 53.8884 180.071 52.1738 184.691C50.0764 190.302 47.9178 196.097 47.6422 202.105C47.6116 202.379 47.3819 202.592 47.091 202.592ZM54.5467 124.902C54.4396 124.902 54.3171 124.948 54.2559 125.115C54.0262 125.695 53.8425 126.396 53.7813 127.098C53.6741 128.089 53.6129 129.08 53.5822 130.071L54.9142 125.329C54.9907 125.054 54.7917 124.948 54.6998 124.917C54.6539 124.917 54.608 124.902 54.5467 124.902Z" fill="#6308C0"/>
<path d="M121.618 200.06C121.511 200.06 121.404 200.03 121.312 199.969C119.429 198.673 118.556 196.142 119.26 193.961C119.475 193.305 119.796 192.711 120.118 192.146C120.378 191.689 120.607 191.262 120.791 190.805C121.572 188.822 121.113 186.535 120.669 184.324C120.607 184.034 120.561 183.76 120.5 183.485C118.02 170.631 121.71 157.639 125.292 145.059C125.629 143.87 125.966 142.696 126.287 141.522C127.91 135.727 129.839 128.103 130.375 120.54C130.926 112.718 129.931 106.069 127.328 100.229C127.206 99.9547 127.328 99.6497 127.604 99.5278C127.879 99.4058 128.186 99.5278 128.308 99.8022C130.972 105.81 131.998 112.611 131.446 120.616C130.911 128.271 128.966 135.956 127.328 141.812C126.991 142.986 126.655 144.175 126.318 145.364C122.781 157.822 119.107 170.707 121.541 183.302C121.587 183.577 121.648 183.851 121.71 184.141C122.184 186.489 122.674 188.929 121.786 191.216C121.587 191.735 121.312 192.223 121.051 192.68C120.745 193.229 120.454 193.747 120.271 194.312C119.719 196.035 120.424 198.093 121.909 199.115C122.154 199.283 122.215 199.618 122.046 199.862C121.955 199.984 121.786 200.06 121.618 200.06Z" fill="#6308C0"/>
<path d="M157.473 151.221C157.305 151.221 157.137 151.145 157.029 150.992C155.253 148.461 155.636 145.091 158.132 140.943C154.641 127.891 150.247 114.96 145.042 102.487C142.363 96.0521 139.27 89.3886 133.79 84.9056C129.855 81.6881 124.987 79.8736 120.287 78.1048L106.493 72.9356C106.217 72.8288 106.08 72.5239 106.187 72.2494C106.294 71.9749 106.6 71.8377 106.876 71.9444L120.654 77.0984C125.446 78.8977 130.391 80.7427 134.463 84.0669C140.143 88.7024 143.297 95.5032 146.037 102.06C151.135 114.274 155.468 126.93 158.928 139.708C159.111 139.449 159.295 139.19 159.479 138.915C166.077 129.782 173.395 121.044 181.249 112.947C181.448 112.734 181.8 112.734 181.999 112.932C182.213 113.13 182.213 113.481 182.014 113.679C174.207 121.73 166.904 130.422 160.336 139.525C159.953 140.059 159.601 140.577 159.28 141.081C159.387 141.492 159.494 141.919 159.617 142.331C160.29 144.923 160.933 149.498 157.703 151.129C157.626 151.206 157.55 151.221 157.473 151.221ZM158.53 142.407C156.861 145.503 156.57 148.019 157.642 149.955C159.708 148.461 159.142 144.771 158.576 142.621C158.56 142.56 158.545 142.483 158.53 142.407Z" fill="#6308C0"/>
<path d="M159.325 180.421C157.09 180.421 154.733 179.841 152.283 178.667C149.527 177.341 146.634 175.282 143.434 172.354C136.943 166.423 130.926 159.896 125.553 152.943C125.369 152.715 125.415 152.379 125.645 152.196C125.874 152.013 126.211 152.059 126.395 152.288C131.723 159.195 137.693 165.676 144.154 171.562C151.165 177.966 157.09 180.375 162.295 178.942C167.868 177.417 171.19 171.897 174.114 166.377C177.222 160.506 181.233 153.019 185.106 145.776C188.98 138.534 192.991 131.047 196.099 125.191C196.236 124.932 196.558 124.825 196.818 124.962C197.078 125.1 197.186 125.42 197.048 125.679C193.94 131.55 189.929 139.037 186.056 146.28C182.182 153.523 178.171 161.01 175.063 166.865C172.032 172.598 168.572 178.317 162.586 179.963C161.53 180.268 160.443 180.421 159.325 180.421Z" fill="#6308C0"/>
<path d="M128.951 145.411C128.798 145.411 128.645 145.35 128.538 145.228C128.354 144.999 128.369 144.663 128.599 144.48C137.723 136.826 147.368 129.583 157.258 122.965C157.503 122.797 157.84 122.858 158.008 123.117C158.177 123.361 158.1 123.697 157.855 123.865C147.981 130.467 138.366 137.68 129.288 145.304C129.196 145.365 129.074 145.411 128.951 145.411Z" fill="#6308C0"/>
<path d="M129.349 150.962C129.196 150.962 129.058 150.901 128.951 150.779C128.752 150.565 128.767 150.214 128.997 150.031C138.458 141.645 149.022 134.554 160.397 128.989C160.657 128.851 160.978 128.973 161.116 129.233C161.254 129.492 161.131 129.812 160.871 129.949C149.588 135.469 139.101 142.499 129.717 150.824C129.609 150.916 129.472 150.962 129.349 150.962Z" fill="#6308C0"/>
<path d="M183.238 128.53C183.162 128.53 183.07 128.515 182.993 128.469C182.733 128.332 182.626 128.012 182.763 127.753L186.177 121.074C186.315 120.815 186.637 120.708 186.897 120.845C187.157 120.983 187.264 121.303 187.127 121.562L183.713 128.241C183.621 128.424 183.437 128.53 183.238 128.53Z" fill="#6308C0"/>
<path d="M80.0528 147.148C78.2922 147.148 76.5469 146.919 74.8323 146.34C74.5567 146.248 74.4036 145.943 74.4955 145.669C74.5873 145.394 74.8935 145.242 75.1691 145.334C80.6039 147.148 86.4521 145.334 92.1166 143.58C93.0658 143.29 94.0456 142.985 94.9948 142.711C100.43 141.125 106.048 140.149 111.697 139.829C111.988 139.814 112.248 140.042 112.264 140.332C112.279 140.622 112.049 140.881 111.759 140.896C106.186 141.216 100.644 142.177 95.2857 143.732C94.3365 144.007 93.372 144.312 92.4228 144.602C88.3505 145.852 84.171 147.148 80.0528 147.148Z" fill="#6308C0"/>
<path d="M86.0381 152.592C85.8544 152.592 85.686 152.501 85.5788 152.349C85.4257 152.105 85.487 151.769 85.7472 151.617C91.3045 148.079 97.3058 145.273 103.583 143.245C103.858 143.154 104.164 143.306 104.256 143.596C104.348 143.87 104.195 144.175 103.904 144.267C97.7192 146.264 91.7944 149.04 86.3137 152.516C86.2371 152.577 86.1453 152.592 86.0381 152.592Z" fill="#6308C0"/>
<path d="M132.212 107.853C131.921 107.853 131.692 107.624 131.676 107.334C131.63 105.581 132.243 103.781 133.345 102.424C133.529 102.195 133.865 102.15 134.095 102.348C134.325 102.531 134.371 102.866 134.172 103.095C133.222 104.269 132.702 105.809 132.748 107.319C132.763 107.593 132.518 107.837 132.212 107.853C132.227 107.853 132.227 107.853 132.212 107.853Z" fill="#6308C0"/>
<path d="M44.1677 149.117C44.1064 149.117 44.0605 149.102 43.9992 149.087C33.9256 145.793 24.6022 140.807 16.2892 134.235C16.0596 134.052 16.0136 133.716 16.1973 133.488C16.3811 133.259 16.7179 133.213 16.9475 133.396C25.1533 139.892 34.3543 144.832 44.3207 148.08C44.5963 148.172 44.7494 148.477 44.6575 148.751C44.6116 148.98 44.3973 149.117 44.1677 149.117Z" fill="#6308C0"/>
<path d="M44.9188 145.716C44.8423 145.716 44.7504 145.701 44.6739 145.655C34.3706 140.471 24.4501 134.371 15.2032 127.494C14.9736 127.311 14.9123 126.991 15.0961 126.747C15.2798 126.519 15.6013 126.458 15.8462 126.641C25.0472 133.472 34.9064 139.556 45.1484 144.71C45.4087 144.847 45.5159 145.167 45.3781 145.427C45.3015 145.61 45.1178 145.716 44.9188 145.716Z" fill="#6308C0"/>
<path d="M66.3508 185.636C66.1212 185.636 65.9069 185.484 65.8456 185.27C64.4831 180.985 62.4469 176.96 59.8443 173.3C59.6759 173.056 59.7219 172.721 59.9668 172.553C60.2118 172.385 60.5486 172.431 60.717 172.675C63.3961 176.426 65.4629 180.543 66.8713 184.935C66.9632 185.209 66.8101 185.514 66.5192 185.606C66.458 185.636 66.3968 185.636 66.3508 185.636Z" fill="#6308C0"/>
<path d="M71.3884 180.605C71.2659 180.605 71.1282 180.559 71.0363 180.467C67.8213 177.601 64.7748 174.459 62.0191 171.151C61.8354 170.922 61.866 170.586 62.0803 170.403C62.3099 170.22 62.6467 170.251 62.8305 170.464C65.5708 173.728 68.5715 176.823 71.7405 179.659C71.9549 179.857 71.9855 180.193 71.7865 180.406C71.6793 180.544 71.5415 180.605 71.3884 180.605Z" fill="#6308C0"/>
<path d="M24.6796 179.718C24.5724 179.718 24.4653 179.687 24.3734 179.626C24.1285 179.458 24.0672 179.123 24.2356 178.879L28.461 172.734C28.6294 172.49 28.9663 172.429 29.2112 172.597C29.4562 172.764 29.5174 173.1 29.349 173.344L25.1236 179.489C25.0164 179.641 24.848 179.718 24.6796 179.718Z" fill="#6308C0"/>
<path d="M97.1834 85.2544C97.0916 85.2544 96.9997 85.2239 96.9079 85.1782C90.187 81.2441 83.4356 77.1575 76.8372 73.0252C76.5923 72.8727 76.5157 72.5372 76.6688 72.2933C76.8219 72.0493 77.1587 71.9731 77.4037 72.1255C83.8489 76.1511 90.4473 80.1614 97.015 84.004L104.899 72.4305C105.068 72.1865 105.405 72.1255 105.65 72.2933C105.895 72.461 105.956 72.7965 105.787 73.0404L97.6121 85.0409C97.5203 85.1629 97.3518 85.2544 97.1834 85.2544Z" fill="#6308C0"/>
<path d="M94.0772 88.1829C93.9547 88.1829 93.8475 88.1524 93.7404 88.0762C91.2296 86.1244 88.5658 84.3404 85.7948 82.7698C85.5345 82.6173 85.4427 82.2971 85.5958 82.0379C85.7489 81.7786 86.0704 81.6871 86.3306 81.8396C89.1476 83.4407 91.8573 85.2553 94.3987 87.2375C94.6283 87.4205 94.6743 87.756 94.4905 87.9847C94.3987 88.1067 94.2456 88.1829 94.0772 88.1829Z" fill="#6308C0"/>
<path d="M184.188 114.35C184.02 114.35 183.836 114.258 183.744 114.106C180.882 109.76 180.728 103.463 183.316 97.2718C183.867 95.9604 184.51 94.6795 185.138 93.4292C186.225 91.2639 187.342 89.0224 187.939 86.6742C188.383 84.8901 188.536 83.045 188.368 81.2C188.353 81.0627 188.337 80.9255 188.322 80.8035C188.23 79.9191 188.138 79.0042 188.444 78.1198C188.827 76.9609 190.083 75.9698 191.323 76.3662C192.165 76.6255 192.639 77.4031 193.007 78.1045C195.303 82.7248 195.778 88.199 194.323 93.1394C194.247 93.4292 193.941 93.5817 193.665 93.5054C193.374 93.4292 193.221 93.1242 193.298 92.8497C194.675 88.1685 194.216 82.9688 192.042 78.5925C191.782 78.0893 191.46 77.5404 191.001 77.3879C190.389 77.1897 189.684 77.7996 189.47 78.4705C189.241 79.1567 189.317 79.9191 189.394 80.7273C189.409 80.8645 189.424 81.0017 189.44 81.139C189.608 83.0908 189.455 85.0578 188.98 86.9639C188.368 89.4341 187.22 91.7214 186.102 93.9324C185.49 95.1675 184.847 96.4331 184.311 97.6987C181.861 103.585 181.984 109.501 184.632 113.542C184.801 113.786 184.724 114.121 184.479 114.274C184.387 114.319 184.296 114.35 184.188 114.35Z" fill="#6308C0"/>
<path d="M193.434 104.239C193.22 104.239 192.975 104.193 192.761 104.071C192.393 103.857 192.148 103.476 192.026 102.958C191.72 101.646 192.286 100.32 192.807 99.3286C193.572 97.8342 194.506 96.4314 195.593 95.1353C195.777 94.9065 196.113 94.876 196.343 95.059C196.573 95.242 196.603 95.5774 196.42 95.8062C195.394 97.0413 194.506 98.3832 193.771 99.8013C193.312 100.701 192.868 101.738 193.082 102.714C193.128 102.927 193.22 103.095 193.312 103.141C193.388 103.186 193.587 103.217 194.062 102.973C196.006 101.982 197.507 100.32 198.9 98.7186C200.017 97.4073 201.135 96.0349 202.176 94.6625C203.447 93.0005 204.748 91.2012 205.36 89.1274C205.468 88.7767 205.559 88.3345 205.406 88.0448C205.115 87.4806 204.074 87.6635 203.477 87.9228C201.012 88.9749 199.129 91.1707 197.476 93.092C197.277 93.3207 196.94 93.3512 196.726 93.153C196.496 92.9547 196.481 92.6193 196.665 92.4058C198.395 90.3778 200.354 88.0905 203.049 86.9469C204.212 86.4437 205.743 86.4284 206.34 87.5568C206.677 88.182 206.524 88.8987 206.371 89.4324C205.697 91.6739 204.289 93.6409 203.003 95.303C201.946 96.6906 200.829 98.0629 199.681 99.4048C198.287 101.021 196.634 102.836 194.521 103.918C194.353 104.01 193.909 104.239 193.434 104.239Z" fill="#6308C0"/>
<path d="M194.062 108.708C193.48 108.708 192.929 108.464 192.623 108.006C192.332 107.579 192.316 107.091 192.316 106.756C192.347 105.582 192.837 104.423 193.664 103.584C193.863 103.371 194.215 103.371 194.414 103.569C194.628 103.767 194.628 104.118 194.429 104.316C193.786 104.972 193.403 105.871 193.388 106.771C193.388 107.061 193.419 107.259 193.511 107.381C193.679 107.61 194.062 107.655 194.353 107.564C194.766 107.442 195.133 107.122 195.501 106.817C199.512 103.432 203.645 99.9397 206.401 95.3957C206.906 94.557 207.442 93.5506 207.442 92.529C207.442 91.6751 206.937 90.684 206.08 90.4857C205.789 90.4247 205.605 90.135 205.666 89.8453C205.727 89.5556 206.018 89.3726 206.309 89.4336C207.748 89.7538 208.514 91.2634 208.514 92.5138C208.514 93.7946 207.917 94.9535 207.32 95.9294C204.472 100.611 200.262 104.179 196.19 107.61C195.792 107.945 195.286 108.372 194.659 108.555C194.46 108.677 194.261 108.708 194.062 108.708Z" fill="#6308C0"/>
<path d="M198.563 108.554C197.66 108.554 196.68 108.036 196.466 107.091C196.404 106.801 196.573 106.511 196.864 106.45C197.155 106.374 197.445 106.557 197.507 106.847C197.614 107.289 198.196 107.533 198.67 107.487C199.267 107.426 199.834 107.075 200.415 106.664C204.044 104.148 206.876 101.296 208.82 98.2161C209.264 97.4994 209.662 96.737 209.571 96.0051C209.525 95.6543 209.264 95.3036 208.943 95.1206C208.805 95.0444 208.575 94.9682 208.361 95.0749C208.085 95.1969 207.779 95.0749 207.657 94.8157C207.534 94.5412 207.657 94.2362 207.917 94.1143C208.407 93.8855 208.943 93.916 209.463 94.2057C210.076 94.5412 210.535 95.1969 210.642 95.8678C210.795 96.9505 210.275 97.9569 209.739 98.7955C207.718 101.998 204.794 104.956 201.043 107.548C200.37 108.006 199.65 108.463 198.793 108.554C198.701 108.554 198.64 108.554 198.563 108.554Z" fill="#6308C0"/>
<path d="M202.024 109.532C201.947 109.532 201.855 109.532 201.779 109.517C200.983 109.44 200.095 108.876 200.018 107.961C199.988 107.672 200.217 107.412 200.508 107.382C200.799 107.367 201.059 107.58 201.09 107.87C201.105 108.129 201.473 108.403 201.886 108.434C202.376 108.48 202.897 108.281 203.386 108.068C205.361 107.199 207.168 105.948 208.638 104.454C209.878 103.189 210.536 102.014 210.658 100.886C210.704 100.444 210.658 100.078 210.505 99.8034C210.352 99.5137 210.061 99.3154 209.786 99.3154C209.495 99.3002 209.25 99.0562 209.265 98.7665C209.281 98.4768 209.51 98.248 209.816 98.248C210.475 98.2633 211.118 98.675 211.454 99.3002C211.715 99.7729 211.807 100.337 211.73 100.993C211.592 102.38 210.827 103.753 209.403 105.201C207.841 106.802 205.897 108.129 203.815 109.044C203.264 109.318 202.667 109.532 202.024 109.532Z" fill="#6308C0"/>
<path d="M192.027 112.717C191.935 112.717 191.843 112.702 191.766 112.656C191.506 112.519 191.414 112.183 191.552 111.924C192.134 110.872 192.639 109.774 193.052 108.661C193.16 108.386 193.466 108.249 193.741 108.341C194.017 108.447 194.155 108.752 194.063 109.027C193.619 110.201 193.098 111.345 192.486 112.427C192.394 112.626 192.21 112.717 192.027 112.717Z" fill="#6308C0"/>
<path d="M202.849 116.24C202.727 116.24 202.604 116.194 202.512 116.118C202.283 115.935 202.252 115.599 202.436 115.371C204.64 112.672 206.523 109.714 208.024 106.572C208.146 106.313 208.468 106.191 208.743 106.313C209.003 106.435 209.126 106.755 209.003 107.03C207.473 110.247 205.544 113.282 203.278 116.042C203.155 116.179 203.002 116.24 202.849 116.24Z" fill="#6308C0"/>
<path d="M146.71 51.9696C146.572 51.9696 146.434 51.9086 146.327 51.8019C146.128 51.5884 146.128 51.2529 146.342 51.0547C155.589 42.2411 166.796 35.1354 178.737 30.5304C179.013 30.4236 179.319 30.5609 179.426 30.8353C179.533 31.1098 179.395 31.4148 179.12 31.5215C167.316 36.0808 156.232 43.1103 147.077 51.8171C146.97 51.9239 146.848 51.9696 146.71 51.9696Z" fill="#6308C0"/>
<path d="M149.129 58.1448C149.007 58.1448 148.884 58.099 148.777 58.0228C148.548 57.8398 148.517 57.4891 148.716 57.2756C154.227 50.7341 160.749 45.1837 168.082 40.7616C168.343 40.6091 168.664 40.6854 168.817 40.9446C168.97 41.2038 168.894 41.524 168.634 41.6765C161.407 46.0376 154.978 51.527 149.527 57.977C149.435 58.0838 149.282 58.1448 149.129 58.1448Z" fill="#6308C0"/>
<path d="M196.986 136.658C196.695 136.658 196.466 136.429 196.45 136.139L195.333 107.274C195.317 106.985 195.547 106.725 195.853 106.725C196.159 106.71 196.404 106.939 196.404 107.244L197.522 136.109C197.537 136.399 197.308 136.658 197.001 136.658C197.001 136.658 196.986 136.658 196.986 136.658Z" fill="#6308C0"/>
<path d="M195.395 96.0212C195.104 96.0212 194.874 95.7925 194.859 95.5028L191.475 8.78527C191.46 8.49555 191.69 8.23633 191.996 8.23633C192.302 8.23633 192.547 8.4498 192.547 8.75477L195.93 95.4723C195.946 95.762 195.716 96.0212 195.41 96.0212C195.41 96.0212 195.41 96.0212 195.395 96.0212Z" fill="#6308C0"/>
<path d="M201.854 136.658C201.563 136.658 201.333 136.429 201.318 136.14L200.216 107.763C200.2 107.473 200.43 107.214 200.736 107.214C201.042 107.198 201.287 107.427 201.287 107.732L202.39 136.109C202.405 136.399 202.175 136.658 201.869 136.658H201.854Z" fill="#6308C0"/>
<path d="M200.032 90.1049C199.741 90.1049 199.512 89.8762 199.496 89.5864L196.343 8.78527C196.327 8.49555 196.557 8.23633 196.863 8.23633C197.169 8.23633 197.414 8.4498 197.414 8.75477L200.568 89.5559C200.583 89.8456 200.354 90.1049 200.047 90.1049C200.047 90.1049 200.047 90.1049 200.032 90.1049Z" fill="#6308C0"/>
<path d="M196.895 9.30277C196.757 9.30277 196.619 9.25703 196.512 9.15029C195.379 8.02191 193.542 8.02191 192.409 9.15029C192.195 9.36376 191.858 9.36376 191.659 9.15029C191.444 8.93681 191.444 8.60134 191.659 8.40311C193.205 6.86303 195.731 6.86303 197.277 8.40311C197.492 8.61659 197.492 8.95206 197.277 9.15029C197.17 9.25703 197.032 9.30277 196.895 9.30277Z" fill="#6308C0"/>
<path d="M199.419 137.649C198.409 137.649 197.399 137.267 196.618 136.505C196.403 136.307 196.403 135.956 196.602 135.758C196.802 135.544 197.154 135.544 197.353 135.743C198.501 136.856 200.323 136.856 201.471 135.743C201.685 135.544 202.022 135.544 202.221 135.758C202.42 135.971 202.42 136.307 202.206 136.505C201.44 137.267 200.43 137.649 199.419 137.649Z" fill="#6308C0"/>
<path d="M36.1921 96.9976C36.1308 96.9976 36.0849 96.9824 36.0237 96.9671C35.7481 96.8756 35.595 96.5707 35.6869 96.2962C36.7585 93.094 38.8253 90.1968 41.5044 88.1383C41.7341 87.9553 42.0709 88.0011 42.2546 88.2298C42.4383 88.4585 42.3924 88.794 42.1627 88.977C39.652 90.9135 37.7077 93.6277 36.6973 96.6316C36.6207 96.8604 36.4064 96.9976 36.1921 96.9976Z" fill="#6308C0"/>
<path d="M5.55805 61.1327C5.52743 61.1327 5.4968 61.1327 5.46618 61.1327C5.1753 61.0869 4.97629 60.8124 5.02222 60.5227C5.46619 57.9153 6.81342 55.4145 8.92612 53.2797C10.8092 51.3737 13.2434 49.7879 15.9685 48.69C19.8417 47.1347 24.0212 46.4942 28.0629 45.869C29.3642 45.6708 30.7114 45.4573 32.0127 45.2286C36.6362 44.4052 42.4384 42.9566 46.4648 38.9615C49.6951 35.7594 51.3638 31.3221 52.9713 27.022C53.3847 25.9242 53.8133 24.7805 54.2573 23.6674C56.9518 17.0343 60.3198 12.2921 64.5605 9.16619C69.8729 5.24735 76.655 4.25621 81.8449 6.63496C82.1204 6.75694 82.2276 7.07716 82.1051 7.33638C81.9827 7.61085 81.6612 7.71759 81.4009 7.59561C76.5631 5.36934 70.2097 6.31474 65.2035 10.0201C61.1312 13.024 57.8856 17.6138 55.2524 24.0639C54.8084 25.1617 54.3798 26.2901 53.9664 27.388C52.313 31.7948 50.5984 36.3388 47.215 39.7087C42.9896 43.902 36.9577 45.4116 32.1964 46.2655C30.8798 46.4942 29.5326 46.7077 28.216 46.9059C24.2355 47.5159 20.1173 48.141 16.3665 49.6506C12.0033 51.4042 7.01243 55.2163 6.07856 60.6752C6.04794 60.9497 5.81831 61.1327 5.55805 61.1327Z" fill="#00B60F"/>
<path d="M20.6679 93.8398C20.4229 93.8398 20.1933 93.672 20.1473 93.4128C19.4431 90.1192 19.8565 86.612 21.2343 83.5471C18.5705 85.3769 16.3659 87.8777 14.9115 90.7596C14.835 90.9121 14.6972 91.0188 14.5288 91.0493C14.3604 91.0798 14.192 91.0341 14.0695 90.9273C11.3138 88.4723 9.82879 84.767 9.99719 81.1226L9.15517 82.5102C9.04801 82.6932 8.81836 82.7999 8.60403 82.7542C8.3897 82.7085 8.20599 82.5407 8.17537 82.3272C6.24638 72.492 10.1962 61.6352 18.0193 55.3376C18.249 55.1546 18.5858 55.1851 18.7695 55.4139C18.9532 55.6426 18.9226 55.978 18.6929 56.161C11.5434 61.9249 7.7467 71.6381 8.98677 80.7109L10.5177 78.1797C10.6555 77.951 10.9464 77.8595 11.1913 77.9662C11.4363 78.0729 11.5588 78.3474 11.4975 78.6066C10.3646 82.4492 11.4822 86.795 14.2838 89.6465C16.1363 86.2766 18.9838 83.4404 22.3672 81.6106C22.5815 81.4886 22.8418 81.5343 23.0102 81.7173C23.1786 81.9003 23.2092 82.1595 23.0714 82.3577C21.0965 85.5599 20.4076 89.5245 21.1884 93.1993C21.2496 93.4891 21.0659 93.7635 20.775 93.8245C20.7444 93.8398 20.6985 93.8398 20.6679 93.8398Z" fill="#00B60F"/>
<path d="M23.2393 94.3584C23.1628 94.3584 23.0862 94.3431 23.0097 94.3126C22.7341 94.1906 22.627 93.8704 22.7494 93.6112C24.3875 90.0736 26.7758 86.8104 29.6387 84.1572C29.853 83.959 30.1898 83.9742 30.3888 84.1877C30.5879 84.4012 30.5726 84.7366 30.3582 84.9349C27.5872 87.4813 25.2908 90.6378 23.7139 94.0534C23.6374 94.2364 23.4384 94.3584 23.2393 94.3584Z" fill="#00B60F"/>
<path d="M31.7211 83.6543C31.568 83.6543 31.4149 83.5933 31.3078 83.4713C31.1087 83.2425 31.1393 82.9071 31.369 82.7241C34.6911 79.9032 38.8247 78.2868 42.8051 76.7162C44.3361 76.1216 45.8976 75.4964 47.4133 74.8254C52.4654 72.5534 56.997 69.336 60.4875 65.5392C64.3455 61.3611 66.7797 56.7256 67.7289 51.7699C67.7901 51.4802 68.0657 51.2972 68.3565 51.3429C68.6474 51.4039 68.8311 51.6784 68.7852 51.9681C67.8054 57.0458 65.2028 61.9863 61.2836 66.2559C57.6859 70.1594 53.0471 73.4531 47.8572 75.7861C46.3263 76.4723 44.7494 77.0975 43.2032 77.6921C39.2993 79.2322 35.2576 80.818 32.0732 83.517C31.9661 83.6085 31.8436 83.6543 31.7211 83.6543Z" fill="#00B60F"/>
<path d="M25.8877 54.4096C25.7193 54.4096 25.5356 54.3181 25.4437 54.1656C25.2753 53.9216 25.3519 53.5861 25.5968 53.4337C27.7248 52.0308 30.2509 51.5429 32.7004 51.0549C32.9913 50.9939 33.2669 50.9482 33.5577 50.8872C37.6147 50.0638 42.774 48.6762 46.6014 45.2148C50.5053 41.6772 52.3271 36.7672 54.2408 31.5675C55.3277 28.6398 56.4453 25.6206 57.9609 22.8759C61.1147 17.2035 66.1209 12.6442 72.0609 10.0063C72.3365 9.88428 72.6427 10.0063 72.7651 10.2807C72.8876 10.5552 72.7652 10.8602 72.4896 10.9822C66.7639 13.5287 61.9261 17.9354 58.8948 23.3943C57.4098 26.0628 56.3075 29.0515 55.2359 31.9334C53.3528 37.0264 51.4085 42.2871 47.3056 46.0077C43.2945 49.6521 37.9515 51.0854 33.7568 51.9393C33.4659 52.0003 33.1903 52.0461 32.8994 52.1071C30.5571 52.5645 28.1382 53.0372 26.1786 54.3333C26.1021 54.3791 25.9949 54.4096 25.8877 54.4096Z" fill="#00B60F"/>
<path d="M25.7662 66.1803C25.6743 66.1803 25.5978 66.1651 25.5212 66.1193C25.2609 65.9821 25.1538 65.6619 25.3069 65.4026C28.629 59.1965 34.4007 54.3933 41.1215 52.2433C41.3971 52.1518 41.7033 52.3043 41.7951 52.594C41.887 52.8685 41.7339 53.1734 41.443 53.2649C34.9824 55.3387 29.4404 59.9437 26.2408 65.9211C26.1489 66.0736 25.9652 66.1803 25.7662 66.1803Z" fill="#00B60F"/>
<path d="M51.6548 62.2142C51.4711 62.2142 51.3027 62.1227 51.1955 61.955C51.0424 61.6957 51.119 61.3755 51.3792 61.223C57.6867 57.4415 62.5857 51.2658 64.8515 44.2821C64.9434 44.0076 65.2496 43.8399 65.5251 43.9314C65.8007 44.0229 65.9691 44.3278 65.8773 44.6023C63.5502 51.83 58.4675 58.2191 51.9457 62.1227C51.8538 62.1837 51.7467 62.2142 51.6548 62.2142Z" fill="#00B60F"/>
<path d="M47.6585 63.9842C47.4594 63.9842 47.2604 63.8623 47.1686 63.664C47.0461 63.3896 47.1686 63.0846 47.4441 62.9626L48.5923 62.4594C48.8679 62.3374 49.1741 62.4594 49.2966 62.7339C49.4191 63.0083 49.2966 63.3133 49.021 63.4353L47.8728 63.9385C47.8116 63.969 47.735 63.9842 47.6585 63.9842Z" fill="#6308C0"/>
<path d="M43.5557 16.1807C43.2801 16.1807 43.0505 15.9672 43.0199 15.6927L42.9892 15.4183C42.9586 15.1286 43.173 14.8693 43.4638 14.8388C43.7547 14.8083 44.015 15.0218 44.0456 15.3115L44.0762 15.586C44.1068 15.8757 43.8925 16.135 43.6016 16.1654C43.5863 16.1807 43.571 16.1807 43.5557 16.1807Z" fill="#6308C0"/>
<path d="M129.441 70.189C129.41 70.189 129.379 70.189 129.364 70.189C129.165 70.1738 128.997 70.067 128.905 69.8993C128.736 69.5791 128.798 69.1826 129.058 68.9082C129.318 68.6184 129.701 68.5117 130.038 68.6337C130.283 68.7252 130.42 68.9691 130.39 69.2131C130.436 69.3504 130.436 69.4876 130.405 69.6248C130.329 69.7926 130.114 70.189 129.441 70.189Z" fill="#6308C0"/>
<path d="M0.796082 142.514C0.520513 142.514 0.260253 142.392 0.107158 142.179C0.0306114 142.072 0 141.95 0 141.828C0.0153094 141.721 0.0306132 141.615 0.0612321 141.508C0.0459226 141.279 0.137785 141.066 0.306188 140.944C0.367426 140.898 0.443973 140.852 0.53583 140.837C0.627686 140.761 0.750158 140.7 0.857324 140.639C1.13289 140.517 1.43908 140.654 1.56155 140.913C1.62279 141.05 1.6228 141.188 1.57687 141.31C1.68403 141.508 1.69934 141.737 1.62279 141.95C1.51563 142.24 1.25537 142.453 0.933871 142.499C0.887943 142.499 0.842011 142.514 0.796082 142.514Z" fill="#6308C0"/>
<path d="M127.482 174.977C127.451 174.977 127.42 174.977 127.39 174.977C127.022 174.916 126.731 174.641 126.624 174.26C126.517 173.879 126.64 173.498 126.93 173.254C127.16 173.071 127.497 173.101 127.681 173.33C127.742 173.391 127.772 173.467 127.788 173.559C128.048 173.742 128.186 174.092 128.125 174.397C128.079 174.687 127.864 174.9 127.589 174.961C127.573 174.977 127.528 174.977 127.482 174.977Z" fill="#6308C0"/>
<path d="M215.204 117.903C215.066 117.903 214.913 117.858 214.791 117.781C214.576 117.675 214.439 117.476 214.408 117.232C214.362 116.912 214.53 116.561 214.806 116.394C215.051 116.241 215.342 116.241 215.571 116.409C215.648 116.47 215.709 116.531 215.755 116.622C215.847 116.714 215.924 116.836 215.954 116.973C216.031 117.293 215.893 117.629 215.587 117.812C215.48 117.873 215.342 117.903 215.204 117.903Z" fill="#6308C0"/>
</svg>
