<svg width="280" height="204" viewBox="0 0 280 204" fill="none" xmlns="http://www.w3.org/2000/svg">
<mask id="mask0" mask-type="alpha" maskUnits="userSpaceOnUse" x="0" y="0" width="280" height="204">
<rect width="280" height="204" fill="#C4C4C4"/>
</mask>
<g mask="url(#mask0)">
<path d="M136.717 29.5781C135.164 30.0661 134.188 31.397 132.924 32.3507C130.706 34.0365 128.2 33.726 125.693 34.5023C123.054 35.3008 120.636 36.8979 118.906 39.0494C116.355 42.1991 114.847 47.3895 116.488 51.2711C113.782 53.2896 112.118 56.6167 112.473 60.0104C112.739 62.5391 114.026 64.9346 115.978 66.576C118.64 68.7941 121.59 68.1509 121.9 64.4245C122.078 62.4282 123.342 62.7387 124.229 61.0751C125.116 59.4116 124.34 57.5927 124.85 55.907C125.405 54.1325 127.113 53.0678 128.133 51.6038C129.53 49.6076 129.153 47.4782 129.996 45.3932C130.972 45.9255 132.747 47.456 135.963 46.0808C137.693 45.3488 138.846 43.5965 139.689 41.9329C140.288 40.7573 140.066 40.6908 141.397 40.6686C143.194 40.6464 144.702 39.9588 145.612 38.384C146.943 36.1437 146.299 33.1714 144.591 31.3082C142.662 29.1345 139.401 28.7352 136.717 29.5781Z" fill="#FFF8DC"/>
<path d="M109.856 102.642C113.227 104.372 117.109 103.818 120.547 102.576C123.786 101.4 126.78 99.5814 129.287 97.2302C131.172 95.4779 136.229 90.5094 132.303 88.38C130.64 87.4928 128.222 87.8255 126.492 88.2913C124.54 88.8014 122.677 89.7552 120.924 90.7534C117.22 92.8606 108.015 101.689 109.856 102.642Z" fill="#F0EDFF"/>
<path d="M146.011 110.849C148.54 109.119 150.225 106.391 151.955 103.951C153.774 101.4 155.771 98.9599 157.922 96.6974C159.941 94.5459 162.203 92.6383 164.177 90.4646C166.173 88.2465 168.569 85.0746 168.391 81.9249C168.303 80.3278 167.371 78.8195 165.73 78.4425C164.088 78.0654 162.358 78.9083 161.915 80.5718C161.892 80.594 161.87 80.6162 161.848 80.6606C160.273 83.1892 158.388 85.496 156.236 87.5588C153.952 89.7548 151.334 91.4627 148.761 93.2594C146.211 95.0338 143.748 96.9414 141.841 99.4479C140.066 101.755 138.492 104.882 139.002 107.877C139.578 111.226 143.15 112.801 146.011 110.849Z" fill="#F0EDFF"/>
<path d="M138.447 65.6658C138.913 63.5808 135.807 62.8045 134.144 62.8266C132.569 62.8488 129.885 64.0466 131.482 65.932C133.323 68.0835 138.114 67.1963 138.447 65.6658Z" fill="#F0EDFF"/>
<path d="M147.031 60.9428C147.763 61.6526 149.271 61.4529 150.048 59.5232C150.314 58.8578 149.915 57.7265 149.471 57.0611C147.763 54.355 144.525 58.5694 147.031 60.9428ZM150.003 59.0352V59.013C150.003 59.013 150.003 59.013 150.003 59.0352Z" fill="#F0EDFF"/>
<path d="M145.301 73.4956C146.433 73.7396 147.808 73.1407 148.496 72.3422C149.338 71.3884 149.006 69.8579 147.542 69.5474C146.033 69.2368 143.66 70.4346 143.838 71.9651C143.926 72.6971 144.481 73.2738 145.279 73.4734C145.279 73.4956 145.279 73.4956 145.301 73.4956Z" fill="#F0EDFF"/>
<path d="M179.792 102.399C177.951 106.147 175.976 111.715 180.169 113.356C180.79 113.6 181.677 113.312 182.121 112.846C186.246 108.432 190.039 103.729 193.411 98.7165C196.516 94.1028 199.998 88.8681 201.352 83.4116C202.527 78.7314 200.708 76.6242 197.936 72.92C195.008 69.0383 187.688 59.8776 187.267 59.8776C187.244 59.8554 187.244 59.8332 187.222 59.811C186.047 57.5264 182.609 59.5449 183.784 61.8295C187.267 68.6612 191.17 76.4246 189.174 84.2988C187.71 90.0881 180.257 101.445 179.792 102.399Z" fill="#F0EDFF"/>
<path d="M133.012 161.777C132.59 160.646 132.124 159.515 131.681 158.406C130.505 155.5 129.507 152.372 127.622 149.822C126.246 147.958 123.452 147.559 122.232 149.799C121.877 150.465 121.389 151.064 121.078 151.751C120.147 153.792 121.411 156.276 121.988 158.25C122.587 160.224 123.141 162.176 123.895 164.106C124.738 166.235 125.736 168.365 127.222 170.139C128.553 171.736 130.949 173.932 133.233 173.311C135.673 172.646 135.429 169.984 135.008 168.054C134.498 165.903 133.788 163.818 133.012 161.777Z" fill="#F0EDFF"/>
<path d="M176.998 142.723C179.194 141.038 180.148 137.888 181.035 135.381C182.166 132.232 183.186 129.015 184.229 125.821C185.049 123.359 186.092 120.631 184.428 118.302C182.898 116.15 180.325 116.616 178.306 117.947C173.892 120.897 172.517 127.906 171.275 132.653C170.632 135.071 169.368 138.487 170.188 140.993C171.142 143.921 174.713 144.498 176.998 142.723Z" fill="#F0EDFF"/>
<path d="M162.137 171.582C160.739 173.201 160.14 175.574 162.026 177.082C163.889 178.546 167.416 178.391 169.656 178.524C173.937 178.79 179.748 178.458 182.831 174.975C186.403 170.938 182.21 165.393 177.53 165.992C172.628 166.591 165.552 167.611 162.137 171.582Z" fill="#F0EDFF"/>
<path d="M99.7406 163.13C102.469 165.592 105.641 167.877 109.323 168.565C111.097 168.897 112.916 168.92 114.691 168.52C116.332 168.143 118.794 167.234 118.794 165.171C118.794 163.263 116.82 162.066 115.378 161.156C113.981 160.291 112.428 159.604 110.853 159.138C107.548 158.162 103.977 158.184 100.672 159.138C99.0752 159.581 98.5206 162.021 99.7406 163.13Z" fill="#F0EDFF"/>
<path d="M68.3104 116.284C68.8427 117.992 70.7946 122.229 73.1458 120.077C73.9443 119.345 73.9665 118.081 74.1218 117.06C74.2771 116.018 74.3436 114.953 74.2549 113.911C74.0774 112.07 73.1236 109.63 71.1717 108.987C67.5562 107.833 67.7337 114.399 68.3104 116.284Z" fill="#F0EDFF"/>
<path d="M63.8088 129.105C64.7848 129.726 66.9142 130.79 69.5537 133.43C70.818 134.694 73.9456 135.315 75.6757 134.295C77.2949 133.341 77.0952 131.478 76.3189 130.036C74.9437 127.463 72.3707 125.667 69.5759 124.957C68.0232 124.58 66.1822 124.424 64.6295 124.846C62.1896 125.489 61.8126 127.84 63.8088 129.105Z" fill="#F0EDFF"/>
<path d="M220.65 61.5192C222.868 60.765 223.911 57.6597 224.421 55.6191C225.064 53.0461 225.042 50.3178 224.332 47.767C223.933 46.2809 223.29 44.8613 222.447 43.597C221.759 42.5545 220.584 40.5803 219.12 40.7134C217.833 40.8243 216.924 42.2883 216.392 43.3086C215.238 45.4602 214.595 47.9001 214.462 50.34C214.307 53.5119 215.038 56.7281 216.658 59.4564C217.523 60.9203 218.831 62.1624 220.65 61.5192Z" fill="#F0EDFF"/>
<path d="M165.93 16.7133C166.973 17.6227 168.237 18.3103 169.457 18.8871C171.52 19.8852 174.758 21.8149 176.999 20.4841C183.808 16.3584 171.453 6.06644 166.285 8.3289C164.111 9.28268 163.091 11.656 163.89 13.8963C164.289 15.0054 165.043 15.937 165.93 16.7133Z" fill="#F0EDFF"/>
<path d="M179.948 197.045C179.615 192.453 170.898 190.435 167.416 189.481C162.004 187.973 156.37 187.374 150.78 186.997C144.636 186.597 138.492 186.553 132.348 186.065C129.265 185.821 126.181 185.488 123.143 184.934C120.059 184.379 119.815 184.446 118.085 186.553C117.22 187.618 115.823 189.015 117.93 190.124C119.549 190.967 122.499 189.215 124.451 189.414C129.752 189.925 134.3 193.34 139.667 193.828C142.396 194.095 145.124 193.784 147.852 193.762C150.869 193.74 153.641 194.339 156.547 195.115C162.159 196.645 167.726 198.331 173.316 199.906C169.612 202.257 165.974 204.719 162.403 207.27C161.338 208.046 152.843 213.348 157.856 214.656C159.475 215.078 161.427 212.904 162.647 212.017C164.377 210.752 166.129 209.51 167.882 208.29C169.789 206.982 177.863 203.344 176.355 200.483C178.284 200.571 180.103 199.085 179.948 197.045Z" fill="#F0EDFF"/>
<path d="M130.816 213.392C131.548 215.854 135.407 214.789 134.675 212.327C133.322 207.825 130.838 203.743 127.444 200.483C125.581 198.708 122.764 201.525 124.627 203.3C127.511 206.094 129.64 209.532 130.816 213.392Z" fill="#F0EDFF"/>
<path d="M37.5011 98.3623C41.0944 102.954 44.7099 107.523 48.3476 112.07C50.0333 114.177 51.5638 117.261 53.8706 118.769C58.6174 121.919 65.4047 114.554 62.2329 109.874C60.8576 107.834 59.1275 106.037 57.9519 103.885C56.6876 101.579 56.5989 98.8503 55.2459 96.61C53.6488 93.9705 49.1461 86.8947 45.3531 88.2256C42.5805 89.2237 34.6397 94.7024 37.5011 98.3623Z" fill="#F0EDFF"/>
<path d="M127.711 72.078C126.181 72.078 124.761 71.6122 123.696 70.7472C122.232 69.5716 121.545 67.664 121.966 65.9782C122.432 64.1372 124.317 62.8064 126.092 63.0504C126.402 63.0947 126.602 63.3831 126.558 63.6714C126.513 63.982 126.225 64.1816 125.937 64.1372C124.717 63.9598 123.364 64.9357 123.053 66.2222C122.743 67.4644 123.297 68.9505 124.406 69.8599C125.449 70.7028 126.913 71.0799 128.443 70.9024C128.754 70.8581 129.02 71.0799 129.064 71.3904C129.109 71.7009 128.887 71.9671 128.576 72.0115C128.266 72.078 127.977 72.078 127.711 72.078Z" fill="#6308C0"/>
<path d="M127.136 68.1071C127.069 68.1071 127.025 68.1071 126.958 68.0849C126.426 67.9075 125.871 67.7965 125.295 67.7965C124.984 67.7965 124.74 67.5526 124.74 67.242C124.74 66.9315 124.984 66.6875 125.295 66.6875C125.982 66.6875 126.67 66.7984 127.313 67.0202C127.602 67.1089 127.757 67.4417 127.668 67.73C127.579 67.9518 127.358 68.1071 127.136 68.1071Z" fill="#6308C0"/>
<path d="M131.284 57.3933C131.173 57.3933 131.062 57.3711 130.973 57.3046C130.729 57.1271 130.663 56.7944 130.818 56.5283C131.838 55.0421 133.213 53.8 134.788 52.9128C135.054 52.7575 135.387 52.8684 135.542 53.1346C135.698 53.4007 135.587 53.7335 135.321 53.8887C133.901 54.6651 132.659 55.7963 131.749 57.1493C131.639 57.3046 131.461 57.3933 131.284 57.3933Z" fill="#6308C0"/>
<path d="M136.03 60.6532C135.853 60.6532 135.675 60.5645 135.564 60.3871C135.232 59.8769 134.965 59.3224 134.744 58.7457C134.655 58.5017 134.721 58.2577 134.921 58.1024C135.121 57.9472 135.387 57.9693 135.587 58.1024C136.141 58.5239 136.474 59.1893 136.562 60.01C136.585 60.2762 136.452 60.5202 136.208 60.6089C136.163 60.6311 136.097 60.6532 136.03 60.6532Z" fill="#6308C0"/>
<path d="M143.371 63.3606C143.105 63.3606 142.883 63.1832 142.816 62.917C142.683 62.2516 143.06 61.7414 143.349 61.32C143.526 61.076 143.681 60.832 143.726 60.6324C143.814 60.1444 143.238 59.6342 142.727 59.1684L142.683 59.1241C140.554 57.1943 139.245 54.4217 139.112 51.5382C139.112 51.3607 139.09 50.9837 139.312 50.6731C139.556 50.3626 139.91 50.2739 140.066 50.2295C141.175 49.9633 143.127 49.919 144.191 50.296C144.48 50.4069 144.635 50.7175 144.524 51.0058C144.413 51.2942 144.103 51.4495 143.814 51.3386C142.994 51.0502 141.241 51.0946 140.332 51.3164C140.265 51.3386 140.243 51.3386 140.199 51.3607C140.199 51.3829 140.199 51.4273 140.199 51.4938C140.31 54.089 141.485 56.5733 143.415 58.3256L143.459 58.3699C144.103 58.9466 144.99 59.7673 144.79 60.8542C144.702 61.32 144.458 61.6749 144.214 62.0076C143.97 62.3403 143.836 62.5621 143.859 62.7618C143.925 63.0723 143.726 63.3606 143.415 63.405C143.437 63.3606 143.415 63.3606 143.371 63.3606Z" fill="#6308C0"/>
<path d="M144.281 55.9958C144.082 55.9958 143.882 55.8849 143.793 55.6853C143.549 55.2195 143.35 54.6871 143.283 54.2879C143.239 54.0439 143.35 53.7999 143.594 53.689C143.815 53.5781 144.104 53.6446 144.259 53.8221C144.481 54.0882 144.969 54.9533 144.836 55.5522C144.791 55.774 144.592 55.9514 144.37 55.9958C144.326 55.9958 144.303 55.9958 144.281 55.9958Z" fill="#6308C0"/>
<path d="M141.531 77.156C140.333 77.156 139.113 77.0894 137.916 76.9341C137.605 76.8898 137.383 76.6236 137.428 76.3131C137.472 76.0025 137.738 75.7807 138.049 75.8251C139.823 76.0247 141.642 76.0913 143.439 75.9582C145.435 75.8251 146.877 75.5146 148.119 74.96C149.649 74.2724 150.825 73.1412 151.335 71.8547C151.712 70.9231 151.845 69.8141 151.712 68.2836C151.446 64.9342 150.315 61.6514 149.117 58.5905C147.564 54.6201 145.812 50.6719 143.882 46.8789C143.749 46.6127 143.86 46.28 144.126 46.1248C144.392 45.9917 144.725 46.1026 144.88 46.3687C146.832 50.2061 148.607 54.1764 150.159 58.169C151.379 61.2965 152.555 64.6902 152.821 68.1727C152.91 69.2373 152.954 70.8122 152.355 72.254C151.712 73.8288 150.359 75.1375 148.562 75.9582C147.187 76.5792 145.634 76.912 143.505 77.0451C142.862 77.1338 142.196 77.156 141.531 77.156Z" fill="#6308C0"/>
<path d="M133.169 89.8222C132.903 89.8222 132.659 89.6225 132.615 89.3564C131.749 84.0107 130.197 78.7982 127.957 73.874C127.823 73.5857 127.956 73.2751 128.223 73.1421C128.511 73.009 128.822 73.1421 128.955 73.4082C131.217 78.4211 132.814 83.7446 133.701 89.1789C133.746 89.4894 133.546 89.7556 133.236 89.8222C133.213 89.8222 133.191 89.8222 133.169 89.8222Z" fill="#6308C0"/>
<path d="M154.262 80.5065C154.085 80.5065 153.907 80.4178 153.796 80.2625C152.554 78.4437 151.423 76.5361 150.491 74.5398C150.358 74.2736 150.469 73.9409 150.758 73.8078C151.024 73.6747 151.356 73.7856 151.49 74.074C152.399 76.0037 153.486 77.8891 154.706 79.6414C154.883 79.8854 154.817 80.2403 154.573 80.4178C154.484 80.4621 154.373 80.5065 154.262 80.5065Z" fill="#6308C0"/>
<path d="M120.657 182.783C120.391 182.783 120.169 182.584 120.103 182.317L115.157 153.726C114.225 148.403 113.293 142.902 112.916 137.401C112.273 127.486 113.537 117.482 114.669 108.632C114.713 108.322 114.979 108.122 115.29 108.144C115.6 108.189 115.8 108.455 115.778 108.765C114.669 117.549 113.404 127.508 114.048 137.312C114.402 142.747 115.356 148.225 116.266 153.527L121.212 182.118C121.256 182.428 121.057 182.717 120.768 182.761C120.724 182.783 120.702 182.783 120.657 182.783Z" fill="#6308C0"/>
<path d="M132.104 173.289C131.971 173.289 131.816 173.244 131.705 173.133C125.628 167.034 122.167 158.583 122.19 149.976C122.19 149.666 122.456 149.422 122.744 149.422C123.055 149.422 123.299 149.666 123.299 149.976C123.276 158.294 126.626 166.435 132.504 172.335C132.726 172.557 132.726 172.912 132.504 173.111C132.393 173.222 132.26 173.289 132.104 173.289Z" fill="#6308C0"/>
<path d="M134.388 170.339C134.233 170.339 134.077 170.273 133.966 170.139C131.482 167.234 129.264 164.084 127.334 160.801C127.179 160.535 127.268 160.202 127.534 160.047C127.8 159.892 128.133 159.981 128.288 160.247C130.173 163.485 132.369 166.568 134.787 169.43C134.987 169.674 134.964 170.006 134.72 170.206C134.632 170.295 134.499 170.339 134.388 170.339Z" fill="#6308C0"/>
<path d="M140.132 106.879C140.044 106.879 139.933 106.857 139.844 106.791C139.578 106.635 139.489 106.303 139.667 106.036C142.55 101.268 147.097 97.896 151.511 94.6132C152.332 94.0143 153.175 93.3711 153.995 92.75C158.587 89.2454 163.977 84.3878 165.152 77.8666C165.197 77.556 165.485 77.3564 165.796 77.423C166.106 77.4673 166.306 77.7557 166.239 78.0662C164.997 84.9645 159.408 89.9996 154.661 93.6373C153.84 94.2583 152.997 94.9016 152.177 95.5005C147.851 98.7167 143.393 102.022 140.62 106.613C140.509 106.791 140.332 106.879 140.132 106.879Z" fill="#6308C0"/>
<path d="M147.364 107.655C147.298 107.655 147.209 107.633 147.142 107.611C146.854 107.478 146.743 107.145 146.876 106.879C149.028 102.176 152 97.9619 155.726 94.3686C155.948 94.1468 156.303 94.1689 156.503 94.3908C156.725 94.6126 156.702 94.9675 156.481 95.1671C152.865 98.6717 149.959 102.775 147.874 107.344C147.786 107.544 147.586 107.655 147.364 107.655Z" fill="#6308C0"/>
<path d="M135.674 91.0421C134.787 91.0421 133.878 90.9755 132.968 90.8203C132.658 90.7759 132.458 90.4875 132.525 90.177C132.569 89.8665 132.857 89.6668 133.168 89.7334C139.778 90.8868 146.343 87.0939 150.691 84.1438C152.266 83.0791 153.885 81.7482 153.951 80.0181C153.951 79.7076 154.218 79.4636 154.528 79.4858C154.839 79.4858 155.083 79.7519 155.06 80.0625C154.994 82.3028 153.131 83.8554 151.334 85.0754C147.386 87.7149 141.707 91.0421 135.674 91.0421Z" fill="#6308C0"/>
<path d="M110.699 132.942C110.566 132.942 110.433 132.898 110.322 132.809C107.15 130.015 102.914 128.484 98.677 128.639C98.4995 128.639 98.3221 128.573 98.2334 128.44C98.1225 128.307 98.0781 128.129 98.1225 127.952C100.008 120.965 102.625 114.155 105.864 107.7C108.015 103.42 111.076 97.963 115.69 93.8595C120.437 89.6673 126.204 87.5823 131.527 88.1368C131.838 88.159 132.059 88.4474 132.015 88.7357C131.993 89.0462 131.704 89.268 131.416 89.2237C126.403 88.6913 120.947 90.6876 116.444 94.6802C111.963 98.6506 108.969 103.996 106.862 108.188C103.756 114.355 101.25 120.876 99.409 127.53C103.668 127.575 107.882 129.172 111.076 131.989C111.298 132.188 111.32 132.543 111.121 132.765C111.01 132.898 110.854 132.942 110.699 132.942Z" fill="#6308C0"/>
<path d="M156.326 79.2864C156.148 79.2864 155.971 79.1977 155.86 79.0424C155.683 78.7984 155.749 78.4435 155.993 78.2661C165.198 71.8114 174.603 65.3567 183.919 59.0795C184.163 58.9021 184.518 58.9686 184.695 59.2348C184.873 59.4788 184.806 59.8337 184.54 60.0111C175.224 66.2883 165.841 72.743 156.614 79.1977C156.548 79.2642 156.437 79.2864 156.326 79.2864Z" fill="#6308C0"/>
<path d="M206.92 90.8194C206.698 90.8194 206.476 90.6863 206.409 90.4645C201.33 77.289 193.056 65.3778 182.476 56.0396C182.254 55.8399 182.232 55.485 182.432 55.2632C182.631 55.0414 182.986 55.0192 183.208 55.2189C193.922 64.6902 202.306 76.7344 207.452 90.0874C207.563 90.3757 207.43 90.6863 207.141 90.7972C207.053 90.8194 206.986 90.8194 206.92 90.8194Z" fill="#6308C0"/>
<path d="M182.388 114.11C182.277 114.11 182.166 114.087 182.077 113.999C181.833 113.821 181.767 113.466 181.944 113.222C183.674 110.76 185.537 108.32 187.312 105.947C192.547 99.0265 197.959 91.8621 200.997 83.6773C201.108 83.3889 201.419 83.2337 201.707 83.3446C201.996 83.4555 202.151 83.766 202.04 84.0544C198.935 92.3944 193.478 99.6254 188.199 106.612C186.402 108.986 184.561 111.426 182.853 113.866C182.72 114.021 182.565 114.11 182.388 114.11Z" fill="#6308C0"/>
<path d="M181.878 192.587C181.834 192.587 181.79 192.587 181.745 192.565C181.457 192.476 181.279 192.188 181.346 191.877C184.141 181.297 187.002 170.362 187.357 159.249C187.535 153.482 187.047 147.515 186.581 141.726C185.627 130.259 184.651 118.392 188.954 107.59C189.065 107.301 189.398 107.168 189.664 107.279C189.952 107.39 190.085 107.723 189.974 107.989C185.76 118.547 186.736 130.281 187.668 141.615C188.156 147.427 188.644 153.416 188.444 159.249C188.089 170.495 185.183 181.497 182.389 192.121C182.344 192.432 182.122 192.587 181.878 192.587Z" fill="#6308C0"/>
<path d="M180.06 138C180.038 138 180.038 138 180.016 138C179.705 137.977 179.483 137.711 179.505 137.401C180.038 130.636 181.258 123.915 183.187 117.416C183.276 117.127 183.587 116.95 183.875 117.039C184.163 117.127 184.341 117.438 184.252 117.726C182.345 124.159 181.125 130.791 180.614 137.467C180.592 137.778 180.348 138 180.06 138Z" fill="#6308C0"/>
<path d="M172.606 136.957C172.54 136.957 172.451 136.935 172.385 136.913C172.096 136.78 171.985 136.447 172.118 136.181L177.553 124.381C177.686 124.092 178.019 123.981 178.285 124.114C178.573 124.248 178.684 124.58 178.551 124.846L173.117 136.647C173.006 136.846 172.806 136.957 172.606 136.957Z" fill="#6308C0"/>
<path d="M176.643 176.217C172.384 176.151 168.059 175.862 163.845 175.352C163.667 175.33 163.512 175.219 163.423 175.064C163.334 174.909 163.334 174.709 163.401 174.554C164.244 172.801 166.085 171.87 167.771 171.227C171.652 169.718 175.734 168.787 179.904 168.476C180.214 168.454 180.48 168.676 180.502 168.986C180.525 169.297 180.303 169.563 179.992 169.585C175.933 169.896 171.963 170.783 168.192 172.269C166.972 172.757 165.663 173.356 164.865 174.354C168.769 174.798 172.739 175.042 176.687 175.108C176.998 175.108 177.242 175.374 177.242 175.663C177.198 175.973 176.954 176.217 176.643 176.217Z" fill="#6308C0"/>
<path d="M179.505 194.716C179.439 194.716 179.372 194.694 179.306 194.672C171.831 191.855 164.112 188.949 156.082 187.752C151.69 187.086 147.121 186.909 142.707 186.753C135.254 186.487 127.557 186.199 120.459 183.515C120.171 183.404 120.038 183.094 120.127 182.805C120.238 182.517 120.548 182.384 120.837 182.472C127.757 185.09 135.365 185.378 142.729 185.644C147.165 185.8 151.779 185.977 156.215 186.665C164.356 187.907 172.119 190.813 179.661 193.652C179.949 193.763 180.082 194.073 179.993 194.362C179.949 194.583 179.727 194.716 179.505 194.716Z" fill="#6308C0"/>
<path d="M189.685 57.0613C189.552 57.0613 189.418 57.0169 189.308 56.9282C189.086 56.7286 189.064 56.3737 189.263 56.1519C191.77 53.3571 194.675 50.9837 197.914 49.0761C196.228 47.6122 194.853 45.8155 193.522 44.0632C193.012 43.3978 192.479 42.7102 191.947 42.0448C187.755 36.8988 181.167 31.9524 175.156 29.4681C174.868 29.3572 174.735 29.0245 174.846 28.7362C174.956 28.4478 175.289 28.3147 175.578 28.4256C181.744 30.9765 188.509 36.0559 192.812 41.335C193.345 42.0004 193.877 42.688 194.387 43.3756C195.762 45.1945 197.182 47.0577 198.934 48.4772C199.866 47.9893 200.864 47.5678 201.929 47.7009C202.527 47.7675 202.993 48.0336 203.282 48.4329C203.548 48.8321 203.592 49.3201 203.392 49.8081C203.148 50.3848 202.638 50.8284 202.039 50.9615C201.063 51.1611 200.154 50.6732 199.533 50.2739C199.289 50.1186 199.067 49.9634 198.845 49.7859C195.563 51.6713 192.613 54.0447 190.084 56.8617C189.973 56.9947 189.84 57.0613 189.685 57.0613ZM199.932 49.2092C199.999 49.2536 200.065 49.2979 200.132 49.3423C200.576 49.6307 201.241 49.9856 201.795 49.8746C202.017 49.8303 202.261 49.6307 202.35 49.3867C202.394 49.2979 202.417 49.1649 202.35 49.054C202.261 48.9209 202.062 48.8321 201.795 48.7878C201.174 48.7212 200.531 48.943 199.932 49.2092Z" fill="#6308C0"/>
<path d="M205.634 79.1755C205.501 79.1755 205.346 79.1312 205.235 79.0202C205.013 78.7984 205.013 78.4435 205.235 78.2439C210.492 73.0536 215.505 67.5083 220.119 61.7191C222.337 58.9465 224.51 55.952 224.821 52.4918C225.065 49.7857 224.089 46.8578 222.07 44.2183C220.207 41.7784 217.701 39.8486 215.261 38.1407C211.069 35.1906 206.566 32.5067 202.196 29.8894C195.431 25.8524 188.466 21.6824 182.411 16.4255C182.189 16.2259 182.145 15.871 182.367 15.6492C182.566 15.4274 182.921 15.383 183.143 15.6048C189.11 20.7952 196.052 24.943 202.773 28.9578C207.143 31.5751 211.668 34.2812 215.904 37.2535C218.411 39.0058 220.984 40.9799 222.958 43.5529C225.131 46.392 226.196 49.6083 225.93 52.6027C225.597 56.3513 223.313 59.501 221.006 62.4067C216.37 68.2181 211.335 73.8077 206.034 79.0202C205.923 79.1312 205.79 79.1755 205.634 79.1755Z" fill="#6308C0"/>
<path d="M220.384 51.3603C220.317 51.3603 220.228 51.3382 220.162 51.316C219.874 51.1829 219.763 50.8502 219.896 50.584C220.339 49.6302 220.339 48.4768 219.94 47.5008C219.829 47.2125 219.94 46.902 220.228 46.7689C220.517 46.658 220.827 46.7689 220.96 47.0572C221.493 48.3215 221.493 49.8077 220.916 51.0498C220.805 51.2273 220.583 51.3603 220.384 51.3603Z" fill="#6308C0"/>
<path d="M171.763 27.8929C171.719 27.8929 171.652 27.8929 171.608 27.8929C170.765 27.8486 170.011 27.5824 169.168 27.2275C164.022 25.1203 158.987 22.6139 154.196 19.7747C153.929 19.6194 153.087 19.1093 153.197 18.2664C153.264 17.7784 153.619 17.4679 153.752 17.357C155.549 15.7821 158.166 16.3366 159.563 16.8024C159.674 16.8468 159.785 16.8912 159.918 16.9133C160.406 17.0908 160.872 17.2461 161.338 17.2904C161.804 17.3348 162.27 17.2682 162.78 17.2017C163.001 17.1795 163.223 17.1352 163.467 17.113C165.685 16.9133 167.97 17.601 169.722 18.9762C169.966 19.1758 170.011 19.5085 169.811 19.7525C169.611 19.9965 169.279 20.0409 169.035 19.8412C167.504 18.6435 165.508 18.0446 163.556 18.222C163.334 18.2442 163.135 18.2664 162.913 18.2886C162.358 18.3551 161.804 18.4216 161.205 18.3773C160.606 18.3107 160.051 18.1333 159.541 17.9558C159.43 17.9115 159.319 17.8893 159.209 17.8449C158.033 17.4457 155.859 16.9799 154.484 18.1777C154.307 18.3329 154.307 18.3773 154.307 18.3995C154.307 18.3995 154.307 18.5326 154.772 18.8209C159.519 21.6379 164.488 24.1222 169.589 26.2072C170.321 26.5177 170.987 26.7617 171.652 26.7839C172.184 26.8061 172.894 26.6508 173.249 26.1406C173.427 25.8966 173.781 25.8301 174.025 26.0075C174.269 26.185 174.336 26.5399 174.159 26.7839C173.648 27.4937 172.761 27.8929 171.763 27.8929Z" fill="#6308C0"/>
<path d="M159.984 14.5836C159.896 14.5836 159.785 14.5614 159.696 14.5171C159.43 14.3618 159.341 14.0291 159.496 13.7629C160.561 11.9441 161.759 10.1918 163.067 8.55038C163.267 8.30639 163.6 8.26203 163.844 8.46166C164.088 8.66129 164.132 8.994 163.933 9.23799C162.646 10.835 161.47 12.543 160.45 14.3174C160.361 14.4949 160.184 14.5836 159.984 14.5836Z" fill="#6308C0"/>
<path d="M165.021 6.48802C164.91 6.48802 164.799 6.46584 164.711 6.37711C162.98 5.15716 161.073 4.20338 159.054 3.56013C158.189 3.27178 157.191 3.0056 156.237 3.16087C155.084 3.33832 154.507 3.51576 154.285 4.13683C154.197 4.42519 153.864 4.58045 153.576 4.46955C153.287 4.35864 153.132 4.04811 153.243 3.75976C153.709 2.40672 155.128 2.20709 156.082 2.05182C157.28 1.87437 158.433 2.18491 159.409 2.49544C161.539 3.18305 163.535 4.18119 165.354 5.46769C165.598 5.64514 165.664 6.00004 165.487 6.24403C165.376 6.39929 165.199 6.48802 165.021 6.48802Z" fill="#6308C0"/>
<path d="M180.237 17.1566C180.215 17.1566 180.215 17.1566 180.237 17.1566C179.904 17.1566 179.682 16.8904 179.682 16.5799C179.749 14.384 178.706 12.2103 176.932 10.9016C176.267 10.4136 175.49 10.0143 174.758 9.65945C172.496 8.52822 170.189 7.41917 167.904 6.31012C167.638 6.17703 167.505 5.84432 167.638 5.57815C167.771 5.31198 168.104 5.17889 168.37 5.31198C170.655 6.39884 172.962 7.53008 175.224 8.66131C175.978 9.03838 176.821 9.45982 177.553 10.0143C179.594 11.5448 180.814 14.0735 180.747 16.6021C180.769 16.9348 180.525 17.1566 180.237 17.1566Z" fill="#6308C0"/>
<path d="M153.642 16.0702C153.531 16.0702 153.42 16.048 153.331 15.9815C152.266 15.2717 151.069 14.8281 149.804 14.3401C149.028 14.0518 148.229 13.7634 147.475 13.3863C145.967 12.6765 144.614 11.7006 143.483 10.8355C143.217 10.6359 142.795 10.3032 142.662 9.77083C142.44 8.81705 143.305 8.08507 144.259 7.8189C145.679 7.46401 147.231 7.64146 148.518 8.32907C148.784 8.48433 148.895 8.81705 148.74 9.08322C148.584 9.34939 148.252 9.4603 147.985 9.30503C146.943 8.7505 145.679 8.59524 144.525 8.88359C144.082 8.9945 143.682 9.30503 143.727 9.50466C143.749 9.63774 143.993 9.81519 144.126 9.92609C145.213 10.7468 146.499 11.6784 147.919 12.366C148.629 12.6987 149.405 12.9871 150.159 13.2754C151.446 13.7412 152.754 14.2292 153.93 15.0277C154.174 15.2052 154.241 15.5379 154.085 15.8041C153.997 15.9815 153.819 16.0702 153.642 16.0702Z" fill="#6308C0"/>
<path d="M158.255 12.1222C158.189 12.1222 158.144 12.1222 158.078 12.1C155.35 11.1906 152.533 10.3921 149.716 9.72667C149.427 9.66012 149.228 9.34959 149.294 9.06124C149.361 8.77288 149.671 8.57326 149.96 8.6398C152.799 9.30523 155.66 10.1259 158.433 11.0575C158.721 11.1463 158.876 11.479 158.788 11.7673C158.699 11.9669 158.477 12.1222 158.255 12.1222Z" fill="#6308C0"/>
<path d="M150.936 7.42063C150.847 7.42063 150.781 7.39845 150.714 7.37627C149.14 6.6443 147.321 6.42249 145.613 6.71084C145.413 6.7552 145.302 6.79957 145.28 6.82175C145.236 7.1101 144.97 7.30973 144.681 7.26537C144.371 7.24319 144.149 6.95483 144.193 6.66648C144.215 6.42249 144.393 5.80142 145.435 5.62397C147.365 5.29126 149.428 5.55743 151.202 6.37813C151.491 6.51121 151.602 6.84393 151.469 7.1101C151.335 7.28755 151.136 7.42063 150.936 7.42063Z" fill="#6308C0"/>
<path d="M163.069 8.86101C162.98 8.86101 162.869 8.83883 162.78 8.77229C159.032 6.44328 154.928 4.86843 150.603 4.04774C149.516 3.84811 148.829 3.93683 148.518 4.33609C148.318 4.58008 147.986 4.62444 147.742 4.42481C147.498 4.22518 147.453 3.89247 147.653 3.64848C148.54 2.51725 150.248 2.84996 150.825 2.93869C155.305 3.78156 159.52 5.40077 163.402 7.79632C163.668 7.95159 163.734 8.30648 163.579 8.55048C163.446 8.7501 163.246 8.86101 163.069 8.86101Z" fill="#6308C0"/>
<path d="M69.5096 121.518C69.3321 121.518 69.1547 121.429 69.0438 121.252C67.2471 118.391 66.1602 115.108 65.9162 111.758C65.8941 111.603 65.894 111.448 65.894 111.271C65.8275 110.272 65.7831 109.319 65.3395 108.542C64.785 107.566 63.7425 107.034 62.6334 106.435C61.7018 105.947 60.7481 105.459 60.0161 104.661C59.639 104.261 59.2619 103.596 59.3063 102.886C59.3285 102.465 59.5059 102.132 59.8165 101.866C60.1714 101.577 60.615 101.511 60.9921 101.489C63.8534 101.289 66.5595 102.62 69.0216 104.084C70.2859 104.838 71.5946 105.659 72.504 106.901C73.2581 107.921 73.6796 109.141 74.0345 110.317C74.9217 113.178 75.6315 116.15 76.3413 119.012C76.4078 119.3 76.2304 119.611 75.942 119.677C75.6537 119.744 75.3432 119.566 75.2766 119.278C74.589 116.439 73.8792 113.489 72.992 110.649C72.6371 109.54 72.2822 108.454 71.6167 107.566C70.8404 106.502 69.6205 105.747 68.4671 105.06C66.1381 103.685 63.6316 102.42 61.0586 102.598C60.859 102.62 60.6372 102.642 60.5041 102.731C60.4597 102.775 60.4154 102.82 60.3932 102.953C60.371 103.219 60.5484 103.618 60.8146 103.906C61.4357 104.55 62.2564 104.993 63.1436 105.459C64.3414 106.08 65.5835 106.746 66.2933 107.988C66.87 108.986 66.9365 110.117 67.0031 111.182C67.0031 111.337 67.0253 111.492 67.0253 111.648C67.2471 114.842 68.2896 117.947 69.9975 120.631C70.1528 120.897 70.0863 121.23 69.8201 121.407C69.7092 121.496 69.5983 121.518 69.5096 121.518Z" fill="#6308C0"/>
<path d="M63.0103 129.37C62.9438 129.37 62.8551 129.348 62.7885 129.325L59.5279 127.861C59.2396 127.728 59.1287 127.418 59.2396 127.129C59.3727 126.841 59.6832 126.73 59.9715 126.841L63.2321 128.305C63.5205 128.438 63.6314 128.749 63.5205 129.037C63.4318 129.237 63.2321 129.37 63.0103 129.37Z" fill="#6308C0"/>
<path d="M112.385 169.363C110.233 169.363 108.259 168.698 106.862 168.032C104.577 166.968 102.581 165.437 100.562 163.84C88.2517 154.058 76.7842 143.057 66.4922 131.145C66.2925 130.924 66.3147 130.569 66.5587 130.369C66.7805 130.169 67.1354 130.192 67.335 130.436C77.5605 142.302 88.9837 153.26 101.25 162.997C103.224 164.55 105.154 166.036 107.327 167.056C109.013 167.833 111.586 168.654 114.226 168.077C114.536 168.01 114.825 168.21 114.891 168.498C114.958 168.787 114.758 169.097 114.47 169.164C113.76 169.297 113.05 169.363 112.385 169.363Z" fill="#6308C0"/>
<path d="M109.944 144.187C109.767 144.187 109.612 144.098 109.501 143.965C107.283 140.97 104.577 138.397 101.471 136.335C98.6543 134.471 95.4824 133.052 92.4436 131.677C91.2681 131.144 90.0481 130.59 88.8725 130.035C85.1461 128.238 80.4659 125.665 77.3384 121.562C77.161 121.318 77.2053 120.963 77.4493 120.786C77.6933 120.608 78.0482 120.653 78.2256 120.897C81.2201 124.823 85.745 127.307 89.3605 129.037C90.5361 129.592 91.7338 130.146 92.9094 130.678C96.0148 132.076 99.2088 133.518 102.092 135.425C105.309 137.554 108.103 140.216 110.41 143.322C110.588 143.566 110.543 143.92 110.299 144.098C110.166 144.164 110.055 144.187 109.944 144.187Z" fill="#6308C0"/>
<path d="M98.5446 132.253C98.5224 132.253 98.5002 132.253 98.478 132.253C98.1675 132.231 97.9457 131.943 97.99 131.632L98.1675 130.013C98.1896 129.703 98.478 129.481 98.7885 129.525C99.0991 129.547 99.3209 129.836 99.2765 130.146L99.0991 131.765C99.0547 132.054 98.8107 132.253 98.5446 132.253Z" fill="#6308C0"/>
<path d="M46.0192 118.036C45.9748 118.036 45.9526 118.036 45.9082 118.036C42.6476 117.393 39.4758 116.284 36.5035 114.775C36.2373 114.642 36.1264 114.31 36.2595 114.021C36.3926 113.733 36.7253 113.644 37.0137 113.777C39.8972 115.241 42.9582 116.306 46.1301 116.927C46.4406 116.994 46.618 117.282 46.5737 117.57C46.5071 117.859 46.2853 118.036 46.0192 118.036Z" fill="#6308C0"/>
<path d="M48.4593 121.762C48.4149 121.762 48.3705 121.762 48.3262 121.739L40.6959 119.898C40.4076 119.832 40.2079 119.521 40.2967 119.233C40.3632 118.945 40.6737 118.745 40.9621 118.834L48.5924 120.675C48.8807 120.741 49.0803 121.052 48.9916 121.34C48.9251 121.606 48.7032 121.762 48.4593 121.762Z" fill="#6308C0"/>
<path d="M51.0541 124.136C51.0319 124.136 51.0098 124.136 51.0098 124.136L44.9765 123.581C44.666 123.559 44.4442 123.293 44.4664 122.982C44.4886 122.672 44.7547 122.45 45.0653 122.472L51.0985 123.027C51.409 123.049 51.6308 123.315 51.6087 123.626C51.5865 123.914 51.3425 124.136 51.0541 124.136Z" fill="#6308C0"/>
<path d="M41.6489 113.289C41.5601 113.289 41.4714 113.266 41.4049 113.222C40.4067 112.712 39.1646 112.069 38.1221 111.204C36.9465 110.228 36.1701 109.074 35.8596 107.877C35.7043 107.233 35.8818 106.701 36.3476 106.501C36.6359 106.39 36.9465 106.501 37.0796 106.79C37.1905 107.034 37.1017 107.3 36.9021 107.455C36.9021 107.499 36.9021 107.544 36.9243 107.588C37.257 108.83 38.1443 109.762 38.8319 110.339C39.7191 111.071 40.7172 111.603 41.915 112.224C42.1812 112.357 42.2921 112.69 42.159 112.978C42.0259 113.178 41.8485 113.289 41.6489 113.289Z" fill="#6308C0"/>
<path d="M80.3104 346.744C80.022 346.744 79.778 346.522 79.7558 346.233C78.8021 330.973 76.4065 315.712 72.6357 300.873C72.1921 299.143 71.7263 297.391 71.2827 295.683C68.3105 284.504 65.2495 272.97 67.1349 261.502C69.353 248.083 77.9814 236.77 85.6116 226.789L117.663 184.822C117.841 184.578 118.195 184.534 118.439 184.711C118.683 184.889 118.728 185.244 118.55 185.488L86.4989 227.454C78.9573 237.325 70.3955 248.526 68.2217 261.679C66.3807 272.903 69.3973 284.348 72.3474 295.395C72.791 297.102 73.2568 298.855 73.7004 300.585C77.4934 315.468 79.9111 330.795 80.8427 346.145C80.8649 346.455 80.6209 346.721 80.3326 346.721C80.3326 346.744 80.3325 346.744 80.3104 346.744Z" fill="#6308C0"/>
<path d="M182.277 346.855C182.144 346.855 182.011 346.811 181.9 346.7C166.307 332.193 150.159 317.199 136.651 300.208C131.594 293.865 126.603 286.833 124.34 278.626C121.28 267.514 123.675 255.691 125.782 245.244L130.973 219.47C131.305 217.85 131.638 216.187 131.327 214.568C130.928 212.46 129.509 210.752 128 208.956C126.536 207.203 125.006 205.362 124.474 203.078C124.407 202.789 124.584 202.479 124.895 202.412C125.183 202.346 125.494 202.523 125.56 202.834C126.026 204.852 127.401 206.494 128.843 208.246C130.374 210.065 131.949 211.972 132.414 214.368C132.747 216.187 132.392 218.05 132.059 219.691L126.869 245.466C124.784 255.78 122.433 267.469 125.427 278.338C127.645 286.367 132.547 293.266 137.516 299.521C150.98 316.445 167.083 331.417 182.654 345.901C182.876 346.101 182.898 346.456 182.676 346.677C182.566 346.788 182.432 346.855 182.277 346.855Z" fill="#6308C0"/>
<path d="M221.072 320.394C220.895 320.394 220.739 320.328 220.629 320.172C204.503 298.857 186.248 279.005 166.352 261.171C165.93 261.703 165.42 262.147 164.777 262.435C163.402 263.056 161.76 262.236 161.028 261.127C160.407 260.195 160.474 259.175 161.206 258.465C162.359 257.4 164.178 257.755 166.086 259.441C166.44 258.642 166.684 257.689 166.884 256.735L178.862 199.996C178.928 199.685 179.217 199.508 179.527 199.574C179.838 199.641 180.015 199.929 179.949 200.24L167.971 256.979C167.727 258.132 167.439 259.263 166.951 260.217C186.958 278.139 205.324 298.08 221.516 319.507C221.693 319.751 221.649 320.106 221.405 320.283C221.316 320.35 221.205 320.394 221.072 320.394ZM162.781 258.975C162.47 258.975 162.204 259.064 161.96 259.286C161.538 259.685 161.716 260.173 161.938 260.506C162.426 261.238 163.49 261.77 164.311 261.415C164.799 261.193 165.198 260.861 165.509 260.417C165.464 260.395 165.442 260.35 165.398 260.328C165.11 260.062 163.845 258.975 162.781 258.975Z" fill="#6308C0"/>
<path d="M130.751 203.145C130.707 203.145 130.662 203.145 130.618 203.123C130.329 203.056 130.13 202.746 130.219 202.457C131.35 197.733 133.634 193.297 136.784 189.592C136.984 189.371 137.339 189.326 137.56 189.526C137.782 189.726 137.827 190.08 137.627 190.302C134.588 193.873 132.392 198.154 131.305 202.701C131.217 202.99 130.995 203.145 130.751 203.145Z" fill="#6308C0"/>
<path d="M157.989 211.772C157.789 211.772 157.589 211.661 157.501 211.484C157.345 211.218 157.456 210.885 157.722 210.73C163.911 207.403 169.855 203.477 175.334 199.085C175.578 198.885 175.933 198.929 176.111 199.173C176.31 199.417 176.266 199.772 176.022 199.95C170.477 204.386 164.488 208.334 158.233 211.706C158.166 211.75 158.077 211.772 157.989 211.772Z" fill="#6308C0"/>
<path d="M159.453 215.566C159.275 215.566 159.098 215.477 158.987 215.322C158.81 215.078 158.876 214.723 159.12 214.546C164.421 210.886 169.723 207.026 174.824 203.1C175.068 202.923 175.423 202.967 175.601 203.211C175.778 203.455 175.734 203.81 175.49 203.987C170.366 207.936 165.065 211.795 159.741 215.477C159.675 215.521 159.564 215.566 159.453 215.566Z" fill="#6308C0"/>
<path d="M99.0324 94.5019C98.8993 94.5019 98.7441 94.4576 98.6332 94.3467C98.4113 94.1249 98.4113 93.77 98.6332 93.5704L99.1211 93.0824C99.3429 92.8606 99.6978 92.8606 99.8975 93.0824C100.119 93.3042 100.119 93.6591 99.8975 93.8587L99.4095 94.3467C99.3208 94.4576 99.1877 94.5019 99.0324 94.5019Z" fill="#6308C0"/>
<path d="M55.8668 123.559C54.8687 123.559 53.8706 123.138 53.1829 122.317L33.6193 99.2932C32.9761 98.539 32.6877 97.563 32.7986 96.5871C32.9095 95.6111 33.4419 94.7239 34.2182 94.1694L45.4418 86.0511C46.9279 84.9864 48.9907 85.2304 50.1885 86.6278L60.2365 98.4503C60.4361 98.6943 60.4139 99.027 60.17 99.2266C59.926 99.4263 59.5932 99.4041 59.3936 99.1601L49.3456 87.3376C48.5471 86.3838 47.1054 86.2064 46.1072 86.9384L34.8836 95.0566C34.3291 95.4558 33.9964 96.0547 33.9077 96.7202C33.8189 97.3856 34.0186 98.051 34.4622 98.5612L54.0258 121.585C54.8243 122.539 56.2661 122.716 57.2642 121.984L65.205 116.262C65.449 116.084 65.8039 116.129 65.9814 116.395C66.1588 116.639 66.1145 116.994 65.8483 117.171L57.9075 122.894C57.2864 123.337 56.5766 123.559 55.8668 123.559Z" fill="#FFC701"/>
<path d="M54.4474 126.155C54.2921 126.155 54.1369 126.089 54.026 125.956L31.6232 100.226C31.4235 100.004 31.4457 99.649 31.6675 99.4493C31.8893 99.2497 32.2442 99.2719 32.4439 99.4937L54.8467 125.224C55.0463 125.445 55.0241 125.8 54.8023 126C54.6914 126.111 54.5805 126.155 54.4474 126.155Z" fill="#FFC701"/>
<path d="M56.6653 126.82C56.4879 126.82 56.3326 126.731 56.2217 126.598C56.0443 126.354 56.0886 125.999 56.3548 125.822L66.1144 118.724C66.3584 118.546 66.7133 118.591 66.8907 118.857C67.0682 119.101 67.0238 119.456 66.7577 119.633L56.998 126.731C56.8871 126.775 56.7762 126.82 56.6653 126.82Z" fill="#FFC701"/>
<path d="M40.2527 94.4358C40.0753 94.4358 39.92 94.3692 39.8091 94.214C39.6317 93.97 39.676 93.6151 39.92 93.4376L43.469 90.7759C43.713 90.5985 44.0679 90.6428 44.2453 90.8868C44.4227 91.1308 44.3784 91.4857 44.1344 91.6631L40.5854 94.3249C40.4745 94.3914 40.3636 94.4358 40.2527 94.4358Z" fill="#FFC701"/>
<path d="M49.8779 81.261C49.6339 81.261 49.4121 81.1057 49.3456 80.8618C48.6358 78.4662 48.414 75.8932 48.658 73.4311C48.6801 73.1206 48.9685 72.8988 49.2568 72.9432C49.5674 72.9653 49.7892 73.2537 49.7448 73.542C49.5008 75.871 49.7448 78.3109 50.3881 80.5512C50.4768 80.8396 50.2993 81.1501 50.011 81.2388C49.9888 81.2388 49.9223 81.261 49.8779 81.261Z" fill="#6308C0"/>
<path d="M56.2001 82.5679C56.178 82.5679 56.1336 82.5679 56.0892 82.5679C55.7787 82.5235 55.5791 82.213 55.6456 81.9246C56.0227 79.9061 56.5329 77.9099 57.1761 75.9579C57.2648 75.6696 57.5975 75.5143 57.8859 75.603C58.1742 75.6918 58.3295 76.0245 58.2408 76.3128C57.5975 78.1982 57.1096 80.1501 56.7325 82.1242C56.6881 82.3682 56.4663 82.5679 56.2001 82.5679Z" fill="#6308C0"/>
<path d="M60.3486 85.5637C60.1711 85.5637 59.9937 85.475 59.9049 85.3197C59.7275 85.0757 59.7941 84.7208 60.038 84.5434C61.6794 83.39 63.2986 82.1479 64.8291 80.8835C65.0731 80.6839 65.4058 80.7283 65.6055 80.9723C65.8051 81.2162 65.7607 81.549 65.5167 81.7486C63.9419 83.0351 62.3005 84.2772 60.6591 85.4528C60.5704 85.5194 60.4595 85.5637 60.3486 85.5637Z" fill="#6308C0"/>
<path d="M147.298 65.034C145.108 65.9487 142.836 66.6277 140.508 67.0573C140.244 67.1127 140.133 67.4592 140.258 67.667C141.963 70.4663 145.94 70.4941 147.7 67.7363C147.991 67.279 147.27 66.8633 146.979 67.3206C145.552 69.5517 142.337 69.4963 140.965 67.2513C140.882 67.4592 140.799 67.6532 140.716 67.861C143.044 67.4314 145.316 66.7524 147.506 65.8378C148.005 65.6299 147.797 64.8262 147.298 65.034Z" fill="#6308C0"/>
<path d="M150.691 73.8509C149.072 74.9599 147.519 75.8915 145.568 76.2464C143.704 76.5791 141.775 76.5126 139.889 76.446C139.69 76.446 139.579 76.5791 139.579 76.7566C139.312 76.6678 139.024 76.5791 138.758 76.4682C138.359 76.3351 138.181 76.9562 138.581 77.1115C141.131 78.0209 144.192 78.8859 146.921 78.5976C149.516 78.3314 150.092 76.3351 151.179 74.3166C151.29 74.0283 150.98 73.6512 150.691 73.8509Z" fill="#6308C0"/>
<path d="M128.464 64.9789C128.198 64.9789 127.976 64.7793 127.91 64.5131C127.533 62.3616 126.601 60.3209 125.204 58.613C125.004 58.369 125.049 58.0363 125.293 57.8367C125.537 57.637 125.869 57.6814 126.069 57.9254C127.577 59.7664 128.575 61.9845 128.997 64.3357C129.041 64.6462 128.842 64.9346 128.553 64.9789C128.531 64.9789 128.509 64.9789 128.464 64.9789Z" fill="#FFC701"/>
<path d="M121.988 59.833C121.722 59.833 121.478 59.6334 121.433 59.345C121.389 59.0345 121.611 58.7683 121.921 58.724C124.383 58.4134 126.712 56.4837 127.866 53.822C128.82 51.6039 129.086 48.92 128.664 45.615C128.62 45.3045 128.842 45.0383 129.152 44.9939C129.463 44.9496 129.729 45.1714 129.773 45.4819C130.217 48.9865 129.929 51.87 128.886 54.2656C127.578 57.3044 124.894 59.4781 122.054 59.833C122.032 59.8108 122.01 59.833 121.988 59.833Z" fill="#FFC701"/>
<path d="M130.993 49.5634C130.816 49.5634 130.66 49.4969 130.549 49.3416C130.372 49.0976 130.416 48.7427 130.66 48.5653C131.769 47.7224 132.479 46.325 132.501 44.9276C132.501 44.617 132.745 44.373 133.056 44.373C133.366 44.373 133.61 44.6392 133.61 44.9276C133.588 46.6799 132.745 48.3656 131.348 49.4303C131.237 49.5412 131.104 49.5634 130.993 49.5634Z" fill="#FFC701"/>
<path d="M133.877 49.5419C133.566 49.5419 133.322 49.2979 133.322 49.0096C133.322 48.699 133.566 48.455 133.855 48.455C134.986 48.4328 136.206 47.8783 137.492 46.8358C139.511 45.1501 141.019 42.7989 141.685 40.2481C142.062 38.8063 142.084 37.6307 141.751 36.6547C141.662 36.3664 141.795 36.0559 142.106 35.945C142.394 35.8562 142.705 35.9893 142.816 36.2998C143.237 37.4976 143.215 38.895 142.771 40.5586C142.039 43.3312 140.42 45.882 138.224 47.7231C136.738 48.8765 135.296 49.4975 133.877 49.5419C133.877 49.5419 133.899 49.5419 133.877 49.5419Z" fill="#FFC701"/>
<path d="M139.866 40.5589C139.534 40.5589 139.312 40.2928 139.312 39.9822C139.378 38.0081 138.713 35.9896 137.493 34.4592C137.293 34.2152 137.338 33.8603 137.582 33.6828C137.826 33.5054 138.181 33.5276 138.358 33.7715C139.733 35.5238 140.487 37.8085 140.421 40.0266C140.421 40.3149 140.177 40.5589 139.866 40.5589Z" fill="#FFC701"/>
<path d="M120.614 70.2585C120.591 70.2585 120.547 70.2585 120.525 70.2585C116.932 69.6596 113.738 67.7077 111.741 64.9129C109.634 61.9628 108.991 58.0811 110.033 54.7984C110.632 52.8908 111.763 51.4047 113.183 50.584C113.471 50.4287 113.76 50.2956 114.048 50.2069C113.893 49.8076 113.782 49.4084 113.693 48.9648C113.383 47.3012 113.649 45.438 114.492 43.2199C115.734 39.9371 117.664 37.231 120.081 35.39C122.854 33.2828 126.248 32.3734 129.353 32.9057C129.397 32.9057 129.442 32.9279 129.508 32.9279C130.262 31.5527 131.549 30.3993 132.835 29.6229C135.697 27.915 138.957 27.3161 141.819 28.0037C145.035 28.7579 147.697 31.2643 148.429 34.2144C149.094 36.8539 148.34 41.1571 144.059 44.5507C143.815 44.7504 143.46 44.706 143.283 44.462C143.105 44.218 143.127 43.8631 143.371 43.6857C147.231 40.6025 147.918 36.8096 147.342 34.4806C146.698 31.9298 144.392 29.756 141.552 29.0906C138.979 28.4917 136.007 29.0241 133.412 30.5989C132.37 31.22 131.283 32.1516 130.617 33.2606C131.46 33.5933 132.325 34.1479 132.702 35.146C133.013 35.9667 132.747 36.987 132.037 37.6525C131.46 38.1848 130.75 38.3179 130.129 38.0074C129.508 37.719 129.065 37.0314 128.909 36.1442C128.798 35.39 128.865 34.6802 129.065 33.9926C126.314 33.549 123.209 34.414 120.747 36.2772C118.506 37.9852 116.71 40.5138 115.534 43.6191C114.78 45.6376 114.536 47.3234 114.78 48.7651C114.847 49.1644 114.98 49.5636 115.157 49.9629C116.377 49.852 117.619 50.2069 118.462 51.0054C118.906 51.4269 119.172 52.1145 119.061 52.6468C118.994 53.0239 118.75 53.3344 118.396 53.4675C118.041 53.6006 117.708 53.534 117.464 53.4675C116.288 53.157 115.268 52.3141 114.558 51.205C114.27 51.2938 114.004 51.4047 113.738 51.5599C112.562 52.2254 111.63 53.4897 111.098 55.1311C110.144 58.1033 110.743 61.6079 112.651 64.2696C114.469 66.8426 117.42 68.6171 120.725 69.1716C121.035 69.216 121.235 69.5044 121.19 69.8149C121.124 70.0589 120.88 70.2585 120.614 70.2585ZM115.8 51.0276C116.288 51.6487 116.932 52.1588 117.752 52.3806C117.885 52.425 117.952 52.425 117.974 52.425C117.996 52.3141 117.908 51.9814 117.708 51.8039C117.198 51.3381 116.532 51.072 115.8 51.0276ZM130.129 34.2588C129.952 34.8133 129.885 35.3678 129.974 35.9667C130.063 36.4769 130.285 36.8761 130.573 37.0092C130.839 37.1423 131.105 36.987 131.26 36.8318C131.571 36.5434 131.815 35.9889 131.638 35.5453C131.394 34.8577 130.75 34.4806 130.129 34.2588Z" fill="#FFC701"/>
<path d="M115.49 63.7381C115.335 63.7381 115.157 63.6715 115.046 63.5163C114.314 62.5847 113.671 61.7196 113.294 60.6993C112.828 59.435 112.895 58.1485 113.449 57.1725C113.604 56.9063 113.937 56.8176 114.203 56.9729C114.469 57.1282 114.558 57.4609 114.403 57.727C114.004 58.4146 113.981 59.3684 114.314 60.3222C114.647 61.2095 115.224 61.9858 115.889 62.8508C116.089 63.0948 116.044 63.4497 115.8 63.6272C115.734 63.7159 115.601 63.7381 115.49 63.7381Z" fill="#FFC701"/>
<path d="M117.441 46.7463C117.175 46.7463 116.931 46.5466 116.887 46.2583C116.665 44.3951 117.397 42.4875 118.817 41.2676C119.038 41.0679 119.393 41.0901 119.593 41.3341C119.792 41.5559 119.77 41.9108 119.526 42.1104C118.395 43.0864 117.796 44.6613 117.974 46.1252C118.018 46.4357 117.796 46.7019 117.486 46.7463C117.486 46.7463 117.463 46.7463 117.441 46.7463Z" fill="#FFC701"/>
</g>
</svg>
