<svg width="277" height="205" viewBox="0 0 277 205" fill="none" xmlns="http://www.w3.org/2000/svg">
<path d="M100.686 45.1266C104.964 49.3329 111.699 47.1543 105.844 41.3703C102.566 38.131 95.8536 40.3767 100.686 45.1266Z" fill="#F0EDFF"/>
<path d="M126.387 45.0016C128.623 45.9798 130.72 39.9177 127.924 39.4118C124.861 38.857 123.261 43.6335 126.387 45.0016Z" fill="#F0EDFF"/>
<path d="M117.288 57.6349C117.762 57.6251 118.162 57.579 118.366 57.5203C120.117 57.0228 120.795 54.9713 118.469 54.8749C117.418 54.8316 114.836 54.8819 114.329 56.1494C113.837 57.3805 115.885 57.6656 117.288 57.6349Z" fill="#F0EDFF"/>
<path d="M104.357 90.6389C112.707 93.329 124.738 89.1716 128.733 81.0091C132.312 73.6976 127.154 76.5806 123.3 78.4657C118.797 80.6667 113.871 82.1396 108.839 82.2584C103.784 82.3772 98.7087 81.086 94.5485 78.1303C92.7486 76.8517 90.2639 72.4399 87.9567 75.049C84.3737 79.1002 100.44 89.377 104.357 90.6389Z" fill="#F0EDFF"/>
<path d="M41.2249 114.132C51.9671 116.251 62.2914 111.096 69.2605 103.097C71.8933 100.076 84.7918 81.9618 78.9798 78.6666C78.0044 78.1146 63.3605 84.828 53.9976 92.2344C51.8748 93.9142 37.0591 113.311 41.2249 114.132Z" fill="#F0EDFF"/>
<path d="M57.0095 125.159C52.9275 127.885 58.3748 144.49 62.9598 141.438C67.4149 138.472 61.9956 121.83 57.0095 125.159Z" fill="#F0EDFF"/>
<path d="M58.6996 169.409C57.7451 161.831 48.8392 173.348 47.0225 174.99C43.002 178.624 33.7537 186.743 36.3599 193.183C39.1814 200.153 45.0018 193.271 47.1511 189.892C50.5664 184.524 59.5548 176.203 58.6996 169.409Z" fill="#F0EDFF"/>
<path d="M69.4148 140.709C69.6985 138.684 73.2382 123.354 69.7125 123.399C66.6059 123.438 66.455 137.844 66.1462 140.045C64.3155 153.099 62.0139 166.088 59.2484 178.975C58.4951 182.486 54.1882 193.449 56.5261 195.7C59.3588 198.426 61.3585 185.001 61.8071 182.969C64.8927 168.988 67.4276 154.886 69.4148 140.709Z" fill="#F0EDFF"/>
<path d="M85.6256 190.571C81.4738 189.405 67.4364 184.449 64.6569 189.346C61.7446 194.479 71.0712 199.634 74.4516 201.406C78.6719 203.618 84.7201 205.313 89.1975 202.613C96.1191 198.438 91.4684 192.213 85.6256 190.571Z" fill="#F0EDFF"/>
<path d="M124.383 163.375C119.114 163.378 113.747 164.383 108.594 164.856C104.147 165.266 99.35 165.685 95.201 167.447C93.1691 168.309 90.9038 169.944 92.3628 172.349C94.6196 176.071 105.057 175.721 108.809 176.047C116.083 176.679 130.27 178.242 136.462 173.145C142.327 168.316 134.924 164.765 130.354 163.892C128.389 163.518 126.392 163.374 124.383 163.375Z" fill="#F0EDFF"/>
<path d="M169.179 178.004C153.847 169.738 159.591 152.077 160.168 138.019C160.338 133.866 160.226 120.277 154.98 118.55C149.595 116.776 153.621 131.338 153.696 133.855C153.944 142.013 152.52 150.115 151.476 158.174C150.662 164.453 148.263 173.858 151.801 179.699C154.634 184.375 165.052 189.033 170.491 189.472C180.287 190.261 173.771 180.48 169.179 178.004Z" fill="#F0EDFF"/>
<path d="M181.288 145.264C176.296 138.081 169.433 156.812 170.948 161.093C174.389 170.816 185.564 151.418 181.288 145.264Z" fill="#F0EDFF"/>
<path d="M226.453 131.985C219.53 126.103 213.144 119.573 207.459 112.486C205.34 109.845 201.205 101.183 198.398 99.8032C195.329 98.2968 195.497 100.137 196.278 102.69C198.414 109.679 207.143 117.619 212.04 122.863C215.072 126.11 218.201 129.509 221.682 132.273C222.375 132.824 224.136 135.094 225.273 134.83C226.331 134.586 227.803 133.132 226.453 131.985Z" fill="#F0EDFF"/>
<path d="M243.622 77.4094C239.851 73.9368 235.605 68.3148 229.993 71.7442C226.998 73.5734 220.138 83.1166 220.923 86.7402C222.554 94.2613 229.265 85.8458 232.779 84.5993C235.228 83.7301 250.909 84.1144 243.622 77.4094Z" fill="#F0EDFF"/>
<path d="M265.203 64.2005C264.117 60.1521 255.928 56.5131 252.271 58.5087C246.653 61.5733 253.502 65.2738 254.691 68.6877C255.591 71.2674 252.532 80.4445 257.724 79.8268C260.92 79.4467 265.976 67.0807 265.203 64.2005Z" fill="#F0EDFF"/>
<path d="M0.202281 149.387C-0.067427 149.387 -0.067427 149.806 0.202281 149.806C0.471989 149.806 0.471989 149.387 0.202281 149.387Z" fill="#F0EDFF"/>
<path d="M158.358 91.0142C155.896 88.0586 144.37 75.8812 139.919 77.9327C138.559 77.6769 138.297 78.7697 138.65 80.4956C138.783 84.6251 143.614 92.0008 145.125 93.9153C149.644 99.6421 156.064 107.232 163.201 105.545C169.847 103.974 159.324 92.1727 158.358 91.0142Z" fill="#F0EDFF"/>
<path d="M225.281 32.8221C223.965 33.1156 223.73 31.0306 225.037 30.7399C228.347 30.002 231.684 29.39 235.031 28.838C246.689 26.9137 269.882 21.8745 269.923 21.8242C267.848 21.5866 218.617 13.2774 213.975 12.6094C215.274 14.6385 221.831 23.4787 219.781 26.8885C218.196 31.1647 217.327 33.4789 216.194 36.8831C214.842 40.9455 224.729 36.9572 227.639 37.674C227.647 37.6754 227.656 37.6768 227.664 37.6782C230.023 41.408 232.435 45.1001 235.3 48.4763C235.755 49.013 236.59 48.8802 237.079 48.4763C246.706 40.5262 269.209 25.3387 271.256 24.0601C270.998 24.1132 237.123 30.1837 225.281 32.8221Z" fill="#CFF1FF"/>
<path d="M98.7169 26.1331C108.499 23.0587 138.684 25.5741 130.654 8.76275C129.433 6.20402 121.836 -0.375177 119.946 1.88171C120.064 1.73917 120.398 4.64167 120.275 5.03715C119.16 8.61602 116.722 9.70044 113.078 10.3754C106.237 11.6429 98.5003 9.65852 92.5681 14.2547C89.3693 16.7324 82.8754 28.1356 85.5752 32.8101C86.9014 35.1075 89.8249 32.5949 91.3677 33.5899C93.401 34.9021 92.2257 36.5357 93.3213 37.6592C94.6712 39.0427 94.8864 40.1886 96.0072 37.3266C98.4737 31.0213 95.9695 26.9967 98.7169 26.1331Z" fill="#CFF1FF"/>
<path d="M91.5409 47.2196C91.5256 47.2196 91.5102 47.2196 91.4948 47.2182C89.6404 47.0645 87.8 46.363 86.3145 45.2422C84.822 44.1159 83.7753 42.629 83.3687 41.0569C82.7272 38.5778 83.7236 35.7913 85.7932 34.282C87.8615 32.7728 90.8185 32.6722 92.9845 34.0389C93.2458 34.2038 93.3241 34.5489 93.1592 34.8103C92.9943 35.0716 92.6491 35.1498 92.3878 34.9849C90.6284 33.8754 88.1326 33.9592 86.4514 35.1862C84.7717 36.4131 83.9304 38.7637 84.4503 40.7788C84.7941 42.1078 85.6954 43.3766 86.9866 44.3521C88.3058 45.347 89.9395 45.9703 91.5857 46.1073C91.8931 46.1324 92.1223 46.4021 92.0971 46.711C92.072 46.9988 91.8288 47.2196 91.5409 47.2196Z" fill="#6308C0"/>
<path d="M90.4657 40.5499C90.3735 40.5499 90.2798 40.5276 90.1946 40.4787L87.4081 38.9261C87.1384 38.7766 87.0419 38.4356 87.1915 38.1659C87.341 37.8962 87.682 37.7998 87.9517 37.9493L90.7382 39.5018C91.0079 39.6514 91.1043 39.9923 90.9548 40.2621C90.8528 40.4451 90.6627 40.5499 90.4657 40.5499Z" fill="#6308C0"/>
<path d="M109.797 40.8047C109.778 40.8047 109.759 40.8033 109.74 40.8019C109.502 40.7782 109.307 40.6049 109.252 40.3715C109.036 39.4324 108.975 38.4696 109.072 37.5095C109.087 37.3572 109.163 37.2259 109.272 37.135C109.325 37.0442 109.403 36.9687 109.504 36.9184C109.78 36.7801 110.116 36.8933 110.253 37.17C110.766 38.1985 110.784 39.4352 110.304 40.4805C110.214 40.679 110.014 40.8047 109.797 40.8047Z" fill="#6308C0"/>
<path d="M105.258 33.4749C105.051 33.4749 104.851 33.3589 104.755 33.159C104.621 32.881 104.737 32.547 105.014 32.4128C107.322 31.2935 109.899 30.6926 112.463 30.6758C112.769 30.68 113.024 30.9217 113.027 31.2306C113.028 31.5394 112.781 31.7909 112.472 31.7937C110.071 31.8105 107.662 32.3723 105.501 33.419C105.423 33.4567 105.341 33.4749 105.258 33.4749Z" fill="#6308C0"/>
<path d="M118.02 46.9805C117.864 46.9805 117.707 46.9148 117.597 46.7877C117.395 46.5543 117.421 46.2007 117.654 45.9995L120.141 43.8488C120.327 43.6881 120.537 43.5065 120.607 43.3248C120.686 43.118 120.622 42.8189 120.55 42.552C120.287 41.5892 119.868 40.6836 119.422 39.7236C118.889 38.5749 118.337 37.3884 118.086 36.0958C117.859 34.9345 117.887 33.7648 117.914 32.6329C117.922 32.2821 117.934 31.8014 118.191 31.378C118.389 31.051 118.685 30.8358 118.975 30.6527C120.706 29.5613 122.785 28.9953 124.83 29.0596C125.139 29.0694 125.381 29.3265 125.371 29.6354C125.361 29.9442 125.101 30.186 124.795 30.1762C122.97 30.1203 121.114 30.6248 119.57 31.5988C119.408 31.7008 119.228 31.821 119.145 31.9565C119.043 32.1256 119.036 32.4093 119.031 32.6595C119.005 33.7313 118.979 34.8395 119.181 35.882C119.408 37.0405 119.907 38.1151 120.435 39.2526C120.879 40.2113 121.34 41.2021 121.627 42.2571C121.747 42.6973 121.844 43.2172 121.649 43.7245C121.479 44.1689 121.128 44.4721 120.871 44.6943L118.383 46.845C118.28 46.9358 118.15 46.9805 118.02 46.9805Z" fill="#6308C0"/>
<path d="M122.965 39.5746C122.953 39.5746 122.942 39.5746 122.93 39.5732C122.671 39.5578 122.457 39.3664 122.413 39.1106C122.27 38.2889 122.231 37.4519 122.297 36.6204C122.305 36.5184 122.34 36.4247 122.393 36.3465C122.404 36.1201 122.555 35.9133 122.784 35.842C123.079 35.7498 123.392 35.9147 123.484 36.2095C123.783 37.1654 123.788 38.2191 123.498 39.1777C123.427 39.4153 123.209 39.5746 122.965 39.5746Z" fill="#6308C0"/>
<path d="M117.127 51.4804C115.656 51.4804 114.184 51.261 112.773 50.825C112.478 50.7342 112.313 50.4212 112.404 50.1263C112.495 49.8314 112.808 49.6665 113.103 49.7574C115.29 50.4337 117.63 50.5455 119.872 50.0844C120.175 50.0215 120.47 50.2171 120.533 50.519C120.596 50.8208 120.4 51.1171 120.098 51.18C119.12 51.3798 118.124 51.4804 117.127 51.4804Z" fill="#6308C0"/>
<path d="M116.426 64.5727C115.084 64.5727 113.692 64.3953 112.291 64.0347C108.489 63.0565 105.11 60.9505 102.241 59.0528C101.984 58.8823 101.913 58.5358 102.083 58.2786C102.254 58.0215 102.6 57.9502 102.857 58.1207C105.649 59.9681 108.933 62.0168 112.569 62.9517C116.389 63.9341 120.113 63.4646 122.786 61.6632C125.24 60.0101 127.023 57.1062 127.806 53.4896C128.52 50.1972 128.376 46.7483 128.239 43.4125L127.388 22.8239C127.375 22.5151 127.614 22.2551 127.923 22.2426C128.232 22.2314 128.492 22.469 128.505 22.7778L129.356 43.3664C129.497 46.772 129.642 50.295 128.899 53.7271C128.053 57.6274 126.104 60.7745 123.411 62.5912C121.471 63.8992 119.042 64.5727 116.426 64.5727Z" fill="#6308C0"/>
<path d="M125.735 75.8794C125.459 75.8794 125.219 75.6754 125.181 75.3945C124.534 70.5845 124.332 65.6892 124.583 60.8428C124.599 60.534 124.864 60.2978 125.17 60.3132C125.479 60.3286 125.715 60.5913 125.7 60.9001C125.452 65.678 125.652 70.5034 126.289 75.245C126.33 75.551 126.116 75.8319 125.81 75.8738C125.784 75.878 125.758 75.8794 125.735 75.8794Z" fill="#6308C0"/>
<path d="M92.1191 74.5133C92.1149 74.5133 92.1107 74.5133 92.1065 74.5133C91.7976 74.5063 91.5531 74.2519 91.5587 73.9431C91.7375 65.4145 91.398 56.7866 90.5497 48.2985C90.519 47.9911 90.7426 47.7172 91.05 47.6864C91.3574 47.6557 91.6313 47.8793 91.6621 48.1867C92.5159 56.7195 92.8569 65.3935 92.6766 73.9669C92.6724 74.2715 92.4223 74.5133 92.1191 74.5133Z" fill="#6308C0"/>
<path d="M103.279 59.5176C105.011 62.3544 107.111 65.0683 109.94 66.8137C112.768 68.5591 116.44 69.2005 119.459 67.8087C120.457 67.3489 121.347 66.6907 122.222 66.0269C122.985 65.447 123.758 64.8419 124.259 64.0258C124.761 63.2096 124.944 62.1294 124.473 61.2951C121.836 63.9838 117.783 64.9774 114.049 64.4743C110.317 63.9712 106.876 62.1238 103.89 59.8278" fill="#6308C0"/>
<path d="M115.861 69.1189C113.786 69.1189 111.603 68.497 109.644 67.2882C107.151 65.7496 104.977 63.3726 102.801 59.8077C102.64 59.5435 102.723 59.1998 102.987 59.0391C103.251 58.8784 103.595 58.9608 103.755 59.2249C103.766 59.2417 103.776 59.2599 103.787 59.2766C103.938 59.2487 104.1 59.2822 104.232 59.3828C107.581 61.9583 110.91 63.4844 114.124 63.919C117.99 64.4402 121.71 63.3125 124.074 60.9033C124.197 60.7775 124.372 60.7174 124.547 60.7398C124.721 60.7621 124.874 60.8669 124.96 61.0193C125.493 61.9625 125.406 63.2272 124.735 64.3172C124.2 65.1864 123.434 65.8069 122.559 66.4707C121.636 67.1722 120.722 67.8416 119.692 68.3153C118.523 68.8548 117.215 69.1189 115.861 69.1189ZM105.266 61.5028C106.848 63.68 108.459 65.2437 110.231 66.3366C113.153 68.1407 116.599 68.5096 119.224 67.3008C120.152 66.8732 120.977 66.2681 121.882 65.5805C122.664 64.9852 123.347 64.436 123.781 63.7317C124.06 63.2775 124.197 62.7772 124.183 62.3259C121.576 64.5436 117.833 65.5484 113.973 65.0271C111.12 64.6414 108.198 63.4578 105.266 61.5028Z" fill="#6308C0"/>
<path d="M15.2159 202.482C15.1781 202.482 15.1404 202.478 15.1013 202.471C14.7994 202.408 14.6052 202.112 14.6681 201.81C18.4985 183.425 22.4589 164.414 27.2102 145.909C30.04 134.888 33.5742 122.164 39.7439 110.654C46.3315 98.3624 55.2095 89.0806 65.4151 83.8136C70.0169 81.4393 74.8045 79.6156 79.4343 77.852C83.1012 76.4546 86.5655 75.1354 89.9571 73.5619C90.2366 73.4319 90.5692 73.5535 90.6991 73.833C90.8291 74.1125 90.7075 74.4451 90.428 74.575C87.0015 76.1667 83.3569 77.5544 79.8326 78.8959C75.2322 80.6483 70.4752 82.4594 65.9293 84.8057C55.925 89.9693 47.2105 99.0891 40.7305 111.181C34.6209 122.582 31.1077 135.227 28.2946 146.186C23.5503 164.667 19.5927 183.664 15.7651 202.036C15.7078 202.301 15.4744 202.482 15.2159 202.482Z" fill="#6308C0"/>
<path d="M62.7467 139.921C62.4979 139.921 62.2715 139.755 62.2058 139.503C61.0921 135.233 59.4319 131.116 57.2728 127.267C57.1219 126.997 57.2169 126.658 57.4866 126.506C57.7564 126.353 58.0973 126.451 58.2483 126.719C60.4548 130.652 62.1499 134.857 63.2875 139.22C63.3657 139.519 63.1868 139.823 62.8878 139.902C62.8417 139.916 62.7942 139.921 62.7467 139.921Z" fill="#6308C0"/>
<path d="M55.4286 194.597C55.3937 194.597 55.3574 194.595 55.3224 194.588C55.0192 194.529 54.8207 194.236 54.8794 193.932C59.2507 171.275 63.5716 148.282 67.722 125.587C67.7779 125.284 68.0686 125.081 68.3718 125.139C68.6751 125.195 68.8763 125.485 68.8204 125.788C64.67 148.486 60.3476 171.484 55.9764 194.143C55.9247 194.412 55.6913 194.597 55.4286 194.597Z" fill="#6308C0"/>
<path d="M38.4499 193.246C38.3912 193.246 38.3311 193.236 38.2711 193.217C37.979 193.117 37.8211 192.8 37.9203 192.508C39.5888 187.56 43.2781 183.738 46.8458 180.041C49.8503 176.929 52.9569 173.71 54.8085 169.854C54.9426 169.576 55.2766 169.458 55.5547 169.593C55.8328 169.727 55.9502 170.061 55.816 170.339C53.8862 174.357 50.7153 177.642 47.6507 180.818C44.009 184.591 40.5685 188.156 38.9796 192.866C38.9013 193.099 38.6833 193.246 38.4499 193.246Z" fill="#6308C0"/>
<path d="M43.7111 192.649C43.651 192.649 43.5909 192.64 43.5308 192.619C43.2387 192.52 43.0822 192.201 43.1829 191.909C44.0353 189.41 45.1728 187.005 46.5633 184.761C46.7254 184.498 47.0706 184.417 47.3333 184.581C47.596 184.743 47.6771 185.088 47.5135 185.351C46.1678 187.524 45.0666 189.852 44.2407 192.271C44.1611 192.504 43.9445 192.649 43.7111 192.649Z" fill="#6308C0"/>
<path d="M110.98 82.5523C110.201 82.5523 109.419 82.5188 108.632 82.4517C103.229 81.9891 97.5837 79.9964 91.85 76.5293C91.5859 76.37 91.5006 76.0262 91.6613 75.7621C91.8207 75.498 92.1644 75.4127 92.4285 75.5735C98.0142 78.9511 103.498 80.8907 108.728 81.3393C114.844 81.8634 120.773 80.2409 124.996 76.8885C125.238 76.697 125.59 76.7375 125.781 76.9793C125.973 77.221 125.932 77.5732 125.691 77.7647C121.793 80.8572 116.53 82.5523 110.98 82.5523Z" fill="#6308C0"/>
<path d="M111.386 87.3124C106.182 87.3124 100.947 85.553 96.9353 82.269C96.6964 82.0733 96.6614 81.7212 96.8571 81.4822C97.0527 81.2432 97.4049 81.2083 97.6438 81.4039C103.151 85.9107 111.08 87.3962 117.845 85.1882C118.139 85.0932 118.455 85.2525 118.55 85.546C118.646 85.8394 118.485 86.1553 118.192 86.2503C116.002 86.9658 113.696 87.3124 111.386 87.3124Z" fill="#6308C0"/>
<path d="M144.807 201.339C144.783 201.339 144.759 201.338 144.734 201.335C144.428 201.296 144.212 201.015 144.251 200.709C145.303 192.534 146.836 184.241 148.319 176.221C151.789 157.452 155.376 138.044 152.99 118.948C152.953 118.642 153.169 118.363 153.475 118.325C153.783 118.286 154.061 118.504 154.098 118.81C156.506 138.078 152.902 157.572 149.417 176.425C147.937 184.43 146.407 192.707 145.359 200.853C145.325 201.134 145.085 201.339 144.807 201.339Z" fill="#6308C0"/>
<path d="M95.8225 170.265C95.5696 170.265 95.3404 170.092 95.2789 169.835C95.2076 169.535 95.3935 169.233 95.6939 169.161C107.522 166.351 119.676 165.249 131.815 165.883C132.124 165.9 132.36 166.162 132.345 166.47C132.328 166.779 132.065 167.015 131.758 167C119.724 166.369 107.678 167.463 95.9539 170.249C95.9091 170.261 95.8644 170.265 95.8225 170.265Z" fill="#6308C0"/>
<path d="M119.723 174.393C119.672 174.393 119.622 174.386 119.57 174.372C115.018 173.087 110.157 172.9 105.519 173.827C105.216 173.887 104.922 173.691 104.861 173.388C104.799 173.085 104.996 172.791 105.3 172.73C110.111 171.768 115.152 171.964 119.874 173.294C120.171 173.378 120.343 173.687 120.259 173.983C120.191 174.232 119.967 174.393 119.723 174.393Z" fill="#6308C0"/>
<path d="M83.2795 202.633C83.2376 202.633 83.1942 202.629 83.1509 202.618C80.595 202.018 78.1243 201.088 75.8073 199.852C75.5949 199.739 75.4789 199.502 75.5194 199.264C75.56 199.026 75.75 198.842 75.989 198.807C80.7487 198.106 85.6705 197.38 89.9956 195.144C90.1437 195.067 90.222 195.007 90.2625 194.97C90.2262 194.939 90.1591 194.894 90.0389 194.831C82.9455 191.109 74.449 190.7 66.9517 190.34C66.6428 190.325 66.4053 190.063 66.4206 189.754C66.436 189.446 66.6987 189.208 67.0062 189.223C74.6195 189.589 83.2473 190.003 90.5602 193.841C90.7782 193.955 91.3567 194.258 91.4098 194.879C91.4532 195.383 91.1513 195.805 90.5113 196.137C86.5635 198.18 82.209 198.997 77.9175 199.65C79.6796 200.456 81.5187 201.088 83.408 201.529C83.7085 201.599 83.8957 201.901 83.8245 202.201C83.763 202.46 83.5338 202.633 83.2795 202.633ZM90.3058 195.012H90.3072H90.3058Z" fill="#6308C0"/>
<path d="M176.883 137.435C176.613 137.435 176.376 137.239 176.331 136.964C173.616 119.971 169.194 107.424 162.419 97.4829C153.821 84.8667 140.974 76.8537 128.053 76.046C127.746 76.0264 127.511 75.7609 127.53 75.4535C127.55 75.146 127.816 74.9113 128.123 74.9308C141.386 75.7595 154.552 83.9556 163.343 96.854C170.214 106.937 174.692 119.625 177.435 136.788C177.484 137.092 177.275 137.379 176.971 137.428C176.941 137.433 176.912 137.435 176.883 137.435Z" fill="#6308C0"/>
<path d="M165.08 159.876C164.976 159.876 164.871 159.847 164.778 159.787C164.518 159.619 164.444 159.274 164.61 159.014L197.443 108.053C197.611 107.793 197.956 107.719 198.216 107.886C198.476 108.053 198.55 108.398 198.384 108.658L165.551 159.619C165.443 159.785 165.264 159.876 165.08 159.876Z" fill="#6308C0"/>
<path d="M224.96 130.883C224.813 130.883 224.668 130.826 224.557 130.713C215.273 121.08 206.512 110.756 198.519 100.026C198.334 99.7786 198.386 99.4279 198.633 99.2434C198.881 99.059 199.231 99.1107 199.416 99.358C207.38 110.05 216.11 120.339 225.362 129.937C225.576 130.159 225.571 130.513 225.348 130.728C225.239 130.831 225.1 130.883 224.96 130.883Z" fill="#6308C0"/>
<path d="M220.599 135.251C220.463 135.251 220.327 135.202 220.22 135.103C210.927 126.513 202.823 116.711 196.133 105.968C195.97 105.705 196.051 105.361 196.312 105.198C196.575 105.034 196.919 105.115 197.082 105.377C203.719 116.035 211.758 125.76 220.979 134.282C221.205 134.491 221.219 134.845 221.009 135.071C220.899 135.191 220.749 135.251 220.599 135.251Z" fill="#6308C0"/>
<path d="M176.209 190.592C173.259 190.592 170.143 190.03 166.992 188.906C161.265 186.863 156.236 183.368 151.372 179.988C151.12 179.812 151.057 179.464 151.233 179.209C151.409 178.957 151.757 178.894 152.011 179.07C156.814 182.408 161.782 185.861 167.368 187.853C173.568 190.065 179.602 190.01 184.359 187.702C189.34 185.286 192.765 180.55 195.725 175.791C204.171 162.212 210.341 147.166 216.306 132.614C216.424 132.329 216.749 132.192 217.036 132.31C217.321 132.427 217.458 132.753 217.34 133.039C211.357 147.633 205.169 162.725 196.674 176.382C193.626 181.283 190.083 186.169 184.847 188.709C182.262 189.964 179.33 190.592 176.209 190.592Z" fill="#6308C0"/>
<path d="M171.416 163.194C171.415 163.194 171.414 163.194 171.414 163.194C171.105 163.193 170.856 162.941 170.857 162.633C170.89 157.106 172.55 151.498 175.529 146.841C175.695 146.581 176.041 146.506 176.302 146.672C176.562 146.839 176.637 147.185 176.471 147.445C173.603 151.925 172.008 157.321 171.975 162.64C171.973 162.946 171.722 163.194 171.416 163.194Z" fill="#6308C0"/>
<path d="M58.8492 92.7855C58.7206 92.7855 58.592 92.7422 58.4872 92.6528C58.2524 92.453 58.2245 92.0994 58.4243 91.8646C59.8986 90.1332 61.6343 88.6617 63.5837 87.492C63.8478 87.3327 64.1916 87.4193 64.3509 87.6835C64.5102 87.9476 64.4236 88.2914 64.1595 88.4507C62.3148 89.5588 60.6714 90.9521 59.2754 92.5899C59.1636 92.7185 59.0071 92.7855 58.8492 92.7855Z" fill="#6308C0"/>
<path d="M203.514 102.261C203.387 102.261 203.258 102.218 203.153 102.128C202.917 101.929 202.888 101.576 203.088 101.34C205.143 98.9101 207.337 96.5442 209.605 94.3111C209.825 94.0945 210.18 94.0973 210.396 94.3167C210.613 94.5361 210.61 94.891 210.391 95.1076C208.145 97.3184 205.976 99.6578 203.942 102.063C203.831 102.194 203.673 102.261 203.514 102.261Z" fill="#6308C0"/>
<path d="M210.871 95.4518C210.654 95.4518 210.448 95.3247 210.357 95.1136C208.706 91.2734 208.291 86.7751 209.186 82.4471C210.08 78.1206 212.245 74.1561 215.283 71.2843C216.823 69.8282 218.572 68.6124 220.265 67.4371L231.166 59.863C233.148 58.4865 234.288 58.8442 234.896 59.385C235.371 59.8085 235.62 60.475 235.616 61.3121C235.609 62.7445 234.99 64.0441 234.323 65.2348C232.093 69.2147 228.997 72.781 225.371 75.5465C225.125 75.7338 224.774 75.6863 224.587 75.4417C224.4 75.1958 224.447 74.845 224.692 74.6578C228.198 71.983 231.191 68.5355 233.348 64.6884C233.942 63.6277 234.492 62.4846 234.498 61.3065C234.499 61.0173 234.456 60.4904 234.153 60.2193C233.566 59.6953 232.43 60.3465 231.805 60.7797L220.903 68.3539C219.245 69.5054 217.531 70.6974 216.051 72.0948C210.132 77.6916 208.17 87.1859 211.385 94.6706C211.507 94.9543 211.376 95.2827 211.092 95.4043C211.021 95.4364 210.945 95.4518 210.871 95.4518Z" fill="#6308C0"/>
<path d="M223.977 79.9571C223.889 79.9571 223.798 79.9361 223.714 79.8914C223.441 79.7461 223.338 79.4079 223.485 79.1354C224.192 77.8106 224.647 76.3195 224.801 74.8242C224.833 74.5168 225.104 74.2932 225.415 74.3253C225.722 74.3575 225.944 74.6314 225.913 74.9388C225.744 76.5766 225.245 78.2103 224.471 79.6622C224.371 79.8495 224.176 79.9571 223.977 79.9571Z" fill="#6308C0"/>
<path d="M240.267 75.2662C240.083 75.2662 239.905 75.1768 239.797 75.0119C239.629 74.7534 239.702 74.4068 239.96 74.2391L251.825 66.5224C253.59 65.3737 255.415 64.1872 256.719 62.5341C257.405 61.6648 257.948 60.4253 257.42 59.5505C257.093 59.0083 256.35 58.6799 255.532 58.719C254.743 58.7554 253.963 59.074 253.099 59.4569C245.612 62.7702 238.376 66.7753 231.593 71.3604C231.337 71.5336 230.989 71.4666 230.817 71.2108C230.644 70.9551 230.711 70.6071 230.966 70.4352C237.804 65.8139 245.099 61.7766 252.647 58.4367C253.616 58.0077 254.498 57.6486 255.482 57.6039C256.72 57.5466 257.834 58.072 258.379 58.9748C259.078 60.1318 258.786 61.7221 257.598 63.2286C256.179 65.0257 254.191 66.3198 252.436 67.4615L240.571 75.1782C240.476 75.2369 240.37 75.2662 240.267 75.2662Z" fill="#6308C0"/>
<path d="M261.143 74.6547C260.995 74.6547 260.848 74.596 260.738 74.4815C260.525 74.2579 260.534 73.9043 260.757 73.6919C261.437 73.0463 262.113 72.328 262.46 71.4644C262.803 70.6091 262.733 69.6826 262.279 69.1055C262.261 69.0817 262.242 69.0579 262.222 69.0342C262.077 68.8567 261.877 68.6122 261.843 68.2628C261.792 67.729 262.162 67.3405 262.341 67.1546L262.415 67.0764C263.038 66.4238 263.626 65.8089 264.027 65.0766C264.459 64.2857 264.577 63.4584 264.35 62.803C264.139 62.1965 263.467 61.6249 262.801 61.7409C262.497 61.794 262.207 61.59 262.153 61.2853C262.1 60.9807 262.304 60.6914 262.609 60.6383C263.758 60.4385 264.988 61.228 265.407 62.4354C265.738 63.3871 265.593 64.5456 265.01 65.6118C264.539 66.4727 263.871 67.1714 263.225 67.8478L263.151 67.926C263.024 68.0588 262.977 68.1272 262.963 68.1622C262.981 68.1929 263.046 68.2726 263.091 68.3271C263.115 68.3564 263.139 68.3858 263.162 68.4151C263.87 69.3151 264 70.6441 263.501 71.8822C263.073 72.9443 262.302 73.7688 261.532 74.501C261.42 74.6044 261.281 74.6547 261.143 74.6547Z" fill="#6308C0"/>
<path d="M244.236 80.7443C244.057 80.7443 243.883 80.659 243.774 80.4997C243.599 80.2454 243.665 79.8974 243.92 79.7228C249.338 76.0237 254.685 72.0731 259.813 67.9814C260.055 67.7885 260.407 67.8291 260.599 68.0694C260.792 68.3112 260.751 68.6619 260.511 68.8548C255.361 72.9633 249.991 76.9307 244.551 80.6451C244.454 80.7122 244.345 80.7443 244.236 80.7443Z" fill="#6308C0"/>
<path d="M246.814 84.1248C246.635 84.1248 246.457 84.0382 246.35 83.8789C246.176 83.6232 246.245 83.2752 246.501 83.1033C249.898 80.8087 253.404 78.577 256.919 76.4724C257.184 76.3131 257.527 76.3997 257.686 76.6653C257.844 76.9308 257.759 77.2732 257.493 77.4325C253.995 79.5272 250.507 81.7478 247.127 84.0312C247.03 84.0941 246.921 84.1248 246.814 84.1248Z" fill="#6308C0"/>
<path d="M226.591 104.582C226.322 104.582 226.085 104.388 226.041 104.113C225.99 103.808 226.197 103.52 226.502 103.471C230.341 102.845 234.142 100.721 238.465 96.7902C239.621 95.7393 240.76 94.6213 241.863 93.5397C244.104 91.3401 246.423 89.0651 249.033 87.1967C249.982 86.5161 250.984 85.8803 251.952 85.2654C254.018 83.9546 256.153 82.5977 257.792 80.7936C258.569 79.9383 259.44 78.6569 259.177 77.4047C259.113 77.1029 259.307 76.8066 259.609 76.7424C259.911 76.6795 260.207 76.8723 260.271 77.1742C260.556 78.5311 259.986 80.0417 258.62 81.544C256.878 83.4599 254.679 84.8573 252.552 86.2087C251.596 86.8152 250.608 87.4426 249.684 88.105C247.144 89.9231 244.857 92.1674 242.647 94.3377C241.537 95.4263 240.39 96.5526 239.219 97.6175C234.729 101.701 230.745 103.912 226.684 104.574C226.651 104.58 226.622 104.582 226.591 104.582Z" fill="#6308C0"/>
<path d="M221.022 124.819C220.929 124.819 220.834 124.795 220.746 124.744C220.477 124.592 220.384 124.25 220.536 123.981C223.971 117.95 227.216 111.713 230.184 105.441C230.317 105.162 230.649 105.043 230.929 105.175C231.208 105.307 231.327 105.64 231.196 105.919C228.216 112.216 224.957 118.48 221.509 124.535C221.407 124.718 221.218 124.819 221.022 124.819Z" fill="#6308C0"/>
<path d="M223.769 90.2509C223.611 90.2509 223.453 90.1838 223.342 90.0539C223.142 89.8191 223.17 89.4655 223.405 89.2657C226.776 86.394 231.059 84.5745 235.467 84.1413C235.774 84.1119 236.048 84.3355 236.077 84.6429C236.108 84.9504 235.883 85.2243 235.576 85.2536C231.394 85.6645 227.329 87.3917 224.13 90.1154C224.026 90.2062 223.897 90.2509 223.769 90.2509Z" fill="#6308C0"/>
<path d="M246.711 85.3056C246.516 85.3056 246.326 85.2036 246.224 85.0205C243.874 80.8393 240.99 76.9754 237.65 73.5349C237.435 73.3141 237.441 72.9591 237.661 72.7439C237.882 72.5287 238.237 72.5343 238.452 72.7551C241.861 76.2641 244.802 80.2063 247.199 84.4713C247.35 84.741 247.255 85.0806 246.985 85.2329C246.898 85.2832 246.803 85.3056 246.711 85.3056Z" fill="#6308C0"/>
<path d="M54.3781 74.5714C54.3571 74.5714 54.3362 74.5714 54.3152 74.5686C53.9631 74.5448 53.6472 74.317 53.4893 73.9747C53.3314 73.6323 53.3649 73.2452 53.576 72.9615C53.7604 72.7142 54.1098 72.6625 54.3585 72.8469C54.3851 72.8665 54.4088 72.8875 54.4298 72.9098C54.4536 72.8903 54.4801 72.8721 54.5095 72.8567C54.7806 72.7086 55.1201 72.8064 55.2683 73.0775C55.4374 73.3863 55.4178 73.7762 55.2152 74.0935C55.0237 74.3925 54.7079 74.5714 54.3781 74.5714Z" fill="#6308C0"/>
<path d="M136.48 70.2479C136.109 70.2479 135.786 69.9908 135.678 69.6079C135.571 69.2236 135.712 68.8351 136.032 68.6409C136.172 68.557 136.332 68.5402 136.478 68.5822C136.622 68.5388 136.784 68.5542 136.923 68.6367C137.245 68.8281 137.39 69.2152 137.285 69.5995C137.18 69.9838 136.859 70.2451 136.485 70.2465C136.483 70.2479 136.482 70.2479 136.48 70.2479ZM136.35 69.5995C136.352 69.5995 136.352 69.5995 136.35 69.5995C136.352 69.5995 136.352 69.5995 136.35 69.5995ZM136.612 69.5981C136.612 69.5981 136.61 69.5981 136.612 69.5981C136.61 69.5981 136.612 69.5981 136.612 69.5981Z" fill="#6308C0"/>
<path d="M185.721 88.8378C185.693 88.8378 185.665 88.8364 185.636 88.835C185.172 88.8029 184.793 88.5178 184.67 88.1097C184.547 87.7003 184.705 87.2531 185.073 86.9708C185.44 86.6871 185.914 86.6494 186.277 86.8744C186.512 87.0197 186.601 87.309 186.504 87.5563C186.723 87.7072 186.808 87.9993 186.694 88.2495C186.524 88.6128 186.149 88.8378 185.721 88.8378Z" fill="#6308C0"/>
<path d="M159.31 196.164C159.185 196.164 159.057 196.136 158.931 196.077C158.608 195.926 158.303 195.563 158.348 195.158C158.38 194.87 158.575 194.645 158.864 194.561C158.788 194.309 158.899 194.033 159.14 193.905C159.414 193.763 159.751 193.868 159.895 194.142C160.388 195.083 160.162 195.624 159.887 195.914C159.73 196.078 159.525 196.164 159.31 196.164Z" fill="#6308C0"/>
<path d="M238.824 122.015C238.417 122.015 237.984 121.689 237.886 121.298C237.801 120.951 237.983 120.61 238.329 120.469C238.602 120.359 238.91 120.477 239.039 120.736C239.325 120.771 239.542 121.022 239.528 121.316C239.511 121.69 239.251 121.975 238.895 122.01C238.873 122.015 238.848 122.015 238.824 122.015Z" fill="#6308C0"/>
<path d="M152.79 116.282C152.635 116.282 152.481 116.218 152.37 116.093C151.968 115.638 151.82 114.991 151.983 114.405C152.066 114.107 152.375 113.934 152.672 114.017C152.97 114.099 153.143 114.408 153.061 114.706C152.999 114.924 153.059 115.183 153.209 115.353C153.413 115.585 153.391 115.937 153.16 116.142C153.054 116.236 152.921 116.282 152.79 116.282Z" fill="#6308C0"/>
<path d="M120.448 85.6759C120.268 85.6759 120.091 85.5879 119.983 85.4272C119.811 85.1701 119.881 84.8235 120.138 84.6516L121.013 84.0689C121.27 83.897 121.617 83.9669 121.788 84.224C121.96 84.4811 121.89 84.8277 121.633 84.9996L120.759 85.5823C120.662 85.6452 120.555 85.6759 120.448 85.6759Z" fill="#6308C0"/>
<path d="M135.019 166.985H134.436C134.127 166.985 133.877 166.735 133.877 166.426C133.877 166.117 134.127 165.867 134.436 165.867H135.019C135.328 165.867 135.578 166.117 135.578 166.426C135.578 166.735 135.328 166.985 135.019 166.985Z" fill="#6308C0"/>
<path d="M56.3422 125.252C56.0333 125.252 55.7832 125.001 55.7832 124.693V124.366C55.7832 124.057 56.0333 123.807 56.3422 123.807C56.651 123.807 56.9012 124.057 56.9012 124.366V124.693C56.9012 125.001 56.651 125.252 56.3422 125.252Z" fill="#6308C0"/>
<path d="M24.6768 178.208C24.6139 178.208 24.5496 178.197 24.4867 178.174C24.196 178.069 24.0465 177.749 24.1499 177.459L25.0974 174.833C25.2022 174.542 25.5222 174.391 25.8129 174.496C26.1036 174.601 26.2531 174.921 26.1497 175.212L25.2022 177.837C25.1198 178.065 24.9059 178.208 24.6768 178.208Z" fill="#6308C0"/>
<path d="M94.3789 40.3355C94.2727 40.3355 94.1861 40.3146 94.1288 40.295C93.7417 40.1636 93.6075 39.7891 93.5642 39.6661C93.1869 38.6027 93.001 37.4917 93.0122 36.3626C93.015 36.0551 93.2651 35.8092 93.5712 35.8092C93.5726 35.8092 93.5754 35.8092 93.5768 35.8092C93.8856 35.812 94.1329 36.0649 94.1302 36.3738C94.1218 37.2318 94.2419 38.08 94.4893 38.8989C95.2844 37.6608 95.5178 36.0607 95.6464 34.5026C95.8616 31.8963 95.8728 29.2523 95.6785 26.6461C95.6562 26.3387 95.8868 26.0704 96.1942 26.0466C96.5002 26.0228 96.7699 26.2548 96.7937 26.5623C96.9921 29.2272 96.9795 31.9299 96.7601 34.5934C96.6064 36.452 96.3074 38.3777 95.1657 39.88C94.8862 40.2489 94.5941 40.3355 94.3789 40.3355Z" fill="#24BDFF"/>
<path d="M85.0596 33.7055C84.7871 33.7055 84.5481 33.5057 84.5076 33.2276C83.7502 28.0361 84.3595 23.0374 86.2712 18.7724C88.3897 14.0448 92.1475 10.3248 96.5788 8.56262C99.287 7.48659 102.398 7.02403 106.371 7.10648C106.97 7.11905 107.588 7.14142 108.186 7.16238C112.107 7.30212 116.16 7.44606 119.113 5.18918C119.359 5.00192 119.709 5.04803 119.897 5.29398C120.084 5.53854 120.038 5.8907 119.792 6.07796C116.52 8.57939 112.262 8.42707 108.145 8.28034C107.552 8.25938 106.938 8.23701 106.347 8.22444C102.529 8.14478 99.5553 8.58219 96.991 9.60093C92.8266 11.2555 89.2911 14.7645 87.2899 19.228C85.4648 23.2987 84.8849 28.0836 85.613 33.0655C85.6577 33.3716 85.4467 33.6552 85.1406 33.7C85.1141 33.7041 85.0875 33.7055 85.0596 33.7055Z" fill="#24BDFF"/>
<path d="M98.6815 26.7312C98.4537 26.7312 98.2399 26.5914 98.1574 26.3651C98.0512 26.0758 98.1993 25.7544 98.4886 25.6482C102.842 24.0481 107.53 23.7057 112.063 23.3759C114.032 23.232 116.069 23.0838 118.04 22.8337C120.441 22.5291 123.532 21.984 126.143 20.4524C128.745 18.9264 130.507 16.5326 130.858 14.0493C131.232 11.3984 130.037 8.41201 127.662 6.05871C125.465 3.88428 122.637 2.4463 119.9 1.05723C119.625 0.917487 119.516 0.580701 119.656 0.305404C119.796 0.0301058 120.132 -0.0788953 120.408 0.0608497C123.221 1.49044 126.129 2.96755 128.449 5.26496C131.074 7.86421 132.389 11.2069 131.965 14.2058C131.566 17.0245 129.601 19.7202 126.707 21.4167C123.922 23.0517 120.687 23.6247 118.179 23.9433C116.176 24.1962 114.126 24.3457 112.142 24.4911C107.685 24.8153 103.078 25.1507 98.8715 26.6976C98.81 26.72 98.7457 26.7312 98.6815 26.7312Z" fill="#24BDFF"/>
<path d="M120.455 3.93486C120.409 3.93486 120.361 3.92926 120.314 3.91669C120.015 3.83843 119.836 3.53379 119.914 3.23474C120.111 2.48011 119.91 1.6095 119.403 1.01698C119.201 0.782207 119.228 0.430052 119.463 0.228819C119.698 0.0275858 120.05 0.0541364 120.251 0.288908C121.001 1.16371 121.288 2.40185 120.996 3.51702C120.93 3.76856 120.704 3.93486 120.455 3.93486Z" fill="#24BDFF"/>
<path d="M95.6646 22.1545C95.4187 22.1545 95.1923 21.991 95.1252 21.7423C95.0441 21.4446 95.2202 21.1372 95.5179 21.0561C96.4709 20.7976 97.4506 20.5489 98.3994 20.3085C103.335 19.0564 108.439 17.761 112.238 14.4909C113.833 13.1186 114.779 11.6834 115.05 10.2245C115.106 9.92127 115.398 9.72003 115.703 9.77733C116.006 9.83322 116.206 10.1253 116.15 10.4299C115.83 12.1446 114.759 13.7964 112.968 15.3378C108.968 18.7797 103.735 20.1073 98.6747 21.3915C97.7314 21.6305 96.7546 21.8778 95.8113 22.135C95.761 22.149 95.7121 22.1545 95.6646 22.1545Z" fill="#24BDFF"/>
<path d="M109.717 19.9045C109.49 19.9045 109.276 19.7648 109.193 19.5398C109.086 19.2505 109.234 18.9291 109.525 18.8215C113.386 17.3947 116.821 14.7577 119.196 11.3969C119.653 10.7512 120.102 9.99382 119.968 9.28112C119.91 8.97788 120.112 8.68581 120.415 8.62851C120.718 8.57262 121.01 8.77245 121.067 9.0757C121.278 10.2048 120.666 11.2543 120.109 12.0425C117.605 15.5864 113.982 18.3673 109.912 19.871C109.847 19.8934 109.782 19.9045 109.717 19.9045Z" fill="#24BDFF"/>
<path d="M120.053 16.249C119.873 16.249 119.697 16.1624 119.589 16.0017C119.417 15.7459 119.484 15.398 119.742 15.2261C121.329 14.1598 122.592 12.6785 123.397 10.9443C123.527 10.6648 123.86 10.5432 124.139 10.6732C124.419 10.8032 124.54 11.1358 124.41 11.4152C123.519 13.3353 122.12 14.9732 120.363 16.154C120.27 16.2183 120.161 16.249 120.053 16.249Z" fill="#24BDFF"/>
<path d="M92.8725 31.2644C92.8292 31.2644 92.7859 31.2588 92.7425 31.249C92.4421 31.1777 92.2576 30.8759 92.3289 30.5754C92.6294 29.3205 92.519 27.9748 92.0187 26.7841C91.8985 26.4991 92.0326 26.1721 92.3177 26.0519C92.6028 25.9317 92.9298 26.0659 93.05 26.3509C93.6425 27.7582 93.7725 29.3513 93.4175 30.8354C93.3546 31.0911 93.1255 31.2644 92.8725 31.2644Z" fill="#24BDFF"/>
<path d="M174.788 59.2269C172.683 59.2269 170.575 59.1067 168.47 58.8635C168.164 58.8286 167.943 58.5505 167.978 58.2445C168.013 57.9384 168.29 57.7176 168.597 57.7526C174.676 58.4513 180.784 58.1187 186.753 56.7632C192.284 55.5069 196.661 53.4736 199.819 50.6982C199.277 50.7108 198.774 50.6913 198.31 50.6493C196.015 50.4397 193.533 49.2198 193.16 46.9657C192.914 45.4746 193.726 43.8466 195.181 42.9131C196.268 42.2157 197.666 41.8706 199.453 41.8594C199.47 41.8594 199.488 41.8594 199.505 41.8594C201.748 41.8594 204.169 42.7887 204.562 44.8751C204.825 46.2683 204.037 47.5582 203.422 48.4078C203.237 48.6622 203.046 48.9123 202.847 49.1583C205.456 48.5084 208.616 47.0048 212.166 43.922C212.399 43.7194 212.751 43.7445 212.954 43.9779C213.156 44.2113 213.131 44.5634 212.898 44.7661C208.503 48.5839 204.639 50.0904 201.612 50.5417C198.253 53.9571 193.352 56.411 187 57.8532C182.976 58.7685 178.888 59.2269 174.788 59.2269ZM199.505 42.9773C199.489 42.9773 199.475 42.9773 199.46 42.9773C197.891 42.9871 196.687 43.2736 195.785 43.8535C194.717 44.5383 194.092 45.7429 194.264 46.7826C194.54 48.4484 196.546 49.3651 198.412 49.5342C199.185 49.604 200.076 49.6068 201.077 49.4853C201.599 48.9319 202.079 48.3533 202.516 47.7496C203.302 46.6666 203.602 45.8184 203.464 45.0805C203.338 44.4097 202.87 43.8773 202.073 43.4986C201.375 43.1674 200.441 42.9773 199.505 42.9773Z" fill="#24BDFF"/>
<path d="M163.855 64.1504C163.216 64.1504 162.579 64.1378 161.943 64.1141C161.635 64.1029 161.394 63.843 161.407 63.5341C161.418 63.2253 161.682 62.9863 161.987 62.9961C168.732 63.2518 175.63 62.1143 181.935 59.7051C182.223 59.5947 182.547 59.7386 182.656 60.0279C182.767 60.3158 182.621 60.64 182.334 60.749C176.484 62.9849 170.134 64.1504 163.855 64.1504Z" fill="#24BDFF"/>
<path d="M235.045 49.9965C235.006 49.9965 234.967 49.9923 234.928 49.9839C234.775 49.9504 234.643 49.8553 234.564 49.7212L227.419 37.6025L215.851 39.5072C215.609 39.5477 215.373 39.4276 215.263 39.211C215.152 38.9944 215.193 38.7316 215.365 38.5597L223.604 30.3204C223.681 30.2407 223.783 30.1834 223.9 30.1611L275.466 20.3789C275.725 20.33 275.983 20.4684 276.085 20.7101C276.187 20.9519 276.108 21.2342 275.893 21.3851L235.366 49.8931C235.271 49.9615 235.158 49.9965 235.045 49.9965ZM224.89 31.1127L235.218 48.6312L273.133 21.9608L224.89 31.1127ZM223.889 31.6172L217.384 38.1223L226.81 36.5698L223.889 31.6172Z" fill="#24BDFF"/>
<path d="M215.759 39.516C215.702 39.516 215.643 39.5076 215.586 39.488C215.293 39.3916 215.132 39.0758 215.228 38.7823L220.041 24.07L211.506 9.61475C211.394 9.42609 211.404 9.18992 211.528 9.01105C211.652 8.83218 211.872 8.74134 212.087 8.78047L275.671 20.3793C275.949 20.4296 276.146 20.6812 276.128 20.9634C276.11 21.2457 275.883 21.4707 275.601 21.4861L221.063 24.5395L216.29 39.1289C216.214 39.3665 215.994 39.516 215.759 39.516ZM213.089 10.1011L220.958 23.4271L270.837 20.635L213.089 10.1011Z" fill="#24BDFF"/>
</svg>
