<svg width="109" height="32" viewBox="0 0 109 32" fill="none" xmlns="http://www.w3.org/2000/svg">
<g clip-path="url(#clip0)">
<path fill-rule="evenodd" clip-rule="evenodd" d="M104.427 32H4.01796C1.80349 32 0 30.1965 0 28V4C0 1.79551 1.80349 0 4.01796 0H104.427C106.639 0 108.445 1.79551 108.445 4V28C108.445 30.1965 106.639 32 104.427 32Z" fill="black"/>
<path fill-rule="evenodd" clip-rule="evenodd" d="M104.427 0.640399C106.284 0.640399 107.804 2.15062 107.804 4V28C107.804 29.8494 106.294 31.3596 104.427 31.3596H4.01796C2.1606 31.3596 0.640399 29.8494 0.640399 28V4C0.640399 2.15062 2.15062 0.640399 4.01796 0.640399H104.427ZM104.427 0H4.01796C1.80349 0 0 1.80349 0 4V28C0 30.2045 1.80349 32 4.01796 32H104.427C106.639 32 108.445 30.2045 108.445 28V4C108.445 1.80349 106.639 0 104.427 0Z" fill="#A6A6A6"/>
<path d="M57.129 10.5855C56.4048 10.5855 55.7943 10.3322 55.3115 9.83342C54.8327 9.34864 54.5654 8.68031 54.5774 7.99801C54.5774 7.26983 54.8248 6.65337 55.3115 6.1646C55.7923 5.66584 56.4028 5.41248 57.127 5.41248C57.8432 5.41248 58.4537 5.66584 58.9444 6.1646C59.4312 6.66933 59.6786 7.28579 59.6786 7.99801C59.6706 8.72819 59.4232 9.34465 58.9444 9.83143C58.4636 10.3342 57.8532 10.5855 57.129 10.5855ZM35.581 10.5855C34.8728 10.5855 34.2583 10.3362 33.7556 9.8434C33.2568 9.35263 33.0035 8.73218 33.0035 8.00001C33.0035 7.26784 33.2568 6.64739 33.7556 6.15662C34.2484 5.66385 34.8628 5.41447 35.581 5.41447C35.9321 5.41447 36.2733 5.4843 36.6005 5.62594C36.9217 5.7636 37.183 5.95113 37.3765 6.18056L37.4244 6.23841L36.8837 6.76908L36.8279 6.70325C36.5227 6.34016 36.1137 6.1626 35.573 6.1626C35.0902 6.1626 34.6693 6.33417 34.3222 6.67332C33.973 7.01447 33.7955 7.46135 33.7955 8.002C33.7955 8.54265 33.973 8.98953 34.3222 9.33068C34.6693 9.66983 35.0902 9.8414 35.573 9.8414C36.0877 9.8414 36.5207 9.66983 36.8578 9.33068C37.0573 9.13118 37.181 8.85188 37.2249 8.49876H35.4912V7.75263H37.969L37.979 7.82046C37.997 7.94614 38.0149 8.07582 38.0149 8.19552C38.0149 8.8838 37.8074 9.44041 37.3965 9.85138C36.9296 10.3382 36.3192 10.5855 35.581 10.5855ZM64.2312 10.4798H63.4671L61.127 6.73517L61.1469 7.40948V10.4778H60.3828V5.52021H61.2546L61.2786 5.55811L63.4791 9.08529L63.4591 8.41298V5.52021H64.2312V10.4798ZM51.3874 10.4798H50.6133V6.26634H49.2707V5.52021H52.728V6.26634H51.3854V10.4798H51.3874ZM48.6403 10.4798H47.8682V5.52021H48.6403V10.4798ZM44.3011 10.4798H43.5291V6.26634H42.1865V5.52021H45.6438V6.26634H44.3011V10.4798ZM41.6977 10.4718H38.7371V5.52021H41.6977V6.26634H39.5112V7.62694H41.4842V8.36509H39.5112V9.72569H41.6977V10.4718ZM55.8781 9.32071C56.2232 9.66584 56.6422 9.83941 57.129 9.83941C57.6297 9.83941 58.0387 9.66983 58.3798 9.32071C58.719 8.98155 58.8906 8.53667 58.8906 8.00001C58.8906 7.46335 58.719 7.01647 58.3818 6.67931C58.0367 6.33417 57.6158 6.16061 57.131 6.16061C56.6302 6.16061 56.2213 6.33018 55.8821 6.67931C55.543 7.01846 55.3714 7.46335 55.3714 8.00001C55.3714 8.53667 55.541 8.98355 55.8781 9.32071Z" fill="white"/>
<path fill-rule="evenodd" clip-rule="evenodd" d="M54.5057 17.4045C52.6204 17.4045 51.0922 18.8349 51.0922 20.808C51.0922 22.7631 52.6303 24.2115 54.5057 24.2115C56.3909 24.2115 57.9191 22.7711 57.9191 20.808C57.9191 18.8349 56.3909 17.4045 54.5057 17.4045ZM54.5057 22.8628C53.4742 22.8628 52.5864 22.009 52.5864 20.8C52.5864 19.573 53.4762 18.7371 54.5057 18.7371C55.5371 18.7371 56.4249 19.573 56.4249 20.8C56.4269 22.0169 55.5371 22.8628 54.5057 22.8628ZM47.0583 17.4045C45.173 17.4045 43.6448 18.8349 43.6448 20.808C43.6448 22.7631 45.1829 24.2115 47.0583 24.2115C48.9435 24.2115 50.4717 22.7711 50.4717 20.808C50.4717 18.8349 48.9416 17.4045 47.0583 17.4045ZM47.0583 22.8628C46.0268 22.8628 45.1391 22.009 45.1391 20.8C45.1391 19.573 46.0288 18.7371 47.0583 18.7371C48.0897 18.7371 48.9775 19.573 48.9775 20.8C48.9775 22.0169 48.0897 22.8628 47.0583 22.8628ZM38.1964 18.4439V19.8843H41.6538C41.548 20.6922 41.2807 21.2888 40.8717 21.6977C40.365 22.2045 39.5829 22.7551 38.2044 22.7551C36.0797 22.7551 34.4178 21.0394 34.4178 18.9147C34.4178 16.79 36.0797 15.0743 38.2044 15.0743C39.3515 15.0743 40.1874 15.5272 40.8079 16.1057L41.8293 15.0843C40.9675 14.2583 39.8203 13.6259 38.2124 13.6259C35.2976 13.6259 32.8517 16 32.8517 18.9067C32.8517 21.8214 35.2956 24.1875 38.2124 24.1875C39.7864 24.1875 40.9675 23.6728 41.9011 22.7032C42.8528 21.7516 43.154 20.409 43.154 19.3257C43.154 18.9885 43.1281 18.6853 43.0742 18.4279H38.1944C38.1964 18.4259 38.1964 18.4439 38.1964 18.4439ZM74.4438 19.5651C74.1586 18.801 73.2967 17.3965 71.5291 17.3965C69.7775 17.3965 68.3211 18.775 68.3211 20.8C68.3211 22.7112 69.7615 24.2035 71.6987 24.2035C73.2548 24.2035 74.1605 23.2519 74.5336 22.6932L73.3785 21.9192C72.9955 22.4878 72.4628 22.8608 71.7067 22.8608C70.9426 22.8608 70.4079 22.5137 70.0528 21.8294L74.6034 19.9441C74.6034 19.9461 74.4438 19.5651 74.4438 19.5651ZM69.8034 20.7022C69.7675 19.3875 70.8249 18.7192 71.581 18.7192C72.1775 18.7192 72.6743 19.0124 72.8438 19.4394L69.8034 20.7022ZM66.1067 24H67.6009V14.001H66.1067V24ZM63.6528 18.1606H63.5989C63.2618 17.7596 62.6214 17.3965 61.8034 17.3965C60.1057 17.3965 58.5416 18.8908 58.5416 20.81C58.5416 22.7212 60.0977 24.1975 61.8034 24.1975C62.6114 24.1975 63.2618 23.8324 63.5989 23.4234H63.6528V23.9122C63.6528 25.211 62.9585 25.9112 61.8393 25.9112C60.9236 25.9112 60.355 25.2528 60.1236 24.7022L58.8249 25.2449C59.1979 26.1426 60.1934 27.2538 61.8373 27.2538C63.589 27.2538 65.0733 26.2224 65.0733 23.7067V17.6H63.6608V18.1606C63.6628 18.1606 63.6528 18.1606 63.6528 18.1606ZM61.9371 22.8628C60.9057 22.8628 60.0438 22.001 60.0438 20.81C60.0438 19.609 60.9057 18.7391 61.9371 18.7391C62.9585 18.7391 63.7506 19.6189 63.7506 20.81C63.7605 22.001 62.9605 22.8628 61.9371 22.8628ZM81.4404 14.001H77.8673V24H79.3616V20.2134H81.4424C83.0962 20.2134 84.7222 19.0144 84.7222 17.1112C84.7222 15.208 83.1022 14.001 81.4404 14.001ZM81.4843 18.8169H79.3596V15.3855H81.4843C82.6035 15.3855 83.2359 16.3092 83.2359 17.1012C83.2359 17.8853 82.5955 18.8169 81.4843 18.8169ZM90.7112 17.3865C89.6259 17.3865 88.5067 17.8673 88.0439 18.9147L89.3686 19.4653C89.6538 18.9147 90.1765 18.7272 90.7292 18.7272C91.5032 18.7272 92.2853 19.19 92.3032 20.0159V20.1217C92.0359 19.9701 91.4494 19.7386 90.7471 19.7386C89.3167 19.7386 87.8663 20.5207 87.8663 21.987C87.8663 23.3297 89.0394 24.1915 90.3461 24.1915C91.3496 24.1915 91.9022 23.7386 92.2474 23.2139H92.3012V23.988H93.7416V20.1576C93.7416 18.374 92.4169 17.3865 90.7112 17.3865ZM90.5237 22.8628C90.0349 22.8628 89.3506 22.6234 89.3506 22.009C89.3506 21.2349 90.2045 20.9416 90.9326 20.9416C91.591 20.9416 91.9022 21.0833 92.2933 21.2788C92.1855 22.1765 91.4274 22.8548 90.5237 22.8628ZM98.9965 17.6L97.2808 21.9371H97.2269L95.4494 17.6H93.8414L96.5087 23.6628L94.9885 27.0324H96.5446L100.648 17.6H98.9965ZM85.5461 24H87.0404V14.001H85.5461V24Z" fill="white"/>
<path fill-rule="evenodd" clip-rule="evenodd" d="M8.34705 6.02689C8.11563 6.27626 7.98196 6.65731 7.98196 7.15607V24.8458C7.98196 25.3446 8.11563 25.7256 8.35503 25.965L8.41688 26.0189L18.3281 16.1077V15.8862L8.4089 5.97302L8.34705 6.02689Z" fill="url(#paint0_linear)"/>
<path fill-rule="evenodd" clip-rule="evenodd" d="M21.6258 19.4214L18.3201 16.1157V15.8843L21.6258 12.5786L21.6976 12.6224L25.6079 14.8449C26.7271 15.4753 26.7271 16.5167 25.6079 17.1551L21.6976 19.3776L21.6258 19.4214Z" fill="url(#paint1_linear)"/>
<path fill-rule="evenodd" clip-rule="evenodd" d="M21.6979 19.3776L18.3203 16L8.34723 25.9731C8.71232 26.3641 9.32479 26.408 10.0091 26.0269L21.6979 19.3776Z" fill="url(#paint2_linear)"/>
<path fill-rule="evenodd" clip-rule="evenodd" d="M21.6979 12.6225L10.0091 5.98305C9.32479 5.59203 8.71032 5.6459 8.34723 6.03692L18.3203 16L21.6979 12.6225Z" fill="url(#paint3_linear)"/>
<path opacity="0.2" fill-rule="evenodd" clip-rule="evenodd" d="M21.6259 19.3058L10.0169 25.9013C9.36848 26.2743 8.78993 26.2484 8.41686 25.9092L8.35501 25.9711L8.41686 26.025C8.78993 26.3621 9.36848 26.39 10.0169 26.017L21.7057 19.3776L21.6259 19.3058Z" fill="black"/>
<path opacity="0.12" fill-rule="evenodd" clip-rule="evenodd" d="M25.608 17.0394L21.616 19.3057L21.6878 19.3776L25.598 17.1551C26.1586 16.8359 26.4339 16.417 26.4339 16C26.4 16.383 26.1147 16.7461 25.608 17.0394Z" fill="black"/>
<path opacity="0.25" fill-rule="evenodd" clip-rule="evenodd" d="M10.0089 6.09877L25.6079 14.9606C26.1146 15.2459 26.3999 15.619 26.4438 16C26.4438 15.5831 26.1685 15.1641 25.6079 14.8449L10.0089 5.98306C8.88969 5.34266 7.98196 5.87732 7.98196 7.15613V7.27184C7.98196 5.99104 8.88969 5.46635 10.0089 6.09877Z" fill="white"/>
</g>
<defs>
<linearGradient id="paint0_linear" x1="17.4391" y1="6.96521" x2="1.56301" y2="11.1954" gradientUnits="userSpaceOnUse">
<stop stop-color="#00A0FF"/>
<stop offset="0.00657" stop-color="#00A1FF"/>
<stop offset="0.2601" stop-color="#00BEFF"/>
<stop offset="0.5122" stop-color="#00D2FF"/>
<stop offset="0.7604" stop-color="#00DFFF"/>
<stop offset="1" stop-color="#00E3FF"/>
</linearGradient>
<linearGradient id="paint1_linear" x1="27.0675" y1="16" x2="7.70982" y2="16" gradientUnits="userSpaceOnUse">
<stop stop-color="#FFE000"/>
<stop offset="0.4087" stop-color="#FFBD00"/>
<stop offset="0.7754" stop-color="#FFA500"/>
<stop offset="1" stop-color="#FF9C00"/>
</linearGradient>
<linearGradient id="paint2_linear" x1="19.8613" y1="17.8379" x2="7.11605" y2="39.2892" gradientUnits="userSpaceOnUse">
<stop stop-color="#FF3A44"/>
<stop offset="1" stop-color="#C31162"/>
</linearGradient>
<linearGradient id="paint3_linear" x1="5.8359" y1="0.143044" x2="11.5221" y2="9.72352" gradientUnits="userSpaceOnUse">
<stop stop-color="#32A071"/>
<stop offset="0.0685" stop-color="#2DA771"/>
<stop offset="0.4762" stop-color="#15CF74"/>
<stop offset="0.8009" stop-color="#06E775"/>
<stop offset="1" stop-color="#00F076"/>
</linearGradient>
<clipPath id="clip0">
<rect width="108.445" height="32" fill="white"/>
</clipPath>
</defs>
</svg>
