<svg width="156" height="23" viewBox="0 0 156 23" fill="none" xmlns="http://www.w3.org/2000/svg">
<path d="M9.25554 0.0400391C9.85671 0.12258 10.4634 0.166601 11.0618 0.276655C13.0056 0.63433 14.8312 1.28915 16.4132 2.5025C18.5427 4.13542 19.8028 6.30073 20.2183 8.94203C20.5239 10.74 20.4409 12.5825 19.9748 14.3457C19.5495 15.9242 18.7274 17.3677 17.5866 18.5387C15.9991 20.1785 14.0319 21.1236 11.8253 21.612C10.529 21.8905 9.20572 22.0243 7.87987 22.0109C5.25324 22.0036 2.62662 22.0036 0 22.0109C0 14.7657 0 7.5205 0 0.275279C0 0.0868119 0.0426459 0.0441662 0.229738 0.0455419C3.23605 0.046459 6.24465 0.0446246 9.25554 0.0400391ZM4.44893 11.0276V17.9555C4.44893 18.287 4.44893 18.2884 4.78597 18.2897C5.91128 18.2897 7.03658 18.2897 8.16188 18.2897C9.04465 18.2904 9.92359 18.1738 10.7757 17.9431C12.9919 17.3254 14.468 15.9236 15.1283 13.7239C15.7304 11.7849 15.6547 9.69873 14.9137 7.80847C14.4199 6.49951 13.4763 5.40908 12.2518 4.73247C11.1409 4.10979 9.89195 3.77496 8.6186 3.75849C7.34335 3.72685 6.06673 3.74611 4.79148 3.74473C4.44756 3.74473 4.44343 3.74473 4.44343 4.0969L4.44893 11.0276Z" fill="white"/>
<path d="M48.7995 0.0395966C48.7995 1.14839 48.7995 2.25718 48.7995 3.36598C48.7995 3.69752 48.7995 3.70439 48.4666 3.70439H43.3642C42.9515 3.70439 42.9515 3.70439 42.9515 4.13223V21.5854C42.9515 22.0077 42.9515 22.0077 42.5236 22.0077H39.0198C38.5782 22.0077 38.5782 22.0077 38.5782 21.5758V4.14599C38.5782 3.65762 38.6153 3.70577 38.1311 3.70439H33.1058C32.7275 3.70439 32.7247 3.70439 32.7261 3.31508C32.7261 2.22279 32.7307 1.13097 32.7398 0.0395966H48.7995Z" fill="white"/>
<path d="M55.3906 12.766V9.11358C55.3906 8.78479 55.3906 8.78342 55.7276 8.78342H59.0774C59.4529 8.78342 59.4529 8.78342 59.4529 9.15347C59.4529 11.4215 59.4529 13.6895 59.4529 15.9576C59.4448 16.3575 59.4817 16.7572 59.563 17.1489C59.7955 18.1669 60.5425 18.8176 61.5866 18.8877C61.9104 18.9183 62.2367 18.9123 62.5592 18.8699C63.7395 18.6869 64.3036 17.9908 64.4934 16.7733C64.537 16.4428 64.5544 16.1093 64.5457 15.776C64.5457 13.5666 64.5457 11.3573 64.5457 9.14797C64.5457 8.78479 64.5457 8.78479 64.902 8.78479C66.0355 8.78479 67.1691 8.78479 68.3026 8.78479C68.5434 8.78479 68.6204 8.85908 68.619 9.09845C68.619 11.4371 68.619 13.7689 68.6067 16.1034C68.6164 17.0987 68.4294 18.086 68.0564 19.0088C67.4442 20.4643 66.3299 21.3915 64.8648 21.8702C62.8618 22.525 60.8396 22.5237 58.8586 21.7739C56.8391 21.009 55.7895 19.4669 55.4868 17.3718C55.4085 16.7933 55.374 16.2097 55.3837 15.626C55.3947 14.6672 55.3906 13.7166 55.3906 12.766Z" fill="white"/>
<path d="M70.108 20.1094C70.108 19.6678 70.108 19.2248 70.108 18.7833C70.108 18.592 70.1644 18.5301 70.3597 18.5948C72.0271 19.1451 73.748 19.2923 75.491 19.2386C75.8827 19.2281 76.2719 19.1722 76.6507 19.0721C77.2794 18.9029 77.5408 18.5425 77.5174 17.9097C77.5159 17.7587 77.4731 17.6111 77.3935 17.4827C77.314 17.3544 77.2007 17.2504 77.0661 17.182C76.6012 16.9068 76.0839 16.8202 75.5529 16.7693C74.4675 16.6496 73.3766 16.5423 72.3572 16.1158C71.0311 15.5656 70.2937 14.5764 70.1905 13.1169C70.1504 12.6187 70.1753 12.1174 70.2648 11.6256C70.5056 10.3669 71.2759 9.54285 72.4232 9.03247C73.294 8.64591 74.2226 8.54136 75.1553 8.50009C76.9962 8.41539 78.8408 8.52699 80.658 8.833C80.8671 8.86739 80.9332 8.95131 80.9332 9.15766C80.9249 9.98306 80.9249 10.8085 80.9332 11.6339C80.9332 11.8554 80.8713 11.909 80.658 11.8471C79.1448 11.4605 77.5958 11.3973 76.0413 11.4743C75.5731 11.4859 75.1116 11.5877 74.6821 11.7742C74.5649 11.818 74.4614 11.892 74.3819 11.9886C74.3025 12.0852 74.2499 12.201 74.2295 12.3245C74.1717 12.7055 74.2749 12.8967 74.6422 13.0852C75.1925 13.3603 75.7854 13.4346 76.3769 13.5351C77.3468 13.7001 78.3235 13.8473 79.2328 14.2422C80.68 14.8722 81.4339 15.9934 81.4807 17.5768C81.4986 18.2124 81.4807 18.8452 81.2702 19.456C80.9112 20.5249 80.1807 21.2443 79.1668 21.7011C78.3891 22.0289 77.5598 22.2175 76.7167 22.2582C74.9031 22.3883 73.0803 22.2903 71.2911 21.9666C70.9802 21.9129 70.6775 21.8166 70.3666 21.752C70.3249 21.7507 70.2839 21.7404 70.2465 21.7218C70.2091 21.7032 70.1762 21.6767 70.1501 21.6441C70.1239 21.6116 70.1052 21.5737 70.095 21.5332C70.0849 21.4927 70.0837 21.4504 70.0915 21.4094C70.1176 20.9761 70.108 20.5427 70.108 20.1094Z" fill="white"/>
<path d="M86.8902 14.461C86.9136 15.1887 86.8448 16.0733 86.937 16.9551C86.9961 17.5218 87.1433 18.0556 87.5739 18.4683C87.7419 18.6318 87.9519 18.7456 88.1806 18.7971C88.8358 18.9369 89.5156 18.9095 90.1574 18.7173C90.4628 18.6293 90.4766 18.6389 90.4779 18.9677C90.4779 19.7669 90.4779 20.5676 90.4779 21.3682C90.4901 21.4536 90.4681 21.5403 90.4165 21.6094C90.3649 21.6785 90.2881 21.7243 90.2028 21.7369C89.3756 21.9711 88.5134 22.0558 87.6564 21.9873C86.9455 21.9629 86.2456 21.8052 85.5929 21.5223C84.48 20.9982 83.8169 20.0957 83.462 18.9443C83.1917 18.0318 83.0587 17.0841 83.0672 16.1324C83.0507 12.7551 83.0672 9.37785 83.0548 6.00194C83.0548 5.76808 83.136 5.69792 83.3588 5.70067C84.4332 5.70067 85.509 5.70892 86.5848 5.70067C86.8324 5.70067 86.8957 5.79422 86.8916 6.02533C86.8806 6.81772 86.8916 7.61011 86.8916 8.4025C86.8916 8.78906 86.8916 8.78906 87.2671 8.78906C87.9178 8.78906 88.5685 8.79731 89.2178 8.78906C89.4503 8.78906 89.5452 8.84821 89.5411 9.09721C89.5287 9.92262 89.5315 10.748 89.5411 11.5734C89.5411 11.799 89.471 11.8802 89.2398 11.8761C88.552 11.8637 87.8559 11.8761 87.1639 11.8678C86.9576 11.8678 86.8888 11.9325 86.8888 12.143C86.8971 12.8542 86.8902 13.5805 86.8902 14.461Z" fill="white"/>
<path d="M22.4025 17.9536C22.4025 16.7788 22.3805 15.6026 22.4025 14.4278C22.4314 13.2213 22.6652 12.0506 23.3173 11.0133C24.1317 9.71469 25.3712 9.0241 26.8294 8.68981C27.8888 8.45304 28.981 8.40092 30.0581 8.53574C30.1957 8.55225 30.2672 8.61278 30.2672 8.75722C30.2672 9.833 30.2672 10.9088 30.2672 11.9846C30.2672 12.1785 30.1613 12.173 30.021 12.151C29.5265 12.067 29.022 12.0605 28.5256 12.1318C27.4113 12.3051 26.6313 13.136 26.4731 14.2585C26.433 14.5558 26.4141 14.8555 26.4167 15.1555C26.4167 17.3236 26.4167 19.4916 26.4167 21.6597C26.4167 22.0022 26.4167 22.0077 26.0673 22.0077C24.9502 22.0077 23.8318 22.0077 22.7148 22.0077C22.463 22.0077 22.386 21.9293 22.3873 21.6776C22.3984 20.4395 22.3873 19.1931 22.3873 17.9495L22.4025 17.9536Z" fill="white"/>
<path d="M46.01 17.9648C46.01 16.7968 45.9894 15.6261 46.0169 14.4623C46.043 13.3177 46.2562 12.2048 46.8271 11.1937C47.5838 9.8538 48.7957 9.11919 50.2429 8.74088C51.3611 8.46006 52.5218 8.39008 53.6656 8.53453C53.8225 8.55241 53.883 8.61844 53.883 8.77252C53.883 9.84004 53.883 10.9076 53.883 11.9751C53.883 12.1869 53.7688 12.1704 53.6202 12.1484C53.126 12.0661 52.6219 12.0615 52.1262 12.1347C50.9968 12.3218 50.2416 13.1458 50.0847 14.2986C50.0483 14.5796 50.0304 14.8627 50.0311 15.146C50.0311 17.3141 50.0311 19.4821 50.0311 21.6502C50.0311 22.0065 50.0311 22.0079 49.6652 22.0079H46.3635C46.0086 22.0079 46.0072 22.0079 46.0072 21.642V17.9648H46.01Z" fill="white"/>
<path d="M107.198 9.03795C109.07 9.28222 110.556 9.91325 111.656 10.931C112.775 11.9488 113.335 13.2719 113.335 14.9004C113.335 16.2439 112.979 17.4449 112.266 18.5034C111.574 19.5415 110.577 20.3558 109.274 20.9461C107.991 21.516 106.485 21.801 104.755 21.801C103.269 21.801 101.783 21.5771 100.297 21.1293C98.8314 20.6611 97.5897 20.0504 96.5719 19.2973L98.4345 15.7248C99.3097 16.4576 100.256 17.0174 101.274 17.4042C102.292 17.7909 103.33 17.9843 104.389 17.9843C105.732 17.9843 106.77 17.7197 107.503 17.1904C108.236 16.6408 108.602 15.8877 108.602 14.9309C108.602 13.9742 108.236 13.2516 107.503 12.7631C106.77 12.2542 105.722 11.9997 104.358 11.9997H100.908V9.25169L106.251 4.09151H97.6711L97.6406 0.183201H112.266V3.0839L106.098 8.88529L107.198 9.03795Z" fill="white"/>
<path d="M129.996 5.12965C129.365 4.70218 128.652 4.37649 127.858 4.15257C127.085 3.9083 126.291 3.78617 125.477 3.78617C123.685 3.78617 122.342 4.35613 121.446 5.49605C120.551 6.61562 120.123 8.17283 120.164 10.1677C120.714 9.33311 121.436 8.70208 122.332 8.27461C123.227 7.82679 124.276 7.60287 125.477 7.60287C127.573 7.60287 129.232 8.2339 130.454 9.49596C131.695 10.7377 132.316 12.4068 132.316 14.5035C132.316 15.9894 131.991 17.282 131.339 18.3812C130.708 19.4805 129.813 20.3252 128.652 20.9155C127.492 21.5059 126.138 21.801 124.591 21.801C122.739 21.801 121.141 21.3837 119.797 20.5491C118.454 19.6942 117.426 18.483 116.714 16.9156C116.001 15.3279 115.645 13.445 115.645 11.2669C115.645 9.00742 116.032 7.03291 116.805 5.34339C117.599 3.6335 118.708 2.32055 120.133 1.40455C121.579 0.468182 123.258 0 125.171 0C126.311 0 127.482 0.152668 128.683 0.458004C129.904 0.76334 130.952 1.18063 131.828 1.70988L129.996 5.12965ZM124.5 11.1753C123.339 11.1753 122.423 11.501 121.752 12.1524C121.08 12.7834 120.754 13.5875 120.775 14.5645C120.754 15.4805 121.049 16.2642 121.66 16.9156C122.291 17.5467 123.197 17.8622 124.378 17.8622C125.477 17.8622 126.342 17.567 126.973 16.9767C127.624 16.3864 127.95 15.5518 127.95 14.4729C127.95 13.4552 127.645 12.6511 127.034 12.0608C126.423 11.4705 125.579 11.1753 124.5 11.1753Z" fill="white"/>
<path d="M155.172 6.79478C156.098 9.05217 156.252 11.5715 155.608 13.9326C154.965 16.2937 153.562 18.354 151.635 19.7698C149.707 21.1857 147.371 21.8715 145.016 21.7131C142.661 21.5546 140.43 20.5614 138.694 18.899C136.958 17.2366 135.822 15.0056 135.476 12.5779C135.13 10.1501 135.595 7.67248 136.793 5.55801C137.991 3.44354 139.85 1.82005 142.059 0.958245C144.269 0.0964422 146.696 0.0484134 148.935 0.822164L148.308 2.78463C146.5 2.16 144.541 2.19877 142.758 2.89449C140.974 3.5902 139.473 4.90082 138.506 6.60779C137.539 8.31476 137.164 10.3149 137.443 12.2748C137.722 14.2346 138.639 16.0357 140.041 17.3777C141.442 18.7197 143.243 19.5215 145.145 19.6494C147.046 19.7774 148.931 19.2237 150.487 18.0807C152.044 16.9377 153.176 15.2745 153.696 13.3684C154.215 11.4623 154.091 9.42856 153.343 7.60621L155.172 6.79478Z" fill="white"/>
<path d="M152.269 8.44419C152.82 10.0333 152.842 11.774 152.332 13.3782C151.821 14.9823 150.808 16.3537 149.461 17.2651C148.113 18.1765 146.513 18.5734 144.923 18.3899C143.334 18.2065 141.851 17.4537 140.721 16.2564C139.591 15.059 138.881 13.4888 138.708 11.8058C138.536 10.1228 138.912 8.42799 139.773 7.00194C140.635 5.5759 141.931 4.50419 143.446 3.9643C144.961 3.4244 146.605 3.44869 148.106 4.03316L147.442 5.9421C146.353 5.51767 145.159 5.50003 144.058 5.89209C142.958 6.28416 142.017 7.06243 141.391 8.09801C140.766 9.1336 140.493 10.3644 140.618 11.5866C140.743 12.8087 141.259 13.949 142.08 14.8185C142.9 15.688 143.977 16.2347 145.131 16.3679C146.286 16.5011 147.448 16.2129 148.426 15.551C149.405 14.8892 150.14 13.8933 150.511 12.7284C150.882 11.5635 150.866 10.2993 150.466 9.14536L152.269 8.44419Z" fill="white"/>
<path d="M142.245 11.0051C142.245 8.95369 143.816 7.29073 145.753 7.29073C147.691 7.29073 149.261 8.95369 149.261 11.0051C149.261 13.0564 147.691 14.7194 145.753 14.7194C143.816 14.7194 142.245 13.0564 142.245 11.0051ZM147.602 11.0051C147.602 9.9239 146.774 9.04745 145.753 9.04745C144.732 9.04745 143.904 9.9239 143.904 11.0051C143.904 12.0862 144.732 12.9627 145.753 12.9627C146.774 12.9627 147.602 12.0862 147.602 11.0051Z" fill="white"/>
<path d="M153.757 2.99683C153.62 2.84752 153.456 2.72838 153.275 2.64627C153.093 2.56415 152.898 2.52068 152.701 2.51834C152.328 2.51429 151.966 2.6583 151.689 2.92185C151.417 2.65219 151.059 2.50024 150.685 2.49612C150.488 2.49415 150.292 2.53344 150.109 2.61172C149.925 2.69001 149.758 2.80573 149.618 2.95224C149.017 3.57455 149.007 4.55814 149.594 5.19088L151.639 7.39778L153.733 5.23653C154.334 4.61689 154.345 3.6333 153.757 2.99683Z" fill="white"/>
</svg>
