<svg width="207" height="30" viewBox="0 0 207 30" fill="none" xmlns="http://www.w3.org/2000/svg">
<path fill-rule="evenodd" clip-rule="evenodd" d="M169.629 5.50913C170.682 5.80619 171.627 6.23828 172.464 6.8054L174.895 2.26847C173.734 1.56632 172.343 1.01271 170.723 0.607624C169.129 0.202541 167.576 0 166.064 0C163.526 0 161.298 0.621128 159.38 1.86338C157.49 3.07863 156.018 4.82049 154.965 7.08896C153.939 9.33042 153.426 11.95 153.426 14.9476C153.426 17.8372 153.898 20.3352 154.843 22.4416C155.788 24.521 157.152 26.1279 158.935 27.2621C160.717 28.3693 162.837 28.9229 165.294 28.9229C167.347 28.9229 169.143 28.5314 170.682 27.7482C172.221 26.965 173.41 25.8443 174.247 24.386C175.111 22.9277 175.543 21.2129 175.543 19.2415C175.543 16.4599 174.719 14.2454 173.072 12.5981C171.452 10.9237 169.251 10.0866 166.469 10.0866C164.876 10.0866 163.485 10.3836 162.297 10.9778C161.109 11.5449 160.15 12.382 159.421 13.4893C159.367 10.8427 159.934 8.7768 161.122 7.2915C162.31 5.77919 164.093 5.02303 166.469 5.02303C167.549 5.02303 168.603 5.18507 169.629 5.50913ZM161.527 16.1223C162.418 15.2581 163.634 14.826 165.173 14.826C166.604 14.826 167.725 15.2176 168.535 16.0008C169.345 16.784 169.75 17.8507 169.75 19.2009C169.75 20.6322 169.318 21.7395 168.454 22.5226C167.617 23.3058 166.469 23.6974 165.011 23.6974C163.445 23.6974 162.243 23.2788 161.406 22.4416C160.595 21.5774 160.204 20.5377 160.231 19.3225C160.204 18.0262 160.636 16.9595 161.527 16.1223ZM148.133 14.502C146.675 13.1517 144.703 12.3145 142.219 11.9905L140.76 11.7879L148.943 4.09134V0.243049H129.54L129.58 5.42812H140.963L133.874 12.274V15.9198H138.451C140.261 15.9198 141.652 16.2573 142.624 16.9325C143.596 17.5806 144.082 18.5393 144.082 19.8086C144.082 21.0778 143.596 22.077 142.624 22.8062C141.652 23.5083 140.274 23.8594 138.492 23.8594C137.088 23.8594 135.71 23.6029 134.36 23.0897C133.01 22.5766 131.754 21.834 130.593 20.8618L128.122 25.6013C129.472 26.6005 131.119 27.4106 133.064 28.0318C135.035 28.6259 137.007 28.9229 138.978 28.9229C141.273 28.9229 143.272 28.5449 144.973 27.7887C146.702 27.0056 148.025 25.9253 148.943 24.548C149.888 23.1438 150.361 21.5504 150.361 19.7681C150.361 17.6076 149.618 15.8523 148.133 14.502ZM13.1638 0.158954C12.8685 0.125504 12.5733 0.0920631 12.2791 0.0516683C8.28464 0.0577519 4.29319 0.0601856 0.304788 0.0589688C0.0565775 0.0571438 0 0.113721 0 0.363757V29.2C3.48468 29.1903 6.96937 29.1903 10.4541 29.2C12.213 29.2177 13.9685 29.0402 15.6884 28.6707C18.6158 28.0228 21.2257 26.769 23.3318 24.5935C24.8452 23.0399 25.9359 21.1249 26.5002 19.0307C27.1185 16.6915 27.2286 14.247 26.8232 11.8618C26.272 8.3576 24.6002 5.48493 21.775 3.31856C19.6762 1.70884 17.2543 0.840102 14.6755 0.365582C14.1744 0.273435 13.669 0.216181 13.1638 0.158954ZM5.90231 23.8197V14.6286L5.89501 5.43383C5.89501 4.96661 5.90048 4.96661 6.35675 4.96661C6.84424 4.96713 7.33188 4.96538 7.81958 4.96363H7.81973H7.81988H7.82002H7.82017H7.82032H7.82047H7.82062H7.82077H7.82092H7.82107C9.02547 4.95931 10.2303 4.95499 11.4341 4.98486C13.1234 5.00672 14.7804 5.45093 16.2542 6.27701C17.8787 7.17467 19.1306 8.62132 19.7857 10.3579C20.7688 12.8657 20.8692 15.6333 20.0704 18.2057C19.1944 21.124 17.236 22.9838 14.2958 23.8032C13.1654 24.1094 11.9993 24.2641 10.8282 24.2632H6.34945C5.90231 24.2613 5.90231 24.2595 5.90231 23.8197ZM64.7408 4.46556V0.0525173H43.4348C43.4227 1.50041 43.4166 2.94892 43.4166 4.39803C43.4148 4.91453 43.4184 4.91453 43.9203 4.91453H50.5873C50.6451 4.91469 50.6973 4.91432 50.7444 4.91399H50.7445H50.7446H50.7447H50.7447H50.7448C50.9607 4.91246 51.0704 4.91169 51.1258 4.96614C51.183 5.02239 51.1824 5.13754 51.181 5.37162C51.1807 5.41107 51.1805 5.45389 51.1805 5.50038V28.6241C51.1805 29.1972 51.1805 29.1972 51.7663 29.1972H56.4148C56.9824 29.1972 56.9824 29.1972 56.9824 28.6369V5.48213C56.9824 4.91453 56.9824 4.91453 57.5299 4.91453H64.2991C64.7408 4.91453 64.7408 4.9054 64.7408 4.46556ZM73.4872 16.9371V12.0915C73.4872 11.6553 73.4872 11.6535 73.9343 11.6535H78.3784C78.8766 11.6535 78.8766 11.6535 78.8766 12.1444V21.1713C78.8658 21.7019 78.9148 22.2321 79.0226 22.7518C79.3311 24.1024 80.3221 24.9656 81.7073 25.0587C82.137 25.0992 82.5698 25.0912 82.9977 25.035C84.5636 24.7922 85.3119 23.8688 85.5637 22.2536C85.6215 21.815 85.6447 21.3726 85.6331 20.9304V12.1371C85.6331 11.8947 85.6331 11.7742 85.6933 11.7144C85.7528 11.6553 85.8709 11.6553 86.1058 11.6553H90.6174C90.9368 11.6553 91.039 11.7539 91.0371 12.0714C91.0371 15.1741 91.0371 18.2676 91.0207 21.3647C91.0337 22.6851 90.7856 23.9951 90.2907 25.2193C89.4785 27.1502 88.0002 28.3803 86.0565 29.0155C83.3992 29.8842 80.7163 29.8824 78.0882 28.8877C75.409 27.873 74.0164 25.8271 73.6149 23.0475C73.5109 22.28 73.4652 21.5058 73.478 20.7314C73.4895 19.7322 73.4886 18.7397 73.4877 17.7486V17.7471V17.7468V17.7465C73.4874 17.4766 73.4872 17.2069 73.4872 16.9371ZM93.0108 24.9176V26.6769C93.0108 26.7989 93.0113 26.9209 93.0119 27.0429C93.014 27.4958 93.0162 27.9487 92.9889 28.4016C92.9785 28.4561 92.9802 28.5121 92.9936 28.5659C93.007 28.6196 93.0319 28.6698 93.0666 28.713C93.1013 28.7562 93.145 28.7914 93.1945 28.8161C93.2441 28.8408 93.2985 28.8544 93.3539 28.8561C93.5312 28.893 93.7065 28.9376 93.8815 28.9822C94.1136 29.0413 94.3452 29.1002 94.5803 29.1408C96.9541 29.5703 99.3723 29.7003 101.778 29.5277C102.897 29.4737 103.997 29.2235 105.029 28.7886C106.374 28.1826 107.343 27.2281 107.819 25.81C108.099 24.9997 108.122 24.1602 108.099 23.317C108.037 21.2163 107.036 19.7289 105.117 18.893C103.993 18.4051 102.791 18.2022 101.592 17.9997L101.328 17.9549C101.239 17.9399 101.151 17.9253 101.063 17.9108C100.367 17.7961 99.6741 17.682 99.0262 17.3581C98.5389 17.1081 98.402 16.8544 98.4787 16.3488C98.5057 16.1851 98.5755 16.0314 98.6809 15.9032C98.7863 15.775 98.9237 15.6769 99.0791 15.6188C99.649 15.3714 100.261 15.2363 100.882 15.2209C102.945 15.1187 105 15.2027 107.007 15.7155C107.29 15.7977 107.372 15.7265 107.372 15.4326C107.361 14.3376 107.361 13.2425 107.372 12.1475C107.372 11.8737 107.285 11.7624 107.007 11.7168C104.596 11.3108 102.149 11.1627 99.707 11.2751C98.4696 11.3299 97.2376 11.4686 96.0824 11.9814C94.5603 12.6585 93.5382 13.7517 93.2188 15.4217C93.1001 16.0741 93.067 16.7391 93.1203 17.4001C93.2572 19.3365 94.2354 20.6487 95.9948 21.3787C97.2955 21.9229 98.684 22.0754 100.069 22.2275L100.234 22.2457C100.939 22.3132 101.625 22.4282 102.242 22.7932C102.421 22.884 102.571 23.022 102.676 23.1922C102.782 23.3624 102.839 23.5584 102.841 23.7586C102.872 24.5982 102.525 25.0764 101.691 25.3008C101.188 25.4336 100.672 25.5077 100.152 25.5217C97.8399 25.5929 95.5567 25.3976 93.3448 24.6675C93.0856 24.5818 93.0108 24.6639 93.0108 24.9176ZM115.276 20.2948V20.2952V20.2953C115.268 20.9922 115.258 21.7432 115.337 22.4927C115.415 23.2447 115.61 23.9528 116.182 24.5003C116.405 24.7172 116.683 24.8682 116.987 24.9365C117.856 25.122 118.758 25.0856 119.609 24.8307C120.014 24.7138 120.033 24.7266 120.034 25.1628V28.3476C120.051 28.4608 120.021 28.5758 119.953 28.6675C119.884 28.7592 119.783 28.82 119.669 28.8367C118.572 29.1473 117.428 29.2598 116.291 29.1689C115.348 29.1365 114.419 28.9273 113.554 28.552C112.077 27.8566 111.197 26.6594 110.727 25.1318C110.368 23.9211 110.191 22.6639 110.203 21.4013C110.191 19.0118 110.192 16.6223 110.193 14.2331C110.193 12.1422 110.194 10.0516 110.186 7.96144C110.186 7.65118 110.294 7.5581 110.59 7.56175C111.065 7.56175 111.54 7.56297 112.015 7.56419C112.966 7.56662 113.918 7.56905 114.869 7.56175C115.198 7.56175 115.282 7.68586 115.276 7.99247C115.267 8.6933 115.27 9.39413 115.273 10.095C115.275 10.4454 115.276 10.7958 115.276 11.1462C115.276 11.6591 115.276 11.6591 115.775 11.6591C116.062 11.6591 116.35 11.6603 116.638 11.6615C117.213 11.6639 117.788 11.6664 118.363 11.6591C118.671 11.6591 118.797 11.7375 118.792 12.0679C118.775 13.1629 118.779 14.258 118.792 15.353C118.792 15.6523 118.698 15.76 118.392 15.7545C117.894 15.7456 117.393 15.7464 116.892 15.7472C116.474 15.7479 116.055 15.7486 115.638 15.7436C115.364 15.7436 115.273 15.8294 115.273 16.1086C115.28 16.7446 115.278 17.3897 115.276 18.1004C115.276 18.4441 115.275 18.8031 115.275 19.1839C115.286 19.5299 115.281 19.9027 115.276 20.2924V20.2928V20.2932V20.2936V20.294V20.2944V20.2948ZM29.7178 22.2612V22.2614V22.2616V22.2618V22.262V22.2622V22.2624C29.7211 22.7817 29.7243 23.301 29.7243 23.82L29.7042 23.8146C29.7042 24.3647 29.7059 24.9152 29.7075 25.4655V25.4659C29.7107 26.5661 29.714 27.6658 29.7042 28.7605C29.7024 29.0945 29.8046 29.1986 30.1386 29.1986H34.5863C35.0499 29.1986 35.0499 29.1913 35.0499 28.7368V20.1078C35.0465 19.7099 35.0715 19.3122 35.1247 18.9179C35.3346 17.4286 36.3694 16.3263 37.8478 16.0963C38.5064 16.0017 39.1757 16.0103 39.8316 16.1219C40.0178 16.1511 40.1583 16.1584 40.1583 15.901V11.6194C40.1583 11.4278 40.0634 11.3475 39.8809 11.3256C38.4519 11.1467 37.0028 11.2158 35.5974 11.53C33.6628 11.9735 32.0184 12.8896 30.938 14.6125C30.0729 15.9886 29.7626 17.5418 29.7243 19.1424C29.7049 20.1815 29.7113 21.2214 29.7178 22.261V22.261V22.2611V22.2611V22.2611V22.2611V22.2612ZM61.0409 23.8337C61.0409 23.3688 61.0384 22.9036 61.036 22.4385V22.4384V22.4384V22.4383V22.4383V22.4382C61.0302 21.353 61.0245 20.2678 61.05 19.1871C61.0847 17.6686 61.3676 16.1921 62.125 14.8507C63.1288 13.0731 64.7367 12.0985 66.6567 11.5966C68.1401 11.224 69.68 11.1312 71.1974 11.3228C71.4055 11.3465 71.4858 11.4341 71.4858 11.6385V15.8873C71.4858 16.1684 71.3343 16.1465 71.1372 16.1173C70.4815 16.0081 69.8128 16.0019 69.1552 16.099C67.6568 16.3472 66.6548 17.4405 66.4468 18.9699C66.3985 19.3427 66.3747 19.7182 66.3756 20.0941V28.7231C66.3756 29.1958 66.3756 29.1976 65.8901 29.1976H61.5099C61.0391 29.1976 61.0372 29.1976 61.0372 28.7122V23.8337H61.0409ZM205.864 9.01207C207.092 12.0069 207.296 15.3492 206.442 18.4817C205.588 21.6141 203.727 24.3474 201.17 26.2258C198.613 28.1042 195.514 29.0141 192.39 28.8039C189.265 28.5936 186.305 27.2759 184.002 25.0705C181.699 22.8651 180.192 19.9052 179.733 16.6844C179.274 13.4636 179.891 10.1765 181.48 7.37128C183.07 4.56605 185.536 2.4122 188.467 1.26887C191.398 0.125533 194.618 0.0618131 197.589 1.08833L196.757 3.6919C194.359 2.86321 191.76 2.91465 189.393 3.83764C187.027 4.76063 185.036 6.49939 183.753 8.764C182.47 11.0286 181.972 13.6822 182.343 16.2823C182.713 18.8824 183.929 21.2718 185.789 23.0522C187.648 24.8326 190.038 25.8964 192.56 26.0661C195.082 26.2358 197.584 25.5012 199.648 23.9849C201.713 22.4685 203.215 20.262 203.904 17.7332C204.594 15.2044 204.429 12.5063 203.437 10.0886L205.864 9.01207ZM202.095 17.7448C202.773 15.6166 202.743 13.3072 202.012 11.199L199.62 12.1292C200.151 13.6602 200.172 15.3373 199.68 16.8827C199.188 18.4282 198.212 19.7494 196.914 20.6275C195.616 21.5056 194.074 21.8879 192.542 21.7112C191.011 21.5344 189.583 20.8092 188.494 19.6557C187.405 18.5021 186.721 16.9893 186.555 15.3679C186.389 13.7465 186.751 12.1136 187.581 10.7397C188.411 9.36583 189.659 8.33333 191.119 7.81318C192.579 7.29302 194.163 7.31643 195.608 7.87952L196.488 5.34696C194.498 4.57156 192.317 4.53933 190.306 5.2556C188.296 5.97188 186.577 7.39368 185.434 9.28559C184.291 11.1775 183.792 13.426 184.021 15.6588C184.25 17.8916 185.192 19.9747 186.691 21.5632C188.191 23.1518 190.158 24.1504 192.266 24.3938C194.375 24.6371 196.499 24.1106 198.286 22.9015C200.074 21.6923 201.417 19.873 202.095 17.7448ZM188.712 14.5984C188.712 11.8769 190.796 9.67066 193.366 9.67066C195.936 9.67066 198.02 11.8769 198.02 14.5984C198.02 17.3199 195.936 19.5261 193.366 19.5261C190.796 19.5261 188.712 17.3199 188.712 14.5984ZM195.819 14.5984C195.819 13.164 194.721 12.0013 193.366 12.0013C192.011 12.0013 190.913 13.164 190.913 14.5984C190.913 16.0327 192.011 17.1955 193.366 17.1955C194.721 17.1955 195.819 16.0327 195.819 14.5984ZM203.346 3.51225C203.587 3.62119 203.804 3.77924 203.987 3.97732C204.766 4.82172 204.751 6.12662 203.955 6.94869L201.177 9.81597L198.463 6.88813C197.684 6.04869 197.698 4.74378 198.495 3.91818C198.681 3.7238 198.903 3.57027 199.146 3.46642C199.389 3.36256 199.649 3.31044 199.911 3.31304C200.406 3.31852 200.881 3.5201 201.242 3.87785C201.611 3.5282 202.09 3.33715 202.585 3.34253C202.847 3.34563 203.106 3.4033 203.346 3.51225Z" fill="url(#paint0_linear)"/>
<defs>
<linearGradient id="paint0_linear" x1="-4.8271" y1="1.77939e-05" x2="216.323" y2="38.3631" gradientUnits="userSpaceOnUse">
<stop offset="0.0279144" stop-color="#A451D8"/>
<stop offset="0.948784" stop-color="#603DB1"/>
</linearGradient>
</defs>
</svg>
