<svg width="60" height="60" viewBox="0 0 60 60" fill="none" xmlns="http://www.w3.org/2000/svg">
<circle cx="30" cy="30" r="30" fill="#660DC2"/>
<path d="M25.7861 29.4206C27.7802 30.6895 28.7772 32.593 28.7772 35.1309C28.7772 37.1854 28.1125 38.8773 26.7831 40.2067C25.4538 41.5361 23.792 42.2008 21.798 42.2008C19.9248 42.2008 18.3235 41.5663 16.9941 40.2973C15.6647 39.0284 15 37.3062 15 35.1309C15 34.1641 15.1511 33.2879 15.4532 32.5023C15.7553 31.6564 16.2085 30.6593 16.8128 29.5112L23.2482 18H30.0462L25.7861 29.4206ZM41.4668 29.4206C43.4608 30.6895 44.4579 32.593 44.4579 35.1309C44.4579 37.1854 43.7932 38.8773 42.4638 40.2067C41.1344 41.5361 39.4727 42.2008 37.4786 42.2008C35.6054 42.2008 34.0041 41.5663 32.6747 40.2973C31.3453 39.0284 30.6806 37.3062 30.6806 35.1309C30.6806 34.1641 30.8317 33.2879 31.1338 32.5023C31.436 31.6564 31.8892 30.6593 32.4934 29.5112L38.9288 18H45.7268L41.4668 29.4206Z" fill="white"/>
</svg>
